<?xml version="1.0" encoding="UTF-8" standalone="no"?>
<svg
   xmlns:dc="http://purl.org/dc/elements/1.1/"
   xmlns:cc="http://creativecommons.org/ns#"
   xmlns:rdf="http://www.w3.org/1999/02/22-rdf-syntax-ns#"
   xmlns:svg="http://www.w3.org/2000/svg"
   xmlns="http://www.w3.org/2000/svg"
   xmlns:xlink="http://www.w3.org/1999/xlink"
   xmlns:sodipodi="http://sodipodi.sourceforge.net/DTD/sodipodi-0.dtd"
   xmlns:inkscape="http://www.inkscape.org/namespaces/inkscape"
   width="210mm"
   height="297mm"
   viewBox="0 0 210 297"
   version="1.1"
   id="svg8"
   inkscape:version="1.0.1 (3bc2e813f5, 2020-09-07)"
   sodipodi:docname="cafi&amp;joao.svg">
  <defs
     id="defs2">
    <linearGradient
       inkscape:collect="always"
       id="linearGradient882">
      <stop
         style="stop-color:#000000;stop-opacity:1;"
         offset="0"
         id="stop878" />
      <stop
         style="stop-color:#000000;stop-opacity:0;"
         offset="1"
         id="stop880" />
    </linearGradient>
    <linearGradient
       inkscape:collect="always"
       xlink:href="#linearGradient882"
       id="linearGradient884"
       x1="111.39954"
       y1="115.71229"
       x2="122.87862"
       y2="115.71229"
       gradientUnits="userSpaceOnUse" />
  </defs>
  <sodipodi:namedview
     id="base"
     pagecolor="#ffffff"
     bordercolor="#666666"
     borderopacity="1.0"
     inkscape:pageopacity="0.0"
     inkscape:pageshadow="2"
     inkscape:zoom="3.681489"
     inkscape:cx="403.31701"
     inkscape:cy="454.68056"
     inkscape:document-units="mm"
     inkscape:current-layer="layer1"
     inkscape:document-rotation="0"
     showgrid="false"
     inkscape:window-width="1920"
     inkscape:window-height="1017"
     inkscape:window-x="-8"
     inkscape:window-y="-8"
     inkscape:window-maximized="1"
     showguides="false" />
  <metadata
     id="metadata5">
    <rdf:RDF>
      <cc:Work
         rdf:about="">
        <dc:format>image/svg+xml</dc:format>
        <dc:type
           rdf:resource="http://purl.org/dc/dcmitype/StillImage" />
        <dc:title />
      </cc:Work>
    </rdf:RDF>
  </metadata>
  <g
     inkscape:label="tudo"
     inkscape:groupmode="layer"
     id="layer1"
     style="display:inline">
    <path
       id="path46"
       style="fill:none;fill-opacity:1;fill-rule:evenodd;stroke:#000000;stroke-width:0.999999;stroke-opacity:1"
       d="M 332.32422 296.06055 C 327.69637 296.11995 324.06581 298.17203 321.23047 301.81641 C 315.21515 315.46934 328.17624 325.30664 348.11133 329.29492 C 301.816 328.99624 288.07617 350.05273 288.07617 350.05273 L 297.03711 350.5 C 297.03711 350.5 296.73797 354.68279 298.08203 360.95508 C 321.97639 332.72986 357.66797 336.91016 357.66797 336.91016 L 356.77344 339.59766 L 336.16406 348.70898 L 336.41211 348.73047 C 328.02716 352.48414 321.99437 357.59012 319.72266 363.46875 C 277.01803 379.99372 249.7034 415.63911 249.70312 454.84375 C 249.70334 494.70555 277.93025 530.82031 321.70703 546.96875 C 340.76772 557.87078 354.9583 574.30339 361.84961 593.45312 C 363.16788 597.3302 366.47478 600.48865 370.70312 600.48828 C 374.569 600.48764 378.0113 598.04128 379.2832 594.39062 L 379.29883 594.38867 C 386.05711 574.84769 400.39346 558.05139 419.77539 546.9668 C 463.55063 530.81816 491.77654 494.70446 491.77734 454.84375 C 491.77734 416.10684 465.10368 380.79936 423.16406 364.02148 C 421.13518 358.10579 415.30423 352.9333 407.07227 349.09375 L 393.66016 339.74805 L 394.70508 337.95508 C 414.21647 344.06258 434.52738 341.85761 452.20117 367.07617 L 454.29102 355.72656 L 462.05664 357.36914 C 459.73578 342.05434 429.93264 334.93488 401.27539 329.59375 C 414.34322 327.15622 434.07018 324.68476 432.03906 310.0293 C 430.00794 295.37384 420.05806 293.32123 386.49219 315.25586 C 380.46263 308.71592 373.10583 308.80704 364.6875 314.21094 C 350.51751 301.39608 340.0373 295.96161 332.32422 296.06055 z M 336.17383 307.52344 C 341.08147 307.73385 351.37979 317.81034 355.87695 319.73633 C 347.95017 317.40828 331.40594 318.40339 334.07227 308.53516 C 334.54031 307.783 335.26501 307.48447 336.17383 307.52344 z M 417.31641 309.82617 C 417.94484 309.85117 418.4386 310.09929 418.76367 310.62695 C 423.21486 319.60274 405.31127 319.28849 396.96094 321.82812 C 401.97597 320.35795 412.91734 309.65139 417.31641 309.82617 z M 375.83398 320.48242 A 7.1683061 6.7202873 0 0 1 375.88867 320.48242 A 7.1683061 6.7202873 0 0 1 383.05664 327.20312 A 7.1683061 6.7202873 0 0 1 375.88867 333.92383 A 7.1683061 6.7202873 0 0 1 368.7207 327.20312 A 7.1683061 6.7202873 0 0 1 375.83398 320.48242 z M 373.87109 358.86719 C 374.4672 358.91568 375.05852 358.97571 375.65039 359.0332 L 368.46289 364.06641 L 365.28711 360.12305 C 368.08343 359.6326 370.94389 359.2116 373.87109 358.86719 z M 376.67383 359.13281 C 390.55072 360.60742 403.24057 364.54838 414.51758 370.3125 C 412.67974 371.46455 410.87751 372.88853 409.11328 374.60938 C 405.3008 378.29683 401.56642 383.18749 397.91016 389.28125 C 394.25392 395.37498 390.64454 402.59374 387.08203 410.9375 C 385.4607 414.72061 383.82825 418.73488 382.1875 422.92578 C 381.88361 423.19615 381.64554 423.41352 381.22266 423.78125 C 380.53516 424.40626 379.75392 425.09377 378.87891 425.84375 C 378.00391 426.59376 377.08203 427.35943 376.11328 428.14062 C 375.17578 428.92188 374.28516 429.62502 373.44141 430.25 C 372.59766 430.87501 371.84766 431.39063 371.19141 431.79688 C 370.53515 432.20306 370.06641 432.40625 369.78516 432.40625 C 369.59767 432.40625 369.50391 432.31442 369.50391 432.12695 L 369.50391 432.125 C 369.50391 431.78124 369.51954 431.29682 369.55078 430.67188 C 369.61329 430.01565 369.73829 429.23438 369.92578 428.32812 C 370.14453 427.42193 370.44141 426.375 370.81641 425.1875 C 371.22266 423.96875 371.78516 422.625 372.50391 421.15625 C 372.50391 420.81249 372.36328 420.32811 372.08203 419.70312 C 371.83203 419.04693 371.51953 418.37695 371.14453 417.68945 C 370.76953 417.00193 370.36328 416.37499 369.92578 415.8125 C 369.48828 415.21871 369.09766 414.79677 368.75391 414.54688 C 368.69139 414.51563 368.64453 414.51563 368.61328 414.54688 C 368.58204 414.57806 368.56641 414.60944 368.56641 414.64062 C 367.97266 415.64064 367.25391 416.62501 366.41016 417.59375 C 365.5664 418.56249 364.7539 419.42187 363.97266 420.17188 C 363.06641 421.07807 362.12891 421.92193 361.16016 422.70312 C 360.06641 423.60935 359.00391 424.48442 357.97266 425.32812 C 356.97266 426.14062 356.05078 426.86132 355.20703 427.48633 C 354.36328 428.08007 353.59765 428.5625 352.91016 428.9375 C 352.2539 429.28124 351.70703 429.45313 351.26953 429.45312 C 350.83203 429.45312 350.61328 429.1875 350.61328 428.65625 C 350.61328 427.93751 351.05078 426.76562 351.92578 425.14062 C 352.80078 423.48442 354.37891 421.53318 356.66016 419.2832 C 357.62891 418.34568 358.67578 417.39056 359.80078 416.42188 C 360.76953 415.60938 361.87891 414.75001 363.12891 413.84375 C 364.3789 412.90625 365.70703 412.06248 367.11328 411.3125 L 367.20703 411.2207 C 367.23828 411.18946 367.23828 411.14257 367.20703 411.08008 C 367.08203 410.89256 366.81641 410.6582 366.41016 410.37695 C 366.03515 410.06446 365.58203 409.76758 365.05078 409.48633 C 364.55078 409.17376 364.03516 408.89253 363.50391 408.64258 C 363.00391 408.36131 362.56641 408.15818 362.19141 408.0332 C 362.09767 407.97071 362.01954 407.95508 361.95703 407.98633 C 361.92579 408.01757 361.87892 408.0332 361.81641 408.0332 C 360.12891 408.53321 358.51953 409.20509 356.98828 410.04883 C 355.45703 410.8926 354.09766 411.72071 352.91016 412.5332 C 351.5039 413.50195 350.19141 414.53321 348.97266 415.62695 C 346.59766 417.7832 344.72266 419.89256 343.34766 421.95508 C 342.90358 422.61109 342.50908 423.24052 342.13672 423.85742 C 341.77064 423.52361 341.36832 423.16627 340.89844 422.76758 C 339.86719 421.86135 338.83594 420.97071 337.80469 420.0957 C 336.77344 419.22069 335.86719 418.47069 335.08594 417.8457 C 334.33594 417.2207 333.96094 416.89257 333.96094 416.86133 C 333.42969 417.58007 332.66406 418.56444 331.66406 419.81445 C 330.66406 421.0332 329.53906 422.37695 328.28906 423.8457 C 327.03906 425.28321 325.69531 426.75196 324.25781 428.25195 C 322.85156 429.75195 321.44531 431.11133 320.03906 432.33008 C 318.66406 433.54882 317.35156 434.54882 316.10156 435.33008 C 314.88281 436.08009 313.82031 436.45508 312.91406 436.45508 C 312.38281 436.45508 311.91406 436.39255 311.50781 436.26758 C 311.10156 436.14258 310.75781 435.90821 310.47656 435.56445 C 310.22656 435.18947 310.02343 434.70509 309.86719 434.11133 C 309.74219 433.48632 309.67969 432.70508 309.67969 431.76758 C 309.67969 429.2676 310.07031 426.45509 310.85156 423.33008 C 311.66406 420.17382 312.74219 416.87693 314.08594 413.43945 C 315.46094 410.00195 317.05469 406.51759 318.86719 402.98633 C 320.71094 399.45509 322.66406 396.03321 324.72656 392.7207 C 326.78906 389.37696 328.91406 386.25196 331.10156 383.3457 C 333.32031 380.43945 335.47656 377.90819 337.57031 375.75195 C 339.69531 373.56445 341.71094 371.8457 343.61719 370.5957 C 345.52344 369.31445 347.22656 368.67383 348.72656 368.67383 C 349.10156 368.67383 349.46094 368.73633 349.80469 368.86133 C 350.14843 368.98633 350.44531 369.22071 350.69531 369.56445 C 350.97657 369.87695 351.19532 370.33008 351.35156 370.92383 C 351.50781 371.51758 351.58594 372.29883 351.58594 373.26758 C 351.58594 374.54883 351.36719 375.89258 350.92969 377.29883 C 350.49219 378.67382 349.89844 380.06444 349.14844 381.4707 C 348.42969 382.8457 347.58594 384.22071 346.61719 385.5957 C 345.64844 386.93948 344.63281 388.2051 343.57031 389.39258 C 342.53906 390.54884 341.49219 391.5957 340.42969 392.5332 C 339.39844 393.43946 338.41406 394.18946 337.47656 394.7832 L 345.96094 402.93945 C 347.96094 401.2207 349.83594 399.26757 351.58594 397.08008 C 353.36719 394.89259 354.89844 392.65823 356.17969 390.37695 C 357.46094 388.06446 358.47656 385.78321 359.22656 383.5332 C 359.48511 382.74679 359.68214 381.99399 359.85156 381.25586 L 367.10742 376.17383 L 373.60938 384.24805 L 372.68945 373.73438 L 382.93164 372.14062 L 373.36719 367.67969 L 376.67383 359.13281 z M 362.36914 360.66406 L 362.88086 366.50586 L 355.13672 367.71289 C 354.49817 367.07094 353.85021 366.46914 353.17969 365.95508 C 352.24219 365.20508 351.28906 364.61133 350.32031 364.17383 C 350.0478 364.04197 349.78072 363.93461 349.51562 363.83984 C 353.63648 362.6165 357.9071 361.53952 362.36914 360.66406 z M 364.29102 361.64453 L 368.19141 366.48828 L 373.37891 362.85547 L 371.13477 368.65625 L 376.87305 371.33203 L 370.72852 372.28906 L 371.2793 378.59766 L 367.37891 373.75195 L 362.19141 377.38477 L 364.43555 371.58398 L 358.69727 368.9082 L 364.84375 367.95312 L 364.29102 361.64453 z M 357.36914 370.30664 L 362.20312 372.56055 L 360.34961 377.35352 C 360.34968 377.33575 360.35156 377.31655 360.35156 377.29883 C 360.35156 376.45508 360.14844 375.5332 359.74219 374.5332 C 359.36719 373.50195 358.85156 372.48633 358.19531 371.48633 C 357.94119 371.08699 357.65607 370.69661 357.36914 370.30664 z M 420.08008 373.36914 C 420.86878 373.83377 421.65074 374.30634 422.42383 374.78906 C 422.28587 375.36579 422.10578 375.98675 421.86328 376.67383 C 421.30079 378.23632 420.50391 379.98632 419.47266 381.92383 C 418.44142 383.86131 417.19141 385.93944 415.72266 388.1582 C 414.28515 390.34569 412.6914 392.58008 410.94141 394.86133 C 409.19141 397.1426 407.3008 399.40823 405.26953 401.6582 C 403.26953 403.90821 401.17577 406.0332 398.98828 408.0332 C 399.76953 406.31445 400.45704 404.83007 401.05078 403.58008 C 401.64455 402.33009 402.16016 401.29883 402.59766 400.48633 C 403.09766 399.51756 403.51955 398.70508 403.86328 398.04883 C 406.55078 393.33009 408.91014 389.33009 410.94141 386.04883 C 412.97265 382.76759 414.72266 380.09572 416.19141 378.0332 C 417.6914 375.97071 418.92579 374.4707 419.89453 373.5332 C 419.95934 373.47048 420.01694 373.42767 420.08008 373.36914 z M 325.26562 373.82031 C 323.98382 374.99445 322.72467 376.24365 321.49219 377.58008 C 318.92969 380.39259 316.53906 383.3926 314.32031 386.58008 C 312.13281 389.76758 310.13281 393.06444 308.32031 396.4707 C 306.50781 399.87694 304.96094 403.23632 303.67969 406.54883 C 302.39844 409.83009 301.41406 412.98632 300.72656 416.01758 C 300.03906 419.04881 299.69531 421.76758 299.69531 424.17383 C 299.69531 425.04884 299.77344 426.2207 299.92969 427.68945 C 300.08594 429.1582 300.63281 430.76758 301.57031 432.51758 C 302.35156 433.92384 303.32031 435.33009 304.47656 436.73633 C 305.63281 438.17383 306.88281 439.47069 308.22656 440.62695 C 309.57031 441.81446 310.92969 442.76759 312.30469 443.48633 C 313.67969 444.23634 314.97656 444.61133 316.19531 444.61133 C 317.88281 444.61133 319.61719 444.23634 321.39844 443.48633 C 323.17969 442.76759 324.94531 441.81446 326.69531 440.62695 C 328.44531 439.47069 330.14844 438.1582 331.80469 436.68945 C 333.46094 435.2207 335.00781 433.76758 336.44531 432.33008 C 337.62489 431.1505 338.67628 430.03583 339.6543 428.95703 C 339.28274 429.93642 339.0217 430.79694 338.89453 431.51758 C 338.70704 432.5801 338.61328 433.20511 338.61328 433.39258 C 338.61328 434.04883 338.80078 434.70508 339.17578 435.36133 C 339.51953 436.01758 339.94141 436.5957 340.44141 437.0957 C 340.67355 437.34235 340.90956 437.56027 341.14844 437.75977 C 340.94213 437.78854 340.78127 437.79996 340.56641 437.83203 C 338.47266 438.14452 336.22266 438.66017 333.81641 439.37891 C 331.41015 440.09767 328.97266 441.05078 326.50391 442.23828 C 324.06641 443.39451 321.86328 444.83203 319.89453 446.55078 C 317.92578 448.26953 316.31641 450.30077 315.06641 452.64453 C 313.81641 454.98827 313.19141 457.67577 313.19141 460.70703 C 313.19141 462.67579 313.47265 464.45703 314.03516 466.05078 C 314.6289 467.64453 315.33203 469.05078 316.14453 470.26953 C 316.98828 471.45703 317.84766 472.45703 318.72266 473.26953 C 319.59766 474.05078 320.34766 474.62893 320.97266 475.00391 C 321.34766 474.97266 321.95703 474.91014 322.80078 474.81641 C 323.64453 474.72267 324.66016 474.59763 325.84766 474.44141 C 327.03516 474.28511 328.34766 474.09761 329.78516 473.87891 C 331.25391 473.66015 332.78516 473.39452 334.37891 473.08203 C 332.2539 471.73828 330.50391 470.39453 329.12891 469.05078 C 327.78516 467.67576 326.72265 466.36327 325.94141 465.11328 C 325.16016 463.86329 324.61328 462.69143 324.30078 461.59766 C 323.98828 460.50391 323.83203 459.53515 323.83203 458.69141 C 323.83203 457.09766 324.2539 455.61327 325.09766 454.23828 C 325.94141 452.83202 327.03516 451.55079 328.37891 450.39453 C 329.72265 449.20705 331.23828 448.16016 332.92578 447.25391 C 334.61328 446.31641 336.28516 445.53516 337.94141 444.91016 C 339.6289 444.28515 341.22265 443.80077 342.72266 443.45703 C 344.22265 443.11327 345.47266 442.94141 346.47266 442.94141 C 347.91016 442.94141 348.86328 443.28516 349.33203 443.97266 C 349.80078 444.62891 350.03516 445.69141 350.03516 447.16016 C 350.03516 449.1914 349.72265 451.45702 349.09766 453.95703 C 348.50391 456.42579 347.67578 459.03517 346.61328 461.78516 C 345.55078 464.53517 344.26953 467.37891 342.76953 470.31641 C 341.30078 473.25391 339.70703 476.20704 337.98828 479.17578 C 335.39453 478.11328 332.41016 477.58203 329.03516 477.58203 C 326.1914 477.58203 323.3789 478.12889 320.59766 479.22266 C 317.81641 480.28516 315.16016 481.75391 312.62891 483.62891 C 310.09766 485.47264 307.7539 487.62889 305.59766 490.09766 C 303.44141 492.56639 301.58203 495.17577 300.01953 497.92578 C 298.42578 500.67579 297.1914 503.50393 296.31641 506.41016 C 296.05304 507.24566 295.83917 508.07099 295.65234 508.89062 C 290.25956 502.99838 285.27287 496.56293 281.23828 489.5957 L 282.11523 489.79883 L 283.20703 485.07812 L 284.79102 487.62109 L 286.67969 486.08398 L 283.97461 481.75391 L 284.74219 478.42969 L 288.56641 484.55078 L 290.45117 483.01367 L 285.51172 475.10352 L 286.20898 472.08203 A 8.4459651 8.4459651 0 0 0 292.20508 470.25195 L 294.47461 472.36719 L 294.79688 481.68555 L 297.22266 481.9082 L 296.96875 474.69531 L 299.46484 477.02344 L 299.64453 482.125 L 302.06445 482.3457 L 301.95898 479.35156 L 305.5 482.65625 L 307.14648 480.88867 L 303.60547 477.58398 L 306.59961 477.48242 L 306.2168 475.08203 L 301.11133 475.25586 L 298.61523 472.92773 L 305.82812 472.67969 L 305.44531 470.2793 L 296.12109 470.60156 L 293.85352 468.48438 A 8.4459651 8.4459651 0 0 0 295.26367 462.37695 L 298.23047 461.4707 L 306.4668 465.85156 L 307.86523 463.86328 L 301.49414 460.47461 L 304.75781 459.47852 L 309.26758 461.875 L 310.66602 459.88672 L 308.02148 458.48047 L 312.6543 457.06445 L 311.94922 454.75391 L 307.31641 456.16992 L 308.72656 453.52539 L 306.45312 452.66211 L 304.05273 457.16797 L 300.78906 458.16406 L 304.18359 451.79297 L 301.90625 450.92969 L 297.52734 459.16016 L 294.56055 460.06641 A 8.4459651 8.4459651 0 0 0 289.97656 455.79102 L 290.67383 452.76953 L 298.58398 447.83008 L 297.56445 445.62109 L 291.44336 449.44336 L 292.21094 446.11914 L 296.54102 443.41406 L 295.51953 441.20508 L 292.97852 442.79492 L 294.07031 438.07422 L 291.71875 437.5293 L 290.62891 442.25 L 289.04297 439.70703 L 287.1543 441.24414 L 289.85938 445.57617 L 289.0918 448.90039 L 285.26758 442.77734 L 283.38281 444.31641 L 288.32227 452.22461 L 287.625 455.24609 A 8.4459651 8.4459651 0 0 0 281.62891 457.07812 L 279.35938 454.96094 L 279.03711 445.64258 L 276.61133 445.42188 L 276.86523 452.63477 L 274.37109 450.30664 L 274.18945 445.20508 L 272.07812 445.01172 C 276.01751 419.88826 293.28655 391.2352 325.26562 373.82031 z M 427.38086 378.10547 C 433.21405 382.21942 438.56 386.84004 443.34375 391.87695 L 441.13477 394.41406 L 433.11914 388.33398 L 436.44727 398.02148 L 430.49219 400.52539 C 430.72548 400.10198 430.9581 399.68729 431.19141 399.2207 C 431.56641 398.50196 431.89453 397.83009 432.17578 397.20508 C 432.45705 396.54883 432.69144 395.98632 432.87891 395.51758 C 433.09761 395.01755 433.22266 394.70505 433.25391 394.58008 C 433.25391 394.39259 432.97265 394.0801 432.41016 393.64258 C 431.87891 393.17384 431.23829 392.70509 430.48828 392.23633 C 429.7383 391.76759 428.95703 391.36134 428.14453 391.01758 C 427.33203 390.64257 426.64455 390.45508 426.08203 390.45508 C 425.80078 390.45508 425.39453 390.81444 424.86328 391.5332 C 424.33203 392.25194 423.81639 393.11132 423.31641 394.11133 C 422.8164 395.08007 422.37891 396.0957 422.00391 397.1582 C 421.6289 398.18946 421.44141 399.0332 421.44141 399.68945 C 421.44141 399.8457 421.70703 400.11132 422.23828 400.48633 C 422.76953 400.86131 423.39454 401.25195 424.11328 401.6582 C 424.86329 402.03321 425.6289 402.37694 426.41016 402.68945 C 427.22265 403.00194 427.91016 403.17383 428.47266 403.20508 C 428.66017 403.20508 428.89453 403.01758 429.17578 402.64258 C 429.24282 402.55542 429.31433 402.44735 429.38281 402.35156 L 437.22656 403.88086 L 435.9668 413.86328 L 442.69336 406.13672 L 449.50195 411.30469 C 449.44466 411.35525 449.38722 411.39952 449.33008 411.45117 C 448.09049 412.59352 446.91103 413.96613 445.79297 415.57031 C 444.67491 417.17447 443.65408 418.96093 442.73047 420.92969 C 441.80685 422.87415 440.97917 424.97787 440.25 427.23828 C 439.54514 429.49872 438.9746 431.84287 438.53711 434.27344 C 436.30099 436.04772 434.12631 437.87064 432.01172 439.74219 C 429.92144 441.58942 428.06207 443.51086 426.43359 445.50391 C 424.80512 447.47266 423.50347 449.52515 422.53125 451.66406 C 421.53471 453.77863 421.03711 455.99174 421.03711 458.30078 C 421.03711 458.64106 421.17014 459.08942 421.4375 459.64844 C 421.68055 460.20748 422.02149 460.80361 422.45898 461.43555 C 422.87219 462.06748 423.34613 462.70007 423.88086 463.33203 C 424.43988 463.96397 425.01042 464.53451 425.59375 465.04492 C 426.17711 465.55536 426.76042 465.96919 427.34375 466.28516 C 427.92708 466.62544 428.46312 466.79492 428.94922 466.79492 C 429.66471 466.79492 430.48579 466.65362 431.39844 466.39062 C 431.22216 466.60659 431.09772 466.7493 430.87891 467.02539 C 430.41001 467.5775 429.86238 468.13074 429.23633 468.68359 C 428.6103 469.23642 427.90481 469.73032 427.12109 470.16602 C 426.37648 470.56226 425.59251 470.76188 424.76758 470.76562 C 423.66762 470.77064 422.64347 470.40226 421.69727 469.66016 C 420.75106 468.91805 419.74641 468.09791 418.68164 467.19922 C 417.61667 466.26124 416.45382 465.42229 415.19336 464.68164 C 413.93288 463.94097 412.43942 463.57416 410.71094 463.58203 C 409.84669 463.58597 408.96246 463.76733 408.06055 464.125 C 407.19791 464.4825 406.33599 464.97691 405.47461 465.60938 C 404.61305 466.20255 403.75306 466.91329 402.89258 467.74219 C 402.03194 468.5318 401.18981 469.39914 400.36914 470.3457 C 400.44926 470.65962 400.58938 471.19007 400.78906 471.93555 C 401.028 472.64159 401.2875 473.42607 401.56641 474.28906 C 401.84534 475.15205 402.1429 475.99485 402.46094 476.81836 C 402.56243 477.08119 402.66429 477.30043 402.76562 477.53125 C 401.62835 477.95111 400.52501 478.44796 399.46289 479.0332 C 397.93165 479.87697 396.57227 480.70508 395.38477 481.51758 C 393.9785 482.48632 392.66601 483.51758 391.44727 484.61133 C 389.07226 486.76757 387.19726 488.87694 385.82227 490.93945 C 385.72678 491.08052 385.64686 491.21426 385.55469 491.35352 C 384.05125 492.86109 382.59105 494.0045 381.18164 494.73633 C 379.58789 495.54885 377.85352 496.0176 375.97852 496.14258 C 376.79102 494.83007 377.43164 493.50195 377.90039 492.1582 C 378.40039 490.81446 378.65039 489.4707 378.65039 488.12695 C 378.55663 487.90819 378.30663 487.51757 377.90039 486.95508 C 377.52539 486.39258 377.07227 485.78321 376.54102 485.12695 C 376.04101 484.43946 375.52539 483.78321 374.99414 483.1582 C 374.49414 482.50195 374.08789 481.98633 373.77539 481.61133 L 373.49414 481.89258 C 372.74414 482.61134 372.05664 483.39259 371.43164 484.23633 C 370.80664 485.04883 370.27539 485.81444 369.83789 486.5332 C 369.30664 487.3457 368.85352 488.17384 368.47852 489.01758 C 367.91601 490.11132 367.55664 491.09569 367.40039 491.9707 C 367.27539 492.81444 367.21289 493.54882 367.21289 494.17383 L 367.21289 494.92383 C 367.24413 495.17383 367.291 495.47072 367.35352 495.81445 C 366.07227 497.56445 364.83789 499.01757 363.65039 500.17383 C 362.46289 501.29882 361.50976 501.86133 360.79102 501.86133 C 360.10351 501.86133 359.75977 501.39258 359.75977 500.45508 C 359.75977 499.33009 360.05664 497.75195 360.65039 495.7207 C 361.24414 493.65819 362.38476 491.36133 364.07227 488.83008 C 365.19726 487.11133 366.22852 485.73631 367.16602 484.70508 C 368.10352 483.64258 368.91602 482.8301 369.60352 482.26758 C 370.29102 481.70506 370.83789 481.31441 371.24414 481.0957 C 371.6504 480.84565 371.88478 480.64255 371.94727 480.48633 C 371.94727 480.36135 371.80664 480.11133 371.52539 479.73633 C 371.24414 479.33008 370.88477 478.92383 370.44727 478.51758 C 370.04102 478.11133 369.58789 477.75197 369.08789 477.43945 C 368.61914 477.09572 368.16602 476.92383 367.72852 476.92383 C 367.57227 476.92383 367.36914 476.93946 367.11914 476.9707 C 366.9004 477.00195 366.74415 477.04884 366.65039 477.11133 C 363.74414 477.92383 361.22852 479.11135 359.10352 480.67383 C 357.00977 482.23634 355.29102 484.04881 353.94727 486.11133 C 352.57227 488.14257 351.57227 490.33009 350.94727 492.67383 C 350.667 493.67479 350.4594 494.67888 350.29883 495.68555 C 350.17934 495.03612 350.0485 494.3908 349.89453 493.75391 C 349.20703 490.91016 348.11328 488.36328 346.61328 486.11328 C 348.39453 483.08202 350.01953 480.06639 351.48828 477.06641 C 352.95703 474.03515 354.22266 471.12891 355.28516 468.34766 C 356.34766 465.5664 357.17578 462.94139 357.76953 460.47266 C 358.36328 457.97265 358.66016 455.70703 358.66016 453.67578 C 358.66016 451.51954 358.31641 449.92579 357.62891 448.89453 C 357.44141 448.55077 357.14453 448.03515 356.73828 447.34766 C 356.33203 446.62892 355.83203 445.84767 355.23828 445.00391 C 354.67578 444.12892 354.01953 443.23829 353.26953 442.33203 C 352.55078 441.42578 351.76953 440.61327 350.92578 439.89453 C 350.11328 439.14452 349.25391 438.53514 348.34766 438.06641 C 347.8216 437.7943 347.29559 437.61024 346.76953 437.49609 C 347.21351 437.27109 347.66483 437.03277 348.12891 436.76758 C 349.69141 435.92384 351.23828 434.9707 352.76953 433.9082 C 354.30078 432.8457 355.7539 431.72071 357.12891 430.5332 C 358.53516 429.3457 359.75391 428.20507 360.78516 427.11133 C 360.41015 428.33007 360.1289 429.36134 359.94141 430.20508 C 359.75392 431.01758 359.62892 431.72069 359.56641 432.31445 C 359.50392 432.87695 359.47266 433.3457 359.47266 433.7207 C 359.5039 434.06449 359.51953 434.36138 359.51953 434.61133 C 359.51953 435.26758 359.70703 435.86133 360.08203 436.39258 C 360.45703 436.92383 360.92578 437.37695 361.48828 437.75195 C 362.05078 438.15825 362.66016 438.47074 363.31641 438.68945 C 364.0039 438.90816 364.6289 439.01563 365.19141 439.01562 C 366.00391 439.01562 366.95703 438.75 368.05078 438.21875 C 369.14453 437.71874 370.30078 437.0625 371.51953 436.25 C 372.73828 435.4375 373.98828 434.51756 375.26953 433.48633 C 376.55078 432.42383 377.78515 431.36133 378.97266 430.29883 C 379.19054 430.10887 379.36428 429.94097 379.57617 429.75391 C 378.47298 432.69835 377.36577 435.70167 376.25391 438.82812 L 367.58203 439.8125 L 368.28516 444.59375 C 369.34765 444.50002 370.39453 444.40623 371.42578 444.3125 C 372.45703 444.21877 373.45703 444.09567 374.42578 443.93945 C 372.95703 448.18946 371.48828 452.53321 370.01953 456.9707 C 368.55078 461.43944 367.03516 466.08006 365.47266 470.89258 L 377.75391 466.86133 C 379.22266 462.11134 380.62891 457.64259 381.97266 453.45508 C 383.28516 449.29883 384.56642 445.39257 385.81641 441.73633 C 390.16017 440.54883 394.28516 438.89258 398.19141 436.76758 C 402.12889 434.67382 406.0039 431.93945 409.81641 428.56445 C 409.53511 429.5332 409.28511 430.4707 409.06641 431.37695 C 408.84762 432.25196 408.66013 433.04884 408.50391 433.76758 C 408.50391 434.33007 408.73827 434.90819 409.20703 435.50195 C 409.67577 436.09569 410.23828 436.62694 410.89453 437.0957 C 411.55078 437.59568 412.23827 438.00194 412.95703 438.31445 C 413.67577 438.65819 414.26952 438.83008 414.73828 438.83008 L 414.73828 438.82812 C 415.45702 438.82813 416.34766 438.57811 417.41016 438.07812 C 418.47266 437.57817 419.61328 436.92182 420.83203 436.10938 C 422.08202 435.29688 423.34765 434.37501 424.62891 433.34375 C 425.94141 432.31249 427.1914 431.28126 428.37891 430.25 C 429.59765 429.21877 430.72265 428.21877 431.75391 427.25 C 432.78514 426.25001 433.64451 425.40625 434.33203 424.71875 L 432.22266 422.42188 C 431.84765 422.73434 431.30077 423.20319 430.58203 423.82812 C 429.86327 424.45313 429.05076 425.15625 428.14453 425.9375 C 427.26952 426.68748 426.34765 427.45312 425.37891 428.23438 C 424.41016 429.01558 423.47266 429.73442 422.56641 430.39062 C 421.6914 431.04688 420.91015 431.57813 420.22266 431.98438 C 419.53516 432.39057 419.01954 432.59375 418.67578 432.59375 C 418.48832 432.59375 418.39453 432.49996 418.39453 432.3125 C 418.39453 431.96874 418.53516 431.35931 418.81641 430.48438 C 419.1289 429.57812 419.50389 428.54688 419.94141 427.39062 C 420.41014 426.23442 420.89452 424.99998 421.39453 423.6875 C 421.92578 422.375 422.41016 421.125 422.84766 419.9375 C 423.31642 418.71875 423.69141 417.62502 423.97266 416.65625 C 424.28515 415.68751 424.44141 414.95313 424.44141 414.45312 C 424.44141 413.98444 424.11328 413.43751 423.45703 412.8125 C 422.80078 412.15625 422.05077 411.54682 421.20703 410.98438 C 420.39453 410.39064 419.59766 409.89057 418.81641 409.48438 C 418.06637 409.07813 417.59762 408.875 417.41016 408.875 C 417.28515 408.875 417.03516 409.25002 416.66016 410 C 416.31642 410.75001 415.89454 411.75001 415.39453 413 C 414.89452 414.21875 414.33204 415.625 413.70703 417.21875 C 413.11329 418.8125 412.51952 420.45317 411.92578 422.14062 C 409.67578 424.20311 407.55078 426.01567 405.55078 427.57812 C 403.58203 429.10936 401.62892 430.45312 399.69141 431.60938 C 397.78516 432.76558 395.84766 433.75 393.87891 434.5625 C 391.94142 435.375 389.86329 436.06251 387.64453 436.625 C 389.01952 432.90625 390.30078 429.48431 391.48828 426.35938 C 392.67578 423.20312 393.80078 420.32806 394.86328 417.73438 C 397.80078 415.51562 400.66015 413.15626 403.44141 410.65625 C 406.22266 408.125 408.83204 405.54681 411.26953 402.92188 C 413.73829 400.26562 416.00392 397.60938 418.06641 394.95312 C 420.12892 392.26568 421.89453 389.65625 423.36328 387.125 C 424.86327 384.56251 426.01953 382.12502 426.83203 379.8125 C 427.04152 379.23057 427.22338 378.66235 427.38086 378.10547 z M 444.87109 393.5 C 444.87514 393.50444 444.87877 393.50923 444.88281 393.51367 L 444.25586 398.47461 L 449.2832 399.45312 L 444.64648 401.4043 L 446.31055 406.24805 L 442.30273 403.20703 L 438.93945 407.07031 L 439.57031 402.08008 L 434.54297 401.09766 L 439.17969 399.14844 L 437.51758 394.30469 L 441.52344 397.3457 L 444.87109 393.5 z M 446.73438 395.60938 C 447.10691 396.04042 447.47289 396.47598 447.83789 396.91211 L 446.59961 396.66992 L 446.73438 395.60938 z M 451.07422 400.97852 C 452.80601 403.26418 454.43638 405.60843 455.96484 408 C 455.04314 408.1415 454.13089 408.40811 453.23047 408.82617 C 452.19635 409.29622 451.18386 409.93064 450.19336 410.7207 L 447.37891 402.5332 L 451.07422 400.97852 z M 458.15234 411.92578 C 458.24686 411.92578 458.32088 411.94593 458.38477 411.97656 C 458.45503 412.09794 458.51815 412.22216 458.58789 412.34375 C 458.58808 412.35096 458.58984 412.35589 458.58984 412.36328 C 458.58984 413.72439 458.24893 415.07336 457.56836 416.41016 C 456.91211 417.74698 456.00065 419.09592 454.83398 420.45703 C 453.66732 421.79385 452.30753 423.1428 450.75195 424.50391 C 449.22072 425.84073 447.58007 427.20249 445.83008 428.58789 C 446.36478 426.47332 447.02105 424.41885 447.79883 422.42578 C 448.60092 420.40842 449.51235 418.63478 450.5332 417.10352 C 451.57834 415.54796 452.73222 414.29556 453.99609 413.34766 C 455.25999 412.39973 456.6454 411.92578 458.15234 411.92578 z M 462.61523 420.10742 C 464.29793 423.71298 465.77024 427.38416 466.99609 431.10352 C 477.74442 463.71498 469.98348 494.45239 439.02734 519.71094 L 435.07812 515.89844 L 440.76758 509.15039 L 432.13086 511.63086 L 430.72656 507.74219 C 431.49773 507.65811 432.29343 507.49967 433.11914 507.25195 C 434.36916 506.87695 435.61915 506.3457 436.86914 505.6582 C 438.1504 504.97071 439.40039 504.1582 440.61914 503.2207 C 441.83789 502.2832 442.97851 501.25194 444.04102 500.12695 C 445.41601 500.12695 446.75976 500.01754 448.07227 499.79883 C 449.38477 499.54882 450.66603 499.1582 451.91602 498.62695 C 453.19728 498.0957 454.4629 497.37696 455.71289 496.4707 C 456.99415 495.56447 458.29101 494.42385 459.60352 493.04883 C 459.32227 492.70509 458.94728 492.29884 458.47852 491.83008 C 458.04102 491.33007 457.68164 490.93945 457.40039 490.6582 C 455.65039 492.5332 453.96291 493.89256 452.33789 494.73633 C 450.74414 495.54885 449.00976 496.0176 447.13477 496.14258 C 447.94729 494.83007 448.5879 493.50195 449.05664 492.1582 C 449.55665 490.81446 449.80664 489.4707 449.80664 488.12695 C 449.71288 487.90819 449.46289 487.51757 449.05664 486.95508 C 448.68164 486.39258 448.22852 485.78321 447.69727 485.12695 C 447.19726 484.43946 446.68162 483.78321 446.15039 483.1582 C 445.65038 482.50195 445.24416 481.98633 444.93164 481.61133 L 444.65039 481.89258 C 443.90038 482.61134 443.21287 483.39259 442.58789 484.23633 C 441.96288 485.04883 441.43163 485.81444 440.99414 486.5332 C 440.46289 487.3457 440.00977 488.17384 439.63477 489.01758 C 439.07225 490.11132 438.71286 491.09569 438.55664 491.9707 C 438.43166 492.81444 438.36914 493.54882 438.36914 494.17383 L 438.36914 494.92383 C 438.40038 495.17383 438.44728 495.47072 438.50977 495.81445 C 437.22853 497.56445 435.99414 499.01757 434.80664 500.17383 C 433.61914 501.29882 432.66603 501.86133 431.94727 501.86133 C 431.25977 501.86133 430.91602 501.39258 430.91602 500.45508 C 430.91602 499.33009 431.21288 497.75195 431.80664 495.7207 C 432.40038 493.65819 433.54101 491.36133 435.22852 488.83008 C 436.3535 487.11133 437.38477 485.73631 438.32227 484.70508 C 439.25976 483.64258 440.07224 482.8301 440.75977 482.26758 C 441.44726 481.70506 441.99414 481.31441 442.40039 481.0957 C 442.80664 480.84565 443.04103 480.64255 443.10352 480.48633 C 443.10352 480.36135 442.96289 480.11133 442.68164 479.73633 C 442.40039 479.33008 442.04101 478.92383 441.60352 478.51758 C 441.19727 478.11133 440.74415 477.75197 440.24414 477.43945 C 439.77538 477.09572 439.32226 476.92383 438.88477 476.92383 C 438.72847 476.92383 438.52534 476.93946 438.27539 476.9707 C 438.05663 477.00195 437.90037 477.04884 437.80664 477.11133 C 434.90039 477.92383 432.38477 479.11135 430.25977 480.67383 C 428.16601 482.23634 426.44726 484.04881 425.10352 486.11133 C 423.72852 488.14257 422.72852 490.33009 422.10352 492.67383 C 421.92695 493.30444 421.77945 493.93549 421.65039 494.56836 C 421.54248 494.66142 421.46444 494.73501 421.35352 494.83008 C 420.47853 495.58009 419.55663 496.3457 418.58789 497.12695 C 417.65039 497.90821 416.75978 498.61135 415.91602 499.23633 C 415.07227 499.86134 414.32227 500.37695 413.66602 500.7832 C 413.00976 501.18945 412.54101 501.39258 412.25977 501.39258 C 412.0723 501.39258 411.97852 501.29879 411.97852 501.11133 C 411.97852 500.76757 411.99415 500.28321 412.02539 499.6582 C 412.08788 499.00195 412.21293 498.22068 412.40039 497.31445 C 412.61912 496.4082 412.91601 495.36133 413.29102 494.17383 C 413.69726 492.95508 414.25975 491.61133 414.97852 490.14258 C 414.97852 489.79882 414.83789 489.31446 414.55664 488.68945 C 414.30664 488.03323 413.99415 487.36135 413.61914 486.67383 C 413.24414 485.98633 412.83788 485.36132 412.40039 484.79883 C 411.96287 484.20504 411.57225 483.78316 411.22852 483.5332 C 411.16603 483.50196 411.11913 483.50196 411.08789 483.5332 C 411.05665 483.56445 411.04102 483.59571 411.04102 483.62695 C 410.44725 484.62697 409.72851 485.61133 408.88477 486.58008 C 408.04102 487.54882 407.22852 488.40819 406.44727 489.1582 C 405.54101 490.06446 404.60351 490.90822 403.63477 491.68945 C 402.54102 492.59571 401.47852 493.47069 400.44727 494.31445 C 399.44725 495.12695 398.52538 495.84572 397.68164 496.4707 C 396.8379 497.06447 396.07226 497.54882 395.38477 497.92383 C 394.72851 498.26756 394.18166 498.43945 393.74414 498.43945 C 393.30665 498.43945 393.08789 498.17383 393.08789 497.64258 C 393.08789 496.92384 393.52538 495.75195 394.40039 494.12695 C 395.27538 492.47069 396.85352 490.51758 399.13477 488.26758 C 400.10353 487.33008 401.1504 486.37695 402.27539 485.4082 C 403.24413 484.59571 404.3535 483.73633 405.60352 482.83008 C 406.85351 481.89258 408.18163 481.04881 409.58789 480.29883 L 409.68164 480.20508 C 409.71288 480.17383 409.71288 480.12694 409.68164 480.06445 C 409.55664 479.87696 409.29101 479.64258 408.88477 479.36133 C 408.50976 479.04881 408.05664 478.75195 407.52539 478.4707 C 407.02541 478.15816 406.50977 477.87691 405.97852 477.62695 C 405.58281 477.40436 405.23733 477.2458 404.91992 477.12109 C 404.92661 477.113 404.93079 477.10969 404.9375 477.10156 C 405.52337 476.35248 406.16918 475.62438 406.87305 474.91406 C 407.61622 474.20355 408.39807 473.59061 409.2207 473.07617 C 410.08244 472.52227 410.96562 472.2424 411.86914 472.23828 C 412.69408 472.23452 413.55969 472.62469 414.4668 473.40625 C 415.3739 474.18779 416.36063 475.06571 417.42578 476.04297 C 418.49073 476.98097 419.6534 477.84117 420.91406 478.62109 C 422.17472 479.40105 423.55215 479.78805 425.04492 479.78125 C 426.02701 479.77678 427.04658 479.57541 428.10547 479.17773 C 429.16415 478.74078 430.18271 478.22458 431.16211 477.63086 C 432.14151 477.03714 433.08194 476.40437 433.98242 475.73242 C 434.8829 475.0605 435.68584 474.46703 436.39062 473.95312 C 435.8744 472.73766 435.27957 471.44415 434.60547 470.07227 C 434.032 468.83275 433.25386 467.51135 432.29492 466.11328 C 433.04528 465.87187 433.81854 465.59019 434.63672 465.22656 C 435.75478 464.74044 436.92142 464.16992 438.13672 463.51367 C 439.3763 462.85742 440.62868 462.14106 441.89258 461.36328 C 442.52452 462.62718 443.09506 463.648 443.60547 464.42578 C 444.11596 465.22777 444.43129 465.7254 444.55273 465.91992 C 445.13609 465.96754 445.93816 466.0041 446.95898 466.0293 C 448.00412 466.05449 449.07422 466.06641 450.16797 466.06641 C 451.28603 466.06641 452.34331 466.04277 453.33984 465.99414 C 454.36067 465.9697 455.1391 465.92048 455.67383 465.84766 C 455.45509 465.62892 455.11415 465.22789 454.65234 464.64453 C 454.21483 464.08551 453.70443 463.39279 453.12109 462.56641 C 452.56208 461.71571 451.94229 460.75696 451.26172 459.6875 C 450.60547 458.61804 449.94922 457.46224 449.29297 456.22266 C 450.60547 455.22612 451.83223 454.23085 452.97461 453.23438 C 454.11696 452.23784 455.11415 451.30079 455.96484 450.42578 C 456.81554 449.52648 457.49542 448.72439 458.00586 448.01953 C 458.54056 447.29036 458.83223 446.68339 458.88086 446.19727 L 458.88086 445.6875 C 458.88086 445.29861 458.85722 444.76257 458.80859 444.08203 C 458.75996 443.40146 458.6871 442.67231 458.58984 441.89453 C 458.51677 441.11675 458.41828 440.34028 458.29688 439.5625 C 458.19962 438.76041 458.0902 438.04209 457.96875 437.41016 C 457.87149 436.7539 457.76207 436.23264 457.64062 435.84375 C 457.51922 435.43055 457.41171 435.22266 457.31445 435.22266 C 457.26582 435.22266 456.98502 435.62369 456.47461 436.42578 C 455.9642 437.20356 455.23504 438.26086 454.28711 439.59766 C 453.3392 440.91016 452.18533 442.41775 450.82422 444.11914 C 449.46308 445.82053 447.90625 447.58331 446.15625 449.40625 C 445.59723 447.87499 445.13608 446.33094 444.77148 444.77539 C 444.4312 443.21981 444.26172 441.70138 444.26172 440.21875 L 444.26172 439.01562 C 444.28515 438.57817 444.30879 438.14062 444.33398 437.70312 C 445.91385 436.34203 447.50522 434.99304 449.10938 433.65625 C 450.73781 432.31943 452.29469 430.99414 453.77734 429.68164 C 455.28429 428.36914 456.68251 427.08028 457.9707 425.81641 C 459.25889 424.52819 460.37629 423.25216 461.32422 421.98828 C 461.8088 421.35832 462.23934 420.73135 462.61523 420.10742 z M 437.62695 443.97266 L 437.62695 444.62891 C 437.62695 446.64627 437.79644 448.56772 438.13672 450.39062 C 438.477 452.18923 438.91452 453.88996 439.44922 455.49414 C 438.33118 456.34484 437.26108 457.09765 436.24023 457.75391 C 435.21941 458.38584 434.28429 458.92188 433.43359 459.35938 C 432.5829 459.79688 431.84095 460.12504 431.20898 460.34375 C 430.57705 460.56246 430.10308 460.67187 429.78711 460.67188 C 429.59269 460.67188 429.44687 460.60973 429.34961 460.48828 C 429.27679 460.34237 429.24023 460.20934 429.24023 460.08789 C 429.24023 458.65386 429.44812 457.24476 429.86133 455.85938 C 430.27453 454.47395 430.85787 453.11221 431.61133 451.77539 C 432.36481 450.41428 433.25066 449.08897 434.27148 447.80078 C 435.29233 446.51259 436.41168 445.23656 437.62695 443.97266 z M 271.83203 446.76953 L 271.875 447.97852 L 271.70703 447.82227 C 271.74682 447.4719 271.78614 447.12145 271.83203 446.76953 z M 272.72266 452.07422 L 275.21875 454.40039 L 271.30469 454.53516 C 271.30909 453.73384 271.31744 452.93109 271.35352 452.12109 L 272.72266 452.07422 z M 277.71289 456.72852 L 279.98242 458.8457 A 8.4459651 8.4459651 0 0 0 278.57031 464.95312 L 275.60352 465.85742 L 271.96875 463.92383 C 271.6313 461.63776 271.41548 459.31366 271.33594 456.94922 L 277.71289 456.72852 z M 286.86719 457.63477 A 6.0328478 6.0328478 0 0 1 288.10547 457.75195 A 6.0328478 6.0328478 0 0 1 292.79492 465.02344 A 6.0328526 6.0328526 0 1 1 281.03906 462.30664 A 6.0328478 6.0328478 0 0 1 286.86719 457.63477 z M 279.27539 467.26367 A 8.4459651 8.4459651 0 0 0 283.85938 471.53906 L 283.16016 474.56055 L 276.06836 478.99023 C 275.24878 476.93334 274.51979 474.83931 273.89453 472.70508 L 276.30859 468.16797 L 279.27539 467.26367 z M 273.04492 469.16602 L 272.98438 469.28125 C 272.97726 469.25109 272.96801 469.22158 272.96094 469.19141 L 273.04492 469.16602 z M 282.39258 477.88477 L 281.62305 481.21094 L 278.00781 483.4668 C 277.66026 482.73389 277.3285 481.99344 277.00391 481.25 L 282.39258 477.88477 z M 334.47266 483.76953 C 334.78516 483.76953 335.01954 483.78516 335.17578 483.81641 C 333.26953 486.81639 331.30078 489.7539 329.26953 492.62891 C 327.23828 495.47265 325.19141 498.17579 323.12891 500.73828 C 321.06641 503.26953 319.03516 505.59765 317.03516 507.72266 C 315.03516 509.84766 313.14453 511.67579 311.36328 513.20703 C 309.58203 514.76954 307.92578 515.97264 306.39453 516.81641 C 305.69757 517.22296 305.04871 517.52453 304.43945 517.74219 C 303.65229 517.00659 302.86864 516.26107 302.08789 515.50391 C 302.20866 513.91176 302.63177 512.15341 303.39453 510.20703 C 304.30078 507.8633 305.53516 505.48828 307.09766 503.08203 C 308.6914 500.64454 310.53516 498.26955 312.62891 495.95703 C 314.75391 493.64454 317.01953 491.59765 319.42578 489.81641 C 321.83203 488.0039 324.31641 486.55078 326.87891 485.45703 C 329.44141 484.33202 331.97266 483.76953 334.47266 483.76953 z M 280.85547 484.53516 L 280.14062 487.62695 C 279.78191 486.96903 279.4309 486.30761 279.08984 485.64062 L 280.85547 484.53516 z M 342.25391 493.09766 C 342.28515 493.44142 342.30078 493.76954 342.30078 494.08203 C 342.33203 494.39452 342.34766 494.72265 342.34766 495.06641 C 342.34766 496.5664 342.2539 498.08202 342.06641 499.61328 C 341.91016 501.14452 341.67578 502.6289 341.36328 504.06641 C 341.08203 505.50391 340.73828 506.8633 340.33203 508.14453 C 339.92578 509.39455 339.48828 510.50391 339.01953 511.47266 C 340.83203 510.78516 342.45703 510.09768 343.89453 509.41016 C 345.36328 508.72266 346.61328 508.11328 347.64453 507.58203 C 348.86328 506.95705 349.92578 506.34767 350.83203 505.75391 C 350.83203 505.44141 350.84766 505.03516 350.87891 504.53516 C 350.91015 504.00391 350.92578 503.3789 350.92578 502.66016 C 350.92578 502.60623 350.92204 502.55385 350.92188 502.5 C 351.42677 503.34028 352.04016 504.14468 352.77539 504.9082 C 353.58789 505.7207 354.49414 506.40821 355.49414 506.9707 C 356.49414 507.5332 357.46289 507.81445 358.40039 507.81445 C 359.52539 507.81445 360.71289 507.62696 361.96289 507.25195 C 363.21289 506.87695 364.46289 506.3457 365.71289 505.6582 C 366.99414 504.97071 368.24414 504.1582 369.46289 503.2207 C 370.68164 502.2832 371.82226 501.25194 372.88477 500.12695 C 374.25977 500.12695 375.60351 500.01754 376.91602 499.79883 C 378.22851 499.54882 379.50975 499.1582 380.75977 498.62695 C 381.21271 498.43914 381.66228 498.21903 382.11133 497.98438 C 381.74904 498.94508 381.49436 499.79222 381.36914 500.50195 C 381.18168 501.56448 381.08789 502.18949 381.08789 502.37695 C 381.08789 503.03321 381.27539 503.68945 381.65039 504.3457 C 381.99415 505.00196 382.41603 505.5801 382.91602 506.08008 C 383.41602 506.61133 383.93164 507.03319 384.46289 507.3457 C 384.9629 507.65819 385.36915 507.81445 385.68164 507.81445 L 385.96289 507.81445 C 386.05662 507.81445 386.18167 507.78319 386.33789 507.7207 C 387.65039 507.28319 389.07225 506.62694 390.60352 505.75195 C 392.166 504.90819 393.71288 503.95508 395.24414 502.89258 C 396.77538 501.8301 398.2285 500.70508 399.60352 499.51758 C 401.00975 498.33008 402.22851 497.18947 403.25977 496.0957 C 402.88474 497.31447 402.60348 498.34571 402.41602 499.18945 C 402.22855 500.00195 402.1035 500.70506 402.04102 501.29883 C 401.97853 501.86132 401.94727 502.33007 401.94727 502.70508 C 401.97851 503.04886 401.99414 503.34575 401.99414 503.5957 C 401.99414 504.25196 402.18164 504.8457 402.55664 505.37695 C 402.93162 505.9082 403.40037 506.36132 403.96289 506.73633 C 404.52539 507.1426 405.13476 507.45512 405.79102 507.67383 C 406.47851 507.89254 407.10352 508.00195 407.66602 508.00195 C 408.47851 508.00195 409.43165 507.73633 410.52539 507.20508 C 411.61916 506.70507 412.77539 506.04883 413.99414 505.23633 C 415.21289 504.42383 416.46291 503.50196 417.74414 502.4707 C 418.91391 501.50066 420.03338 500.53059 421.125 499.56055 C 421.12453 499.62439 421.11914 499.68809 421.11914 499.75195 C 421.11914 500.47069 421.38477 501.29883 421.91602 502.23633 C 422.44727 503.17383 423.11914 504.06444 423.93164 504.9082 C 424.74416 505.7207 425.6504 506.40821 426.65039 506.9707 C 427.13175 507.24146 427.60539 507.44356 428.07227 507.58398 L 426.96094 512.04883 L 418.27148 510.49414 L 424.73633 516.73633 L 419.04688 523.48438 L 427.68555 521.00391 L 429.72266 526.64648 C 429.08305 527.08454 428.45786 527.52672 427.80273 527.96094 C 419.90209 522.46154 408.15443 521.7715 394.14648 523.90625 C 377.8769 519.84443 365.05864 520.96023 356.43359 528.36523 C 348.18844 523.969 339.94438 526.03959 331.69922 527.55469 L 318.36719 529.65234 C 316.63914 528.28785 314.87945 526.86224 313.10742 525.38477 C 314.09703 524.77237 315.10907 524.07335 316.14453 523.28516 C 318.23828 521.72265 320.39453 519.84765 322.61328 517.66016 C 324.86328 515.47264 327.09765 513.08202 329.31641 510.48828 C 331.5664 507.86327 333.78516 505.08203 335.97266 502.14453 C 338.16016 499.20703 340.25391 496.1914 342.25391 493.09766 z M 282.60352 504.45117 A 6.2713522 6.2713522 0 0 1 288.875 510.72266 A 6.2713522 6.2713522 0 0 1 282.60352 516.99414 A 6.2713522 6.2713522 0 0 1 276.33203 510.72266 A 6.2713522 6.2713522 0 0 1 282.60352 504.45117 z M 460.16016 504.45117 A 6.2713521 6.2713521 0 0 1 466.43164 510.72266 A 6.2713521 6.2713521 0 0 1 460.16016 516.99414 A 6.2713521 6.2713521 0 0 1 453.88867 510.72266 A 6.2713521 6.2713521 0 0 1 460.16016 504.45117 z M 429.44141 508.52539 L 431.24023 513.50586 L 436.42383 512.01758 L 433.00977 516.06641 L 436.88867 519.81055 L 431.67578 518.87891 L 430.37305 524.10938 L 428.57422 519.12891 L 423.39258 520.61719 L 426.80664 516.56836 L 422.92578 512.82422 L 428.13867 513.75586 L 429.44141 508.52539 z M 432.85547 520.58594 L 436.99805 521.32617 C 435.2879 522.66536 433.52605 523.99205 431.68164 525.29883 L 432.85547 520.58594 z M 393.6582 527.94336 L 396.1543 532.125 L 401.01367 532.43945 L 397.80859 536.10352 L 399.01172 540.82227 L 394.53516 538.90625 L 390.41797 541.50977 L 390.85742 536.66016 L 387.11133 533.54883 L 391.85742 532.4668 L 393.6582 527.94336 z M 361.83594 531.35742 L 363.51367 535.92969 L 368.23047 537.14062 L 364.40039 540.14648 L 364.70703 545.00586 L 360.66211 542.29297 L 356.13672 544.08594 L 357.4668 539.40234 L 354.36328 535.65234 L 359.22852 535.46875 L 361.83594 531.35742 z "
       transform="scale(0.26458333)" />
    <g
       aria-label="afi"
       id="text856"
       style="font-size:25.4px;line-height:1.25;font-family:Yesteryear;-inkscape-font-specification:Yesteryear;display:inline;fill:#a93333;fill-opacity:1;stroke-width:0.264583" />
    <g
       aria-label="&amp;"
       id="text860"
       style="font-size:19.7556px;line-height:1.25;font-family:Yesteryear;-inkscape-font-specification:Yesteryear;display:inline;fill:#a93333;fill-opacity:1;stroke-width:0.264583" />
    <g
       aria-label="oao"
       id="text864"
       style="font-size:25.4px;line-height:1.25;font-family:Yesteryear;-inkscape-font-specification:Yesteryear;display:inline;fill:#a93333;fill-opacity:1;stroke-width:0.264583" />
    <g
       aria-label="J"
       id="text868"
       style="font-size:25.4px;line-height:1.25;font-family:Yesteryear;-inkscape-font-specification:Yesteryear;display:inline;fill:#a93333;fill-opacity:1;stroke-width:0.264583" />
    <g
       aria-label="C"
       id="text872"
       style="font-size:25.4px;line-height:1.25;font-family:Yesteryear;-inkscape-font-specification:Yesteryear;display:inline;fill:none;fill-opacity:1;stroke-width:0.264583;stroke:#000000;stroke-opacity:1" />
    <g
       aria-label="~"
       transform="rotate(-0.26099155)"
       id="text876"
       style="font-size:31.9301px;line-height:1.25;font-family:Yesteryear;-inkscape-font-specification:Yesteryear;display:inline;fill:#a93333;fill-opacity:1;stroke-width:0.292043" />
  </g>
</svg>
