<?xml version="1.0" encoding="UTF-8" standalone="no"?>
<svg
   xmlns:dc="http://purl.org/dc/elements/1.1/"
   xmlns:cc="http://creativecommons.org/ns#"
   xmlns:rdf="http://www.w3.org/1999/02/22-rdf-syntax-ns#"
   xmlns:svg="http://www.w3.org/2000/svg"
   xmlns="http://www.w3.org/2000/svg"
   xmlns:sodipodi="http://sodipodi.sourceforge.net/DTD/sodipodi-0.dtd"
   xmlns:inkscape="http://www.inkscape.org/namespaces/inkscape"
   width="66.184448mm"
   height="82.682526mm"
   viewBox="0 0 66.184448 82.682525"
   version="1.1"
   id="svg8"
   inkscape:version="0.92.5 (2060ec1f9f, 2020-04-08)"
   sodipodi:docname="sofia&amp;ruben-flat.svg">
  <defs
     id="defs2" />
  <sodipodi:namedview
     id="base"
     pagecolor="#ffffff"
     bordercolor="#666666"
     borderopacity="1.0"
     inkscape:pageopacity="0.0"
     inkscape:pageshadow="2"
     inkscape:zoom="1.7044826"
     inkscape:cx="-101.34347"
     inkscape:cy="148.32515"
     inkscape:document-units="mm"
     inkscape:current-layer="layer7"
     inkscape:document-rotation="0"
     showgrid="false"
     inkscape:window-width="1920"
     inkscape:window-height="1017"
     inkscape:window-x="-8"
     inkscape:window-y="-8"
     inkscape:window-maximized="1"
     showguides="false"
     fit-margin-top="1"
     fit-margin-left="1"
     fit-margin-right="1"
     fit-margin-bottom="1" />
  <metadata
     id="metadata5">
    <rdf:RDF>
      <cc:Work
         rdf:about="">
        <dc:format>image/svg+xml</dc:format>
        <dc:type
           rdf:resource="http://purl.org/dc/dcmitype/StillImage" />
        <dc:title></dc:title>
      </cc:Work>
    </rdf:RDF>
  </metadata>
  <g
     inkscape:groupmode="layer"
     id="layer2"
     inkscape:label="Fundo"
     style="display:none"
     sodipodi:insensitive="true"
     transform="translate(-64.999456,-77.264496)">
    <rect
       style="fill:#000000;fill-opacity:1;stroke:none;stroke-width:0.26458299"
       id="rect1040"
       width="117.16964"
       height="109.05789"
       x="41.76046"
       y="66.396126" />
  </g>
  <g
     inkscape:groupmode="layer"
     id="layer3"
     inkscape:label="Moldura - fundo"
     style="display:none"
     sodipodi:insensitive="true"
     transform="translate(-64.999456,-77.264496)">
    <path
       id="path1043"
       style="fill:#58a758;fill-opacity:1;fill-rule:evenodd;stroke:none;stroke-width:0.99999899"
       d="m 332.32422,296.06055 c -4.62785,0.0594 -8.25841,2.11148 -11.09375,5.75586 -6.01532,13.65293 6.94577,23.49023 26.88086,27.47851 -46.29533,-0.29868 -60.03516,20.75781 -60.03516,20.75781 l 8.96094,0.44727 c 0,0 -0.29914,4.18279 1.04492,10.45508 23.89436,-28.22522 59.58594,-24.04492 59.58594,-24.04492 l -0.89453,2.6875 -20.60938,9.11132 0.24805,0.0215 c -8.38495,3.75367 -14.41774,8.85965 -16.68945,14.73828 -42.70463,16.52497 -70.01926,52.17036 -70.01954,91.375 2.2e-4,39.8618 28.22713,75.97656 72.00391,92.125 19.06069,10.90203 33.25127,27.33453 40.14258,46.48437 1.31827,3.87708 4.62506,7.03553 8.85351,7.03516 3.86588,-6.4e-4 7.30818,-2.447 8.58008,-6.09766 l 0.0156,-0.002 c 6.75828,-19.54098 21.09463,-36.33728 40.47656,-47.42187 43.77524,-16.14864 72.00115,-52.26234 72.00195,-92.12305 0,-38.73691 -26.67366,-74.04439 -68.61328,-90.82227 -2.02888,-5.91569 -7.85983,-11.08818 -16.09179,-14.92773 l -13.41211,-9.3457 1.04492,-1.79297 c 19.51139,6.1075 39.8223,3.90253 57.49609,29.12109 l 2.08985,-11.34961 7.76562,1.64258 c -2.32086,-15.3148 -32.124,-22.43426 -60.78125,-27.77539 13.06783,-2.43753 32.79479,-4.90899 30.76367,-19.56445 -2.03112,-14.65546 -11.981,-16.70807 -45.54687,5.22656 -6.02956,-6.53994 -13.38636,-6.44882 -21.80469,-1.04492 -14.16999,-12.81486 -24.6502,-18.24933 -32.36328,-18.15039 z m 3.84961,11.46289 c 4.90764,0.21041 15.20596,10.2869 19.70312,12.21289 -7.92678,-2.32805 -24.47101,-1.33294 -21.80468,-11.20117 0.46804,-0.75216 1.19274,-1.05069 2.10156,-1.01172 z m 81.14258,2.30273 c 0.62843,0.025 1.12219,0.27312 1.44726,0.80078 4.45119,8.97579 -13.4524,8.66143 -21.80273,11.20117 5.01503,-1.47028 15.9564,-12.17673 20.35547,-12.00195 z m -41.48243,10.65625 a 7.1683072,6.7202884 0 0 1 0.0547,0 7.1683072,6.7202884 0 0 1 7.16797,6.7207 7.1683072,6.7202884 0 0 1 -7.16797,6.72071 7.1683072,6.7202884 0 0 1 -7.16797,-6.72071 7.1683072,6.7202884 0 0 1 7.11328,-6.7207 z"
       transform="scale(0.26458333)"
       inkscape:connector-curvature="0" />
  </g>
  <g
     inkscape:groupmode="layer"
     id="layer7"
     inkscape:label="Flat"
     style="display:inline"
     transform="translate(-64.999456,-77.264496)">
    <g
       id="text1062"
       style="font-size:16.47459984px;line-height:1.25;font-family:Yesteryear;-inkscape-font-specification:Yesteryear;display:inline;fill:none;stroke:#000000;stroke-width:0.10886338;stroke-miterlimit:4;stroke-dasharray:none;stroke-opacity:1" />
    <path
       id="path68"
       style="font-size:12.73460007px;line-height:1.25;font-family:Yesteryear;-inkscape-font-specification:Yesteryear;fill:none;fill-opacity:1;stroke:#000000;stroke-width:0.51270801;stroke-miterlimit:4;stroke-dasharray:none;stroke-opacity:1"
       d="m 332.32422,296.06055 c -4.62785,0.0594 -8.25841,2.11148 -11.09375,5.75586 -6.01532,13.65293 6.94577,23.49023 26.88086,27.47851 -46.29533,-0.29868 -60.03516,20.75781 -60.03516,20.75781 l 8.96094,0.44727 c 0,0 -0.29914,4.18279 1.04492,10.45508 23.89436,-28.22522 59.58594,-24.04492 59.58594,-24.04492 l -0.89453,2.6875 -20.60938,9.11132 0.24805,0.0215 c -8.38495,3.75367 -14.41774,8.85965 -16.68945,14.73828 -42.70463,16.52497 -70.01926,52.17036 -70.01954,91.375 2.2e-4,39.8618 28.22713,75.97656 72.00391,92.125 19.06069,10.90203 33.25127,27.33455 40.14258,46.48437 1.31827,3.87708 4.62508,7.03553 8.85351,7.03516 3.86588,-6.4e-4 7.30818,-2.447 8.58008,-6.09766 l 0.0156,-0.002 c 6.75828,-19.54098 21.09463,-36.33728 40.47656,-47.42187 43.77524,-16.14864 72.00115,-52.26234 72.00195,-92.12305 0,-38.73691 -26.67366,-74.04439 -68.61328,-90.82227 -2.02888,-5.91569 -7.85983,-11.08818 -16.09179,-14.92773 l -13.41211,-9.3457 1.04492,-1.79297 c 19.51139,6.1075 39.8223,3.90253 57.49609,29.12109 l 2.08985,-11.34961 7.76562,1.64258 c -2.32086,-15.3148 -32.124,-22.43426 -60.78125,-27.77539 13.06783,-2.43753 32.79479,-4.90899 30.76367,-19.56445 -2.03112,-14.65546 -11.981,-16.70807 -45.54687,5.22656 -6.02956,-6.53994 -13.38636,-6.44882 -21.80469,-1.04492 -14.16999,-12.81486 -24.6502,-18.24933 -32.36328,-18.15039 z m 3.84961,11.46289 c 4.90764,0.21041 15.20596,10.2869 19.70312,12.21289 -7.92678,-2.32805 -24.47101,-1.33294 -21.80468,-11.20117 0.46804,-0.75216 1.19274,-1.05069 2.10156,-1.01172 z m 81.14258,2.30273 c 0.62843,0.025 1.12219,0.27312 1.44726,0.80078 4.45119,8.97579 -13.4524,8.66145 -21.80273,11.20117 5.01503,-1.47026 15.9564,-12.17673 20.35547,-12.00195 z m -41.48243,10.65625 a 7.168307,6.7202882 0 0 1 0.0547,0 7.168307,6.7202882 0 0 1 7.16797,6.7207 7.168307,6.7202882 0 0 1 -7.16797,6.72071 7.168307,6.7202882 0 0 1 -7.16797,-6.72071 7.168307,6.7202882 0 0 1 7.11328,-6.7207 z m -1.96289,38.38477 c 7.62714,0.62047 14.90383,1.99017 21.80469,3.98828 l -3.92969,4.51367 -8.01367,-6.08008 3.32813,9.6875 -9.27539,3.89844 10.05468,1.96094 -1.25976,9.98242 6.72656,-7.72656 5.53516,4.20117 c -1.53258,2.10183 -3.05253,4.39613 -4.5586,6.90625 -3.65624,6.09376 -7.26561,13.31251 -10.82812,21.65625 -1.62004,3.78009 -3.2512,7.79129 -4.89063,11.97851 -1.31213,1.24346 -2.58871,2.19045 -3.82812,2.83399 -1.59375,0.81252 -3.32813,1.28127 -5.20313,1.40625 0.8125,-1.31251 1.45313,-2.64063 1.92188,-3.98438 0.5,-1.34374 0.75,-2.6875 0.75,-4.03125 -0.0937,-0.21873 -0.34375,-0.60935 -0.75,-1.17187 -0.375,-0.5625 -0.82813,-1.17187 -1.35938,-1.82813 -0.5,-0.68749 -1.01562,-1.34374 -1.54687,-1.96875 -0.5,-0.65625 -0.90625,-1.17189 -1.21875,-1.54687 l -0.28125,0.28125 c -0.75,0.71874 -1.4375,1.49998 -2.0625,2.34375 -0.625,0.8125 -1.15625,1.57813 -1.59375,2.29687 -0.53125,0.8125 -0.98438,1.64061 -1.35938,2.48438 -0.5625,1.09374 -0.92188,2.07814 -1.07812,2.95312 -0.125,0.84377 -0.1875,1.57815 -0.1875,2.20313 v 0.75 c 0.0312,0.25 0.0781,0.54686 0.14062,0.89062 -1.28125,1.75 -2.51562,3.20315 -3.70312,4.35938 -1.1875,1.12501 -2.14063,1.6875 -2.85938,1.6875 -0.6875,0 -1.03125,-0.46875 -1.03125,-1.40625 0,-1.12502 0.29688,-2.70313 0.89063,-4.73438 0.59375,-2.06248 1.73437,-4.35937 3.42187,-6.89062 1.125,-1.71875 2.15625,-3.09374 3.09375,-4.125 0.9375,-1.0625 1.75,-1.87501 2.4375,-2.4375 0.6875,-0.56255 1.23438,-0.95317 1.64063,-1.17188 0.40626,-0.25002 0.64063,-0.45315 0.70312,-0.60937 0,-0.125 -0.14062,-0.375 -0.42187,-0.75 -0.28125,-0.40625 -0.64063,-0.8125 -1.07813,-1.21875 -0.40625,-0.40625 -0.85937,-0.76563 -1.35937,-1.07813 -0.46875,-0.34376 -0.92188,-0.51562 -1.35938,-0.51562 -0.15624,0 -0.35937,0.0156 -0.60937,0.0469 -0.21874,0.0312 -0.37499,0.0781 -0.46875,0.14063 -2.90625,0.8125 -5.42188,1.99999 -7.54688,3.5625 -2.09375,1.56251 -3.8125,3.37501 -5.15625,5.4375 -1.375,2.03124 -2.375,4.21874 -3,6.5625 -0.65625,2.34376 -0.98437,4.70314 -0.98437,7.07812 0,0.71877 0.26562,1.54688 0.79687,2.48438 0.19337,0.34123 0.41195,0.67314 0.64258,1.00195 -0.26595,-0.0592 -0.52574,-0.0957 -0.77344,-0.0957 -2.55556,0 -5.19379,0.51323 -7.91601,1.54101 -2.69445,1.00002 -5.44444,2.40343 -8.25,4.20899 0.13888,-0.55557 0.2487,-1.07076 0.33203,-1.54297 0.0833,-0.50001 0.15342,-0.98482 0.20898,-1.45703 -0.36111,-0.58333 -0.84787,-1.24999 -1.45898,-2 -0.007,-0.009 -0.0161,-0.0184 -0.0234,-0.0273 2.05843,-1.56507 3.90786,-3.21325 5.51953,-4.95704 1.9375,-2.09375 3.46875,-4.25001 4.59375,-6.46875 1.15625,-2.25 1.73438,-4.48436 1.73438,-6.70312 0,-0.78125 -0.26563,-1.81252 -0.79688,-3.09375 -0.53125,-1.28126 -1.20312,-2.53125 -2.01562,-3.75 -0.8125,-1.21875 -1.6875,-2.26562 -2.625,-3.14063 -0.9375,-0.87498 -1.8125,-1.3125 -2.625,-1.3125 -1.53125,0 -3.10938,0.0625 -4.73438,0.1875 -1.625,0.12503 -3.32812,0.26566 -5.10937,0.42188 -1.78125,0.15627 -3.65625,0.31253 -5.625,0.46875 -1.96875,0.12498 -4.04688,0.20313 -6.23438,0.23437 1,-3.49999 2.4375,-6.79688 4.3125,-9.89062 1.90625,-3.09375 4.0625,-5.93749 6.46875,-8.53125 2.4375,-2.59374 5.03125,-4.92186 7.78125,-6.98438 2.78125,-2.06248 5.53125,-3.79687 8.25,-5.20312 2.71875,-1.4375 5.32813,-2.53125 7.82813,-3.28125 2.5,-0.75 4.70312,-1.125 6.60937,-1.125 0.53126,0 0.89064,0.0781 1.07813,0.23437 0.21874,0.125 0.37499,0.35938 0.46875,0.70313 0.125,0.6875 -0.0469,1.60937 -0.51563,2.76562 -0.46875,1.15624 -1.125,2.45312 -1.96875,3.89063 -0.8125,1.40626 -1.78125,2.87501 -2.90625,4.40625 -1.125,1.53126 -2.28125,3.01562 -3.46875,4.45312 -1.15625,1.43748 -2.3125,2.75 -3.46875,3.9375 -1.125,1.15626 -2.14062,2.09376 -3.04687,2.8125 0.59375,0.62501 1.23437,1.26563 1.92187,1.92188 l 2.0625,1.96875 c 0.6875,0.62498 1.32813,1.21873 1.92188,1.78125 0.625,0.56249 1.15625,1.04687 1.59375,1.45312 1.1875,-0.75001 2.39062,-1.75001 3.60937,-3 1.25,-1.28126 2.45313,-2.68751 3.60938,-4.21875 1.15625,-1.5625 2.25,-3.20312 3.28125,-4.92187 1.03125,-1.71875 1.92187,-3.40626 2.67187,-5.0625 0.78125,-1.65627 1.39063,-3.21875 1.82813,-4.6875 0.4375,-1.49999 0.65625,-2.78126 0.65625,-3.84375 0,-0.125 -0.0469,-0.32813 -0.14063,-0.60938 -0.0625,-0.3125 -0.14061,-0.60937 -0.23437,-0.89062 -0.0938,-0.31249 -0.18749,-0.57812 -0.28125,-0.79688 -0.0938,-0.25001 -0.15626,-0.40626 -0.1875,-0.46875 -0.28125,-0.34375 -0.625,-0.82812 -1.03125,-1.45312 -0.40625,-0.65625 -0.89063,-1.35938 -1.45313,-2.10938 -0.5625,-0.75 -1.20312,-1.51562 -1.92187,-2.29687 -0.71875,-0.8125 -1.53125,-1.54688 -2.4375,-2.20313 -0.90625,-0.65625 -1.92188,-1.18749 -3.04688,-1.59375 -0.47314,-0.17573 -0.97422,-0.30653 -1.49414,-0.40625 8.11087,-2.54633 16.89094,-4.45188 26.36328,-5.5664 z m 24.10743,4.6875 c 5.42372,1.70295 10.60348,3.80195 15.51953,6.24609 -2.74952,1.30045 -5.42094,3.19949 -8.01172,5.72656 -1.8141,1.75462 -3.60995,3.79043 -5.38867,6.08985 l -2.10547,-6.13086 9.27539,-3.90039 -10.05469,-1.96094 z m -2.47852,2.88281 -0.63086,4.99219 5.02734,0.97851 -4.63867,1.95118 1.66602,4.84374 -4.00781,-3.04101 -3.36329,3.86328 0.63086,-4.99219 -5.02734,-0.98047 4.63672,-1.94921 -1.66211,-4.84375 4.00586,3.04101 z m 23.11133,6.60547 c 0.31249,0 0.46875,0.21875 0.46875,0.65625 0,1 -0.28126,2.29687 -0.84375,3.89062 -0.5625,1.56251 -1.35937,3.31252 -2.39063,5.25 -1.03125,1.93752 -2.28125,4.01564 -3.75,6.23438 -1.4375,2.18751 -3.03125,4.42188 -4.78125,6.70312 -1.74999,2.28125 -3.64063,4.54688 -5.67187,6.79688 -2,2.25 -4.09374,4.375 -6.28125,6.375 0.78125,-1.71875 1.46873,-3.20311 2.0625,-4.45313 0.59374,-1.24999 1.10938,-2.28125 1.54687,-3.09375 0.50001,-0.96874 0.92187,-1.78124 1.26563,-2.4375 2.68749,-4.71876 5.04688,-8.71876 7.07812,-12 2.03125,-3.28126 3.78125,-5.95313 5.25,-8.01562 1.50002,-2.06251 2.73438,-3.5625 3.70313,-4.5 0.96874,-0.9375 1.74998,-1.40625 2.34375,-1.40625 z m 5.74414,2.98633 c 18.97976,12.41686 33.01778,30.2621 40.68555,49.67968 -0.39761,0.3501 -0.7489,0.6701 -1.19532,1.05274 -0.87498,0.74998 -1.79688,1.51562 -2.76562,2.29687 -0.9375,0.78126 -1.82811,1.48437 -2.67188,2.10938 -0.84374,0.62498 -1.59374,1.14062 -2.25,1.54687 -0.65625,0.40628 -1.125,0.60938 -1.40625,0.60938 -0.18746,0 -0.28125,-0.0938 -0.28125,-0.28125 0,-0.34374 0.0156,-0.82812 0.0469,-1.45313 0.0625,-0.65625 0.18753,-1.43749 0.375,-2.34375 0.21873,-0.90625 0.51562,-1.95312 0.89062,-3.14062 0.40625,-1.21875 0.96874,-2.5625 1.6875,-4.03125 0,-0.34374 -0.14062,-0.82812 -0.42187,-1.45313 -0.25001,-0.65625 -0.5625,-1.32813 -0.9375,-2.01562 -0.37501,-0.6875 -0.78126,-1.31251 -1.21875,-1.875 -0.43752,-0.59382 -0.82814,-1.01567 -1.17188,-1.26563 -0.0625,-0.0312 -0.10938,-0.0312 -0.14062,0 -0.0312,0.0312 -0.0469,0.0625 -0.0469,0.0937 -0.59376,0.99999 -1.31251,1.98439 -2.15625,2.95313 -0.84374,0.96877 -1.65624,1.82814 -2.4375,2.57812 -0.90625,0.90626 -1.84375,1.75 -2.8125,2.53125 -1.09374,0.90626 -2.15624,1.78126 -3.1875,2.625 -1.00001,0.8125 -1.92188,1.53125 -2.76562,2.15625 -0.84374,0.59374 -1.60938,1.07812 -2.29688,1.45313 -0.65625,0.34376 -1.2031,0.51562 -1.64062,0.51562 -0.43749,0 -0.65625,-0.26562 -0.65625,-0.79687 0,-0.71877 0.43749,-1.89063 1.3125,-3.51563 0.87498,-1.65624 2.45313,-3.60937 4.73437,-5.85937 0.96877,-0.9375 2.01564,-1.89063 3.14063,-2.85938 0.96874,-0.81249 2.07811,-1.67187 3.32812,-2.57812 1.24999,-0.9375 2.57812,-1.78124 3.98438,-2.53125 l 0.0937,-0.0937 c 0.0312,-0.0312 0.0312,-0.0781 0,-0.14063 -0.125,-0.18749 -0.39063,-0.42185 -0.79688,-0.70312 -0.375,-0.31249 -0.82812,-0.60938 -1.35937,-0.89063 -0.49998,-0.31254 -1.01563,-0.59379 -1.54688,-0.84375 -0.5,-0.28127 -0.93749,-0.48439 -1.3125,-0.60937 -0.0937,-0.0625 -0.17188,-0.0781 -0.23437,-0.0469 -0.0312,0.0312 -0.0781,0.0469 -0.14063,0.0469 -1.68748,0.49998 -3.29686,1.17186 -4.82812,2.01562 -1.53124,0.84375 -2.89062,1.67188 -4.07813,2.48438 -1.40626,0.96874 -2.71875,1.99998 -3.9375,3.09375 -2.375,2.15624 -4.25,4.26564 -5.625,6.32812 -0.36842,0.54428 -0.70827,1.0725 -1.02734,1.58985 -0.13148,0.11377 -0.18645,0.15856 -0.33203,0.28515 -0.71874,0.62499 -1.53125,1.32813 -2.4375,2.10938 -0.87499,0.75001 -1.79686,1.51562 -2.76563,2.29687 -0.96874,0.78126 -1.90624,1.50003 -2.8125,2.15625 -0.87498,0.65626 -1.65625,1.1875 -2.34375,1.59375 -0.68752,0.40625 -1.20314,0.60938 -1.54687,0.60938 -0.18747,0 -0.28125,-0.0938 -0.28125,-0.28125 0,-0.34376 0.1406,-0.95314 0.42187,-1.82813 0.31249,-0.90625 0.68751,-1.93749 1.125,-3.09375 0.46877,-1.15623 0.95315,-2.39062 1.45313,-3.70312 0.53125,-1.31251 1.01561,-2.5625 1.45312,-3.75 0.46874,-1.21875 0.84376,-2.31251 1.125,-3.28125 0.31252,-0.96874 0.46875,-1.70312 0.46875,-2.20313 0,-0.46876 -0.32812,-1.01564 -0.98437,-1.64062 -0.65625,-0.65625 -1.40623,-1.26561 -2.25,-1.82813 -0.8125,-0.59373 -1.6094,-1.09375 -2.39063,-1.5 -0.75006,-0.40625 -1.21878,-0.60937 -1.40625,-0.60937 -0.12497,0 -0.37499,0.37499 -0.75,1.125 -0.34376,0.74998 -0.76562,1.74998 -1.26562,3 -0.49998,1.21875 -1.06249,2.625 -1.6875,4.21875 -0.59374,1.59375 -1.18749,3.23439 -1.78125,4.92187 -2.25001,2.06252 -4.375,3.87502 -6.375,5.4375 -1.96876,1.53127 -3.92189,2.875 -5.85938,4.03125 -1.90624,1.15624 -3.84374,2.14063 -5.8125,2.95313 -1.93751,0.8125 -4.01564,1.49998 -6.23437,2.0625 1.37499,-3.71875 2.65625,-7.14061 3.84375,-10.26563 1.1875,-3.15623 2.3125,-6.03123 3.375,-8.625 2.9375,-2.21873 5.79687,-4.57811 8.57812,-7.07812 2.78123,-2.53125 5.39061,-5.10937 7.82813,-7.73438 2.46874,-2.65625 4.73436,-5.31249 6.79687,-7.96875 2.06249,-2.68749 3.82813,-5.29687 5.29688,-7.82812 1.49999,-2.5625 2.65623,-5.00001 3.46875,-7.3125 0.6018,-1.67169 0.97782,-3.23616 1.15039,-4.70117 z m -116.3457,9.33593 c -0.57813,0.73047 -1.13282,1.4668 -1.66407,2.20899 -2.09375,2.96874 -3.73437,5.92187 -4.92187,8.85937 -1.1875,2.90626 -1.78125,5.54687 -1.78125,7.92188 0,0.78125 0.1875,1.59376 0.5625,2.4375 0.375,0.84374 0.875,1.68748 1.5,2.53125 0.625,0.8125 1.32812,1.625 2.10937,2.4375 0.78125,0.78125 1.59375,1.53126 2.4375,2.25 0.375,0.34378 0.85938,0.60941 1.45313,0.79687 0.59375,0.18752 1.21875,0.32815 1.875,0.42188 0.65625,0.0625 1.3125,0.10938 1.96875,0.14062 h 1.82812 c 1.75,0 3.34375,-0.0625 4.78125,-0.1875 1.4375,-0.12502 2.84375,-0.26565 4.21875,-0.42187 1.37501,-0.18754 2.79688,-0.34377 4.26563,-0.46875 1.46875,-0.15622 3.10937,-0.25001 4.92187,-0.28125 -0.8125,2.90625 -2.125,5.46876 -3.9375,7.6875 -1.8125,2.18751 -3.90625,4.07812 -6.28125,5.67187 -2.375,1.59375 -4.9375,2.92188 -7.6875,3.98438 -2.71875,1.03123 -5.42187,1.8281 -8.10937,2.39062 -2.6875,0.56252 -5.25,0.90628 -7.6875,1.03125 -2.40625,0.12498 -4.46875,0.0625 -6.1875,-0.1875 0.15625,0.3125 0.45312,0.76561 0.89062,1.35938 0.4375,0.59374 0.95313,1.24998 1.54688,1.96875 0.5625,0.71874 1.17187,1.46875 1.82812,2.25 0.68139,0.7743 1.3312,1.50139 1.95117,2.18359 -0.27824,-0.11815 -0.55485,-0.19922 -0.82617,-0.19922 -0.90871,0 -1.80035,0.20397 -2.67773,0.61133 -0.86172,0.39169 -1.70091,0.95503 -2.51563,1.69141 -0.79904,0.73638 -1.55859,1.62219 -2.27929,2.65625 -0.72071,1.03405 -1.37925,2.18601 -1.97461,3.45508 -0.59537,1.25341 -1.12763,2.60737 -1.59766,4.06445 -0.45436,1.45708 -0.8215,2.97034 -1.10351,4.53711 -1.44142,1.14373 -2.84396,2.31899 -4.20704,3.52539 -1.34741,1.19073 -2.54597,2.42815 -3.5957,3.71289 -1.04972,1.26906 -1.88892,2.59196 -2.51562,3.9707 -0.33951,0.72043 -0.58425,1.4594 -0.74414,2.21485 -2.43814,-8.37324 -3.29875,-17.33682 -1.89649,-26.86524 2.99283,-20.33638 14.77279,-43.08548 36.05274,-60.36133 z m 114.44531,6.00586 c -0.28125,0 -0.6875,0.35939 -1.21875,1.07813 -0.53125,0.71876 -1.04687,1.57814 -1.54688,2.57812 -0.5,0.96875 -0.93749,1.98438 -1.3125,3.04688 -0.37498,1.03126 -0.5625,1.875 -0.5625,2.53125 0,0.15624 0.26563,0.42187 0.79688,0.79687 0.53125,0.37501 1.15626,0.76563 1.875,1.17188 0.75001,0.375 1.51564,0.71876 2.29687,1.03125 0.81253,0.31252 1.50001,0.48438 2.0625,0.51562 0.18749,0 0.42188,-0.18749 0.70313,-0.5625 0.31251,-0.40625 0.64064,-0.90623 0.98437,-1.5 0.34376,-0.59373 0.68752,-1.23438 1.03125,-1.92187 0.37501,-0.71877 0.70313,-1.39064 0.98438,-2.01563 0.2813,-0.65625 0.51566,-1.21873 0.70312,-1.6875 0.21871,-0.50003 0.34376,-0.81252 0.375,-0.9375 0,-0.18749 -0.28123,-0.5 -0.84375,-0.9375 -0.53125,-0.46876 -1.17189,-0.93751 -1.92187,-1.40625 -0.75001,-0.46876 -1.53125,-0.87501 -2.34375,-1.21875 -0.8125,-0.375 -1.50001,-0.5625 -2.0625,-0.5625 z m 23.29687,36.65625 c -0.37503,1.21875 -0.65628,2.24999 -0.84375,3.09375 -0.18746,0.8125 -0.31251,1.51564 -0.375,2.10938 -0.0625,0.56249 -0.0937,1.03124 -0.0937,1.40625 0.0312,0.34381 0.0469,0.64067 0.0469,0.89062 0,0.65623 0.18749,1.25 0.5625,1.78125 0.37498,0.53125 0.84373,0.98437 1.40625,1.35938 0.56249,0.4063 1.17187,0.71879 1.82812,0.9375 0.1576,0.0501 0.30015,0.0746 0.45118,0.11328 l -0.45118,1.94922 -1.03906,-1.66797 -1.24023,1.00781 1.77539,2.84375 -0.50391,2.18164 -2.50977,-4.01953 -1.23632,1.00977 3.24218,5.1914 -0.45898,1.98243 a 5.5432917,5.5432917 0 0 0 -3.93555,1.20312 l -1.48828,-1.38867 -0.21289,-6.11719 -1.5918,-0.14453 0.16602,4.73438 -1.63672,-1.5293 -0.11914,-3.34766 -1.58789,-0.14453 0.0684,1.96484 -2.32422,-2.16992 -1.08008,1.16016 2.32422,2.16992 -1.96484,0.0664 0.25195,1.57617 3.34961,-0.11524 1.63867,1.52735 -4.73437,0.16406 0.25195,1.57617 6.11914,-0.21093 1.49024,1.38867 a 5.5432917,5.5432917 0 0 0 -0.92774,4.00781 l -1.94726,0.59375 -5.40626,-2.875 -0.91601,1.30664 4.18164,2.22266 -2.14258,0.65429 -2.96094,-1.57226 -0.91796,1.30468 1.73632,0.92188 -3.03906,0.92969 0.46094,1.51562 3.04101,-0.92773 -0.92578,1.73437 1.49219,0.56836 1.57617,-2.95703 2.14063,-0.6543 -2.22657,4.17969 1.49415,0.56836 2.875,-5.40234 1.94726,-0.59571 a 5.5432917,5.5432917 0 0 0 3.00781,2.80664 l -0.45703,1.98438 -5.1914,3.24219 0.66797,1.44922 4.01953,-2.50977 -0.50586,2.18164 -2.8418,1.77539 0.67187,1.45117 1.66602,-1.04492 -0.4043,1.74805 c -1.13579,-0.63025 -2.20706,-1.19681 -3.17187,-1.65625 -0.72222,1.61111 -1.38888,3.29102 -2,5.04101 -0.63889,1.72223 -1.22223,3.41732 -1.75,5.08399 -0.36611,1.15616 -0.69516,2.26614 -1.00781,3.35547 -1.0883,1.01327 -2.17924,2.02422 -3.28516,3.01953 -1.38888,1.24999 -2.83397,2.35978 -4.33398,3.33203 -1.5,0.97222 -3.06816,1.7639 -4.70704,2.375 -1.61111,0.61112 -3.33462,0.91797 -5.16796,0.91797 -1.02778,0 -1.73612,-0.15342 -2.125,-0.45899 -0.3611,-0.30556 -0.54102,-0.88889 -0.54102,-1.75 0,-0.63889 0.0416,-1.29232 0.125,-1.95898 2.44445,-1.08334 4.68122,-2.15146 6.70898,-3.20703 2.0278,-1.08334 3.7626,-2.14019 5.20704,-3.16797 1.44446,-1.02775 2.5562,-2.02775 3.33398,-3 0.80554,-0.99999 1.20898,-1.97156 1.20898,-2.91602 0,-0.58333 -0.22352,-1.26323 -0.66796,-2.04101 -0.41666,-0.80554 -0.97157,-1.57073 -1.66602,-2.29297 -0.69445,-0.72222 -1.47288,-1.33202 -2.33398,-1.83203 -0.83334,-0.49998 -1.67992,-0.75 -2.54102,-0.75 -1.19446,0 -2.49935,0.19314 -3.91602,0.58203 -1.41666,0.38889 -2.84853,0.97222 -4.29296,1.75 -1.41667,0.77778 -2.79166,1.7513 -4.125,2.91797 -1.30555,1.16666 -2.47222,2.51323 -3.5,4.04101 -1.02778,1.52779 -1.84591,3.24937 -2.45704,5.16602 -0.13739,0.40623 -0.25347,0.82579 -0.36132,1.25 -0.30915,0.17738 -0.6187,0.35396 -0.93164,0.5 -0.80557,0.36125 -1.6389,0.62642 -2.5,0.79297 -0.86113,0.13883 -1.76261,0.20703 -2.70704,0.20703 h -0.16796 c 0.80556,-1.1389 1.459,-2.27712 1.95898,-3.41602 0.52785,-1.13887 0.86117,-2.23544 1,-3.29101 -0.30556,-0.58333 -0.62566,-1.16667 -0.95898,-1.75 -0.30557,-0.58333 -0.63888,-1.1402 -1,-1.66797 -0.33333,-0.55557 -0.67992,-1.04038 -1.04102,-1.45703 -0.33335,-0.41673 -0.66667,-0.75005 -1,-1 -0.66666,0.63889 -1.33334,1.36045 -2,2.16601 -0.63889,0.80555 -1.2222,1.6673 -1.75,2.58399 -0.52777,0.91666 -0.95769,1.88823 -1.29102,2.91601 -0.33332,1.02778 -0.5,2.06946 -0.5,3.125 v 0.45899 c 0,0.1666 0.0133,0.34649 0.041,0.54101 -0.49998,0.72222 -1.02842,1.41733 -1.58398,2.08399 -0.55557,0.63889 -1.09723,1.20702 -1.625,1.70703 -0.52778,0.50001 -1.04101,0.90345 -1.54102,1.20898 -0.47221,0.2778 -0.88888,0.41602 -1.25,0.41602 -0.3611,0 -0.59787,-0.12505 -0.70898,-0.375 -0.11112,-0.27777 -0.16602,-0.80423 -0.16602,-1.58203 0,-0.49998 0.0549,-1.15342 0.16602,-1.95899 0.13886,-0.83333 0.32073,-1.79166 0.54296,-2.875 0.25001,-1.08331 0.54168,-2.26323 0.875,-3.54101 0.33336,-1.27778 0.70835,-2.6111 1.125,-4 2.33333,-2.05556 4.625,-4.11241 6.875,-6.16797 2.2778,-2.05556 4.45769,-4.11046 6.54102,-6.16602 2.08333,-2.08332 4.0284,-4.15342 5.83398,-6.20898 1.80556,-2.05556 3.40214,-4.08203 4.79102,-6.08203 1.41667,-2.02777 2.59656,-4.02777 3.54102,-6 0.97222,-2 1.62565,-3.97353 1.95898,-5.91797 -0.22221,-0.72224 -0.61045,-1.41537 -1.16602,-2.08203 -0.004,-0.005 -0.01,-0.009 -0.0137,-0.0137 0.56741,-0.32676 1.15371,-0.69168 1.75977,-1.09571 1.24999,-0.81249 2.51561,-1.73436 3.79687,-2.76562 1.04323,-0.8197 2.03573,-1.6393 3,-2.45899 -0.0531,0.21662 -0.10582,0.43363 -0.14062,0.63086 -0.18747,1.06253 -0.28125,1.68754 -0.28125,1.875 0,0.65626 0.18749,1.3125 0.5625,1.96875 0.34376,0.65626 0.76564,1.23437 1.26562,1.73438 0.50001,0.53125 1.01563,0.95313 1.54688,1.26562 0.5,0.31252 0.90626,0.46875 1.21875,0.46875 h 0.28125 c 0.0937,0 0.21878,-0.0313 0.375,-0.0937 1.3125,-0.43749 2.73436,-1.09374 4.26562,-1.96875 1.56249,-0.84374 3.10937,-1.79687 4.64063,-2.85937 1.53124,-1.0625 2.98436,-2.1875 4.35937,-3.375 1.40624,-1.1875 2.625,-2.32813 3.65625,-3.42188 z m 20.54493,1.0586 c 0.23753,0.67153 0.47689,1.34303 0.69921,2.01758 6.09198,18.48363 6.22566,36.36414 -0.42382,52.98828 -0.46354,0.40189 -0.90919,0.78808 -1.44727,1.25195 -0.77778,0.66668 -1.59786,1.34854 -2.45898,2.04297 -0.86111,0.69445 -1.69444,1.33268 -2.5,1.91601 -0.77778,0.58334 -1.47094,1.0549 -2.08204,1.41602 -0.61112,0.3611 -1.06946,0.54297 -1.375,0.54297 -0.1668,0 -0.25,-0.0835 -0.25,-0.25 0,-0.30556 0.0965,-0.79233 0.29102,-1.45899 0.19444,-0.66668 0.44444,-1.44511 0.75,-2.33398 0.30556,-0.88889 0.65213,-1.83202 1.04102,-2.83203 0.38888,-1.02778 0.77908,-2.04298 1.16796,-3.04297 0.38889,-1.02778 0.74871,-2.01258 1.08204,-2.95703 0.36109,-0.94445 0.65276,-1.76456 0.875,-2.45899 0.0557,-0.19444 0.0973,-0.34786 0.125,-0.45898 0.0277,-0.13883 0.043,-0.24863 0.043,-0.33203 0,-0.41666 -0.27841,-0.90342 -0.83398,-1.45899 -0.52777,-0.55554 -1.16601,-1.0972 -1.91602,-1.625 -0.72221,-0.52777 -1.44575,-0.97288 -2.16796,-1.33398 -0.72225,-0.36112 -1.26391,-0.54102 -1.625,-0.54102 -0.30557,0 -0.73545,0.13825 -1.29102,0.41602 -0.52777,0.25 -1.23611,0.73677 -2.125,1.45898 -0.8611,0.72225 -1.9312,1.72222 -3.20898,3 -1.24999,1.24999 -2.75001,2.875 -4.5,4.875 0.33332,-0.97222 0.66667,-1.91732 1,-2.83398 0.33332,-0.91669 0.66667,-1.81816 1,-2.70703 -1.01126,-0.89622 -2.10247,-1.69196 -3.26563,-2.39844 l 0.51172,-2.21094 1.03906,1.66993 1.24024,-1.00977 -1.77539,-2.8418 0.50586,-2.18164 2.50976,4.01758 1.23633,-1.00976 -3.24219,-5.19141 0.45703,-1.98242 a 5.5432917,5.5432917 0 0 0 3.93555,-1.20117 l 1.49023,1.38867 0.21094,6.11523 1.5918,0.14649 -0.16602,-4.73438 1.63672,1.52734 0.11914,3.34961 1.58985,0.14454 -0.0703,-1.96485 2.32422,2.16797 1.08008,-1.16016 -2.32422,-2.16796 1.96484,-0.0664 -0.25195,-1.57617 -3.34961,0.11328 -1.63867,-1.52735 4.73438,-0.16211 -0.25196,-1.57617 -6.11914,0.21094 -1.48828,-1.38867 a 5.5432917,5.5432917 0 0 0 0.92578,-4.00781 l 1.94727,-0.59571 5.40625,2.875 0.91797,-1.30468 -4.18164,-2.22461 2.14062,-0.6543 2.96094,1.57422 0.91797,-1.30664 -1.73633,-0.92188 3.04101,-0.92773 -0.46289,-1.51758 -3.04101,0.92969 0.92578,-1.73633 -1.49219,-0.56641 -1.57422,2.95703 -2.14258,0.6543 2.22657,-4.18164 -1.49414,-0.56641 -2.875,5.40235 -1.94727,0.59375 a 5.5432917,5.5432917 0 0 0 -3.00781,-2.80664 l 0.45898,-1.98242 5.18946,-3.24219 -0.66797,-1.44922 -4.01758,2.50976 0.50391,-2.18359 2.84179,-1.77344 -0.66992,-1.45117 -1.66797,1.04297 0.48633,-2.10351 c 0.77919,-0.0303 1.67777,-0.28618 2.70508,-0.78516 1.09377,-0.50001 2.25,-1.15625 3.46875,-1.96875 1.21874,-0.8125 2.46876,-1.73437 3.75,-2.76563 1.28126,-1.0625 2.51562,-2.125 3.70312,-3.1875 0.85142,-0.74225 1.59752,-1.4324 2.35743,-2.1289 z m -60.10743,0.39453 c -0.28129,0.96877 -0.53129,1.90627 -0.75,2.8125 -0.21878,0.87501 -0.40628,1.67188 -0.5625,2.39062 0,0.45421 0.16118,0.92 0.4668,1.39453 -1.47374,0.68752 -3.15085,1.74817 -5.05273,3.22461 -2.08333,1.61112 -4.40147,3.83268 -6.95704,6.66602 -2.52777,2.83334 -5.16795,6.49999 -7.91796,11 -2.08336,3.41667 -3.80491,6.76519 -5.16602,10.04297 -1.33332,3.27778 -2.38823,6.33268 -3.16602,9.16601 -0.74513,2.68781 -1.26836,5.09957 -1.58007,7.25196 -0.02,0.0167 -0.0246,0.0221 -0.0449,0.0391 -0.63889,0.55554 -1.36241,1.1673 -2.16796,1.83398 -0.80556,0.6389 -1.65213,1.30558 -2.54102,2 -0.88889,0.69445 -1.73546,1.31944 -2.54102,1.875 -0.80555,0.55557 -1.52908,1.01391 -2.16796,1.375 -0.61112,0.36113 -1.06945,0.54102 -1.375,0.54102 -0.16668,0 -0.25,-0.0835 -0.25,-0.25 0,-0.33333 0.0833,-0.85981 0.25,-1.58203 0.19444,-0.75001 0.4312,-1.59852 0.70898,-2.54297 0.30555,-0.97222 0.63889,-2.01389 1,-3.125 0.36111,-1.11111 0.72287,-2.20768 1.08398,-3.29102 0.38889,-1.1111 0.76389,-2.166 1.125,-3.16601 0.36112,-1.02778 0.67926,-1.91796 0.95704,-2.66797 0.0555,-0.13881 0.0972,-0.30548 0.125,-0.5 0.0278,-0.22214 0.043,-0.37363 0.043,-0.45703 -0.0555,-0.19445 -0.37565,-0.52776 -0.95898,-1 -0.58333,-0.50001 -1.25,-0.98677 -2,-1.45899 -0.29462,-0.20396 -0.58169,-0.38766 -0.86719,-0.56835 l 8.24414,-2.70704 c 1.46875,-4.75001 2.87501,-9.21876 4.21875,-13.40625 1.31251,-4.15624 2.59374,-8.06248 3.84375,-11.71875 4.34374,-1.1875 8.46876,-2.84374 12.375,-4.96875 3.93751,-2.09373 7.81249,-4.8281 11.625,-8.20312 z m -29.80664,0.0449 c -1.24715,3.30502 -2.4976,6.68252 -3.75586,10.2207 l -8.67187,0.98438 0.70312,4.78125 c 1.0625,-0.0937 2.10938,-0.18752 3.14063,-0.28125 1.03125,-0.0937 2.03125,-0.21878 3,-0.375 -1.46875,4.25 -2.9375,8.59376 -4.40625,13.03125 -1.46875,4.46876 -2.98438,9.10938 -4.54688,13.92187 l 0.24414,-0.0801 -0.38086,1.07421 c -1.5,2.83334 -2.94509,5.26323 -4.33398,7.29102 -1.38889,2 -2.63889,3.64019 -3.75,4.91797 -1.08334,1.27778 -2,2.22093 -2.75,2.83203 -0.75001,0.58333 -1.23677,0.875 -1.45898,0.875 -0.11112,0 -0.16602,-0.0549 -0.16602,-0.16602 0,-0.41665 0.13824,-1.05491 0.41602,-1.91601 0.27778,-0.8889 0.6263,-1.87565 1.04296,-2.95899 0.44445,-1.08333 0.91602,-2.20833 1.41602,-3.375 0.52778,-1.19445 1.01454,-2.29102 1.45898,-3.29101 0.47223,-1.02778 0.8737,-1.90278 1.20704,-2.625 0.36111,-0.72217 0.58464,-1.18048 0.66796,-1.375 0,-0.13889 -0.32009,-0.38891 -0.95898,-0.75 -0.63889,-0.38889 -1.40213,-0.79231 -2.29102,-1.20899 -0.86111,-0.41665 -1.7513,-0.79164 -2.66796,-1.125 -0.91667,-0.36102 -1.63824,-0.58261 -2.16602,-0.66601 h -0.25 c -0.0278,-0.0277 -0.0694,0.0272 -0.125,0.16601 -1.05556,2.69445 -2.04232,5.26454 -2.95898,7.70899 -0.91667,2.44445 -1.70834,4.65277 -2.375,6.625 -0.69445,1.97221 -1.23611,3.66536 -1.625,5.08203 -0.41667,1.41667 -0.625,2.43184 -0.625,3.04297 0,0.52777 0.19509,1.08268 0.58398,1.66601 0.36111,0.58334 0.81944,1.11175 1.375,1.58399 0.52778,0.47221 1.11111,0.86045 1.75,1.16601 0.63889,0.33333 1.22222,0.5 1.75,0.5 0.25,0 0.52843,-0.0416 0.83398,-0.125 0.30557,-0.0557 0.56881,-0.15218 0.79102,-0.29101 0.36111,-0.25 0.91601,-0.66667 1.66602,-1.25 0.75,-0.55557 1.625,-1.29232 2.625,-2.20899 1,-0.91668 2.09852,-2.01325 3.29296,-3.29101 1.19445,-1.30558 2.41602,-2.80556 3.66602,-4.5 -0.47222,1.66667 -0.87565,3.12501 -1.20898,4.375 -0.33334,1.25001 -0.5,2.09657 -0.5,2.54101 0,0.49999 0.16666,1.02842 0.5,1.58399 0.36111,0.55556 0.79296,1.05555 1.29296,1.5 0.52778,0.47221 1.08269,0.84723 1.66602,1.125 0.58333,0.30556 1.11176,0.45703 1.58398,0.45703 0.6389,0 1.4438,-0.22157 2.41602,-0.66602 0.97222,-0.44444 2.01389,-1.01453 3.125,-1.70898 1.11111,-0.72222 2.24935,-1.52712 3.41602,-2.41602 1.19444,-0.91666 2.33463,-1.83333 3.41796,-2.75 0.55791,-0.47422 1.09074,-0.93742 1.59961,-1.39062 -0.0203,0.39579 -0.0586,0.84496 -0.0586,1.18164 0,0.52777 0.25,1.23611 0.75,2.125 0.5,0.88889 1.13824,1.7639 1.91602,2.625 0.77778,0.83334 1.6263,1.55687 2.54296,2.16797 0.94446,0.61112 1.84593,0.91601 2.70704,0.91601 0.91666,0 1.87498,-0.17989 2.875,-0.54101 1.02778,-0.33333 2.06945,-0.82009 3.125,-1.45899 1.05557,-0.61109 2.09724,-1.33268 3.125,-2.16601 1.05557,-0.86113 2.04232,-1.77778 2.95898,-2.75 0.19457,0.0557 0.37446,0.082 0.54102,0.082 h 0.625 c 1.25001,0 2.44511,-0.0965 3.58398,-0.29102 1.16666,-0.19444 2.32009,-0.52778 3.45898,-1 0.11469,-0.0476 0.22908,-0.10364 0.34375,-0.15429 -0.0298,0.47411 -0.0527,0.95303 -0.0527,1.44531 0,0.61112 0.26324,1.34788 0.79102,2.20898 0.52779,0.86111 1.19445,1.68121 2,2.45899 0.77777,0.80557 1.6263,1.48545 2.54296,2.04101 0.91669,0.55554 1.75002,0.83399 2.5,0.83399 1.77779,0 3.59592,-0.22352 5.45704,-0.66797 1.88888,-0.44445 3.86241,-1.17925 5.91796,-2.20703 2.05556,-1.02778 4.20703,-2.38955 6.45704,-4.08399 0.97334,-0.72406 1.97789,-1.53717 3.00195,-2.4082 -0.0232,0.0978 -0.0617,0.22835 -0.084,0.32422 -0.27782,1.16666 -0.48616,2.14019 -0.625,2.91797 -0.1668,0.77788 -0.25,1.24946 -0.25,1.41601 0.50001,0.5278 1.06814,1.05622 1.70704,1.58399 0.61112,0.52777 1.23613,0.99933 1.875,1.41601 0.61112,0.44448 1.20963,0.79107 1.79296,1.04102 0.61113,0.2778 1.15279,0.41797 1.625,0.41797 0.38894,0 0.65219,-0.11175 0.79102,-0.33399 0.13901,-0.22221 0.29243,-0.52712 0.45898,-0.91601 1.33335,-3.1389 2.69511,-5.84721 4.08399,-8.125 1.3889,-2.30554 2.70704,-4.26389 3.95703,-5.875 1.25002,-1.63891 2.36176,-2.97222 3.33398,-4 0.99999,-1.05555 1.76325,-1.90408 2.29102,-2.54297 l 0.084,-0.082 c -0.49998,1.24999 -1.02841,2.62498 -1.58398,4.125 -0.52777,1.47223 -1.04101,2.97224 -1.54102,4.5 -0.5,1.50002 -0.97352,2.97158 -1.41796,4.41601 -0.41671,1.44446 -0.75005,2.73613 -1,3.875 0,0.50001 0.20834,1.01325 0.625,1.54102 0.41668,0.52777 0.91666,1.00129 1.5,1.41797 0.61109,0.44445 1.2361,0.80426 1.875,1.08203 0.63889,0.30556 1.1673,0.45898 1.58398,0.45898 0.63889,0 1.43057,-0.22156 2.375,-0.66601 0.94445,-0.44445 1.95768,-1.02778 3.04102,-1.75 1.08333,-0.72222 2.19511,-1.5423 3.33398,-2.45899 0.52315,-0.41103 1.03226,-0.82138 1.5332,-1.23242 -7.02052,13.46647 -18.75643,26.01527 -35.73047,37.26563 -3.21176,-2.23561 -7.06865,-3.66399 -11.44531,-4.44336 l -0.55273,-6.32617 10.24219,-1.59375 -9.56446,-4.46094 3.74024,-9.66602 -8.64454,6.05274 -6.50195,-8.07227 0.91992,10.51172 -10.24218,1.5957 9.56445,4.45899 -2.6875,6.94531 c -2.72155,0.18103 -5.54984,0.49615 -8.48438,0.94336 -16.26958,-4.06182 -29.08784,-2.94602 -37.71289,4.45898 -8.24515,-4.39623 -16.48921,-2.32564 -24.73437,-0.81054 l -10.34766,1.6289 1.36914,-5.49609 8.68946,1.55469 -6.4668,-6.24024 5.68945,-6.74804 -8.63672,2.47851 -2.99804,-8.30078 -2.17188,8.71875 -8.68945,-1.55273 6.4668,6.24023 -3.34571,3.9668 c -6.29513,-5.36238 -12.68884,-11.42516 -18.46679,-18.14844 0.006,-3.7e-4 0.0119,4.7e-4 0.0176,0 0.88889,-0.0833 1.62565,-0.2215 2.20899,-0.41602 0.61111,-0.19441 1.12435,-0.40276 1.54101,-0.625 1.6389,-0.88889 3.33399,-2.36045 5.08399,-4.41601 1.77778,-2.02777 3.54101,-4.43118 5.29101,-7.20899 1.77779,-2.80554 3.51454,-5.88889 5.20899,-9.25 1.72222,-3.36113 3.36046,-6.81944 4.91601,-10.375 1.55556,-3.58334 3.00065,-7.16668 4.33399,-10.75 1.33333,-3.61111 2.51323,-7.02777 3.54101,-10.25 1.91667,-1.69446 3.80491,-3.27777 5.66602,-4.75 1.88889,-1.47222 3.69575,-2.76389 5.41797,-3.875 1.75,-1.13889 3.40147,-2.084 4.95703,-2.83398 1.58333,-0.75001 3.02843,-1.26325 4.33398,-1.54102 0.75001,-0.11111 1.34657,-0.12441 1.79102,-0.041 0.47222,0.0556 0.83398,0.20708 1.08398,0.45703 0.25001,0.25 0.41668,0.58332 0.5,1 0.0833,0.38889 0.125,0.84723 0.125,1.375 0,1.36111 -0.22157,2.86112 -0.66601,4.5 -0.41667,1.61111 -1.09852,3.29295 -2.04297,5.04297 -0.91667,1.75 -2.10981,3.52647 -3.58203,5.33203 -1.47223,1.80556 -3.26389,3.57074 -5.375,5.29297 -2.11111,1.69444 -4.56944,3.30424 -7.375,4.83203 -2.77778,1.52779 -5.93121,2.90278 -9.45899,4.125 0.41667,2.66666 0.88824,5.34852 1.41602,8.04297 0.55555,2.66666 1.12565,5.26322 1.70898,7.79101 0.61112,2.49999 1.22288,4.88822 1.83399,7.16602 0.61111,2.25 1.17925,4.27843 1.70703,6.08398 0.52778,1.83333 1.0013,3.40341 1.41797,4.70899 0.41668,1.30555 0.73482,2.2639 0.95703,2.875 0.77778,-0.19445 1.68121,-0.45964 2.70898,-0.79297 1.05556,-0.30556 2.12565,-0.6389 3.20899,-1 1.08333,-0.33333 2.13823,-0.66665 3.16601,-1 1.02778,-0.33338 1.91602,-0.62505 2.66602,-0.875 -0.86111,-1.4722 -1.83268,-3.15211 -2.91602,-5.04102 -1.05555,-1.86111 -2.18055,-3.88954 -3.375,-6.08398 -1.16666,-2.22221 -2.36176,-4.58202 -3.58398,-7.08203 -1.19445,-2.50001 -2.36111,-5.12499 -3.5,-7.875 4.58334,-1.94444 8.52843,-4.22286 11.83398,-6.83399 3.30556,-2.61109 6.01389,-5.3611 8.125,-8.25 2.1389,-2.88889 3.70899,-5.84722 4.70899,-8.875 1.02778,-3.05557 1.54101,-6.00064 1.54101,-8.83398 -0.0278,-0.58333 -0.20768,-1.23481 -0.54101,-1.95703 -0.30556,-0.74999 -0.72222,-1.49999 -1.25,-2.25 -0.34499,-0.53665 -0.74364,-1.05621 -1.16797,-1.56641 0.33013,0.0667 0.65774,0.11328 0.98047,0.11328 1.125,0 2.3125,-0.18749 3.5625,-0.5625 1.25,-0.375 2.5,-0.90625 3.75,-1.59375 1.28125,-0.68749 2.53125,-1.5 3.75,-2.4375 1.21875,-0.9375 2.35937,-1.96873 3.42187,-3.09375 1.375,0 2.71875,-0.10941 4.03125,-0.32812 1.3125,-0.25 2.59375,-0.64063 3.84375,-1.17188 0.69417,-0.28782 1.38337,-0.63529 2.06836,-1.0332 z m 34.125,10.13477 c 0.14355,0.0337 0.27883,0.0569 0.40625,0.0684 0.10818,0.091 0.16992,0.24796 0.16992,0.49023 0,1.27778 -0.54166,2.93122 -1.625,4.95898 -1.08333,2 -2.5701,4.25 -4.45898,6.75 -1.88891,2.50001 -4.1389,5.19509 -6.75,8.08399 -2.61112,2.8611 -5.4312,5.76258 -8.45898,8.70703 0.63889,-1.75 1.30555,-3.41666 2,-5 0.69445,-1.58332 1.40278,-3.04166 2.125,-4.375 2.13888,-3.88891 4.12563,-7.09723 5.95898,-9.625 1.86111,-2.55557 3.51455,-4.56879 4.95898,-6.04102 1.47223,-1.49999 2.70705,-2.54166 3.70704,-3.125 0.89239,-0.54532 1.53895,-0.834 1.96679,-0.89257 z m -93.44726,2.02539 c -0.84788,3.44487 -1.86927,7.05255 -3.08594,10.8457 -2.22222,2.25 -4.38889,4.61175 -6.5,7.08398 -2.08333,2.47222 -4.08333,4.98545 -6,7.54102 -1.88889,2.52777 -3.66536,5.08464 -5.33203,7.66797 -0.59453,0.92705 -1.14675,1.83757 -1.70117,2.75 -0.0462,-0.0648 -0.0773,-0.10232 -0.125,-0.16992 -0.36036,-0.54839 -0.76053,-1.16808 -1.19922,-1.85742 -0.42303,-0.68939 -0.84651,-1.43338 -1.26953,-2.23243 0.84604,-0.64237 1.63862,-1.28536 2.375,-1.92773 0.73637,-0.64237 1.37741,-1.24456 1.92578,-1.8086 0.54836,-0.57968 0.98738,-1.09643 1.3164,-1.55078 0.34468,-0.47002 0.53311,-0.8624 0.56446,-1.17578 v -0.33008 c 0,-0.25068 -0.0155,-0.59452 -0.0469,-1.0332 -0.0313,-0.4387 -0.078,-0.90879 -0.14062,-1.41016 -0.047,-0.50134 -0.11112,-1.00256 -0.18946,-1.5039 -0.0627,-0.51704 -0.1326,-0.97936 -0.21093,-1.38672 -0.0627,-0.423 -0.1326,-0.75906 -0.21094,-1.00977 -0.0783,-0.26633 -0.15023,-0.40039 -0.21289,-0.40039 -0.0313,0 -0.21005,0.25838 -0.53906,0.77539 -0.32902,0.50137 -0.79913,1.18322 -1.41016,2.04493 -0.61104,0.84606 -1.35504,1.81734 -2.23242,2.91406 -0.87738,1.09674 -1.8817,2.23315 -3.00977,3.4082 -0.36036,-0.98703 -0.65757,-1.98164 -0.89258,-2.98437 -0.21933,-1.00274 -0.32812,-1.98374 -0.32812,-2.93946 v -0.77539 c 0.0157,-0.28203 0.0312,-0.5637 0.0469,-0.8457 1.01839,-0.8774 2.04407,-1.74571 3.07813,-2.60742 1.04973,-0.86171 2.05209,-1.71644 3.00781,-2.5625 0.97139,-0.84604 1.87275,-1.67552 2.70313,-2.49024 0.83038,-0.83038 1.55107,-1.65403 2.16211,-2.46875 0.6267,-0.81471 1.11234,-1.62088 1.45703,-2.41992 0.36035,-0.81471 0.54101,-1.62283 0.54101,-2.42187 0,-0.10961 -0.0233,-0.21071 -0.0703,-0.30469 -0.0313,-0.094 -0.0702,-0.18727 -0.11719,-0.28125 -0.0425,-0.0638 -0.11348,-0.1514 -0.16015,-0.21875 2.5784,-0.0152 5.29006,-0.40025 8.13867,-1.16602 2.60719,-0.67283 5.16137,-1.59738 7.66797,-2.74804 z m -19.50196,3.07422 c 0.18802,0 0.28321,0.0952 0.28321,0.2832 0,0.87738 -0.21951,1.74571 -0.65821,2.60742 -0.42302,0.86173 -1.01163,1.732 -1.76367,2.60938 -0.75204,0.8617 -1.62813,1.73001 -2.63086,2.60742 -0.98705,0.8617 -2.04576,1.73976 -3.17383,2.63281 0.34469,-1.36307 0.76817,-2.68597 1.26954,-3.9707 0.51702,-1.30041 1.10368,-2.44458 1.76171,-3.43164 0.67371,-1.00274 1.41771,-1.81086 2.23243,-2.42188 0.81471,-0.61105 1.70829,-0.91601 2.67968,-0.91601 z m 148.32422,7.00585 a 3.9595045,3.9595045 0 0 1 0.74414,0.0762 3.9595045,3.9595045 0 0 1 3.07813,4.77343 3.9595045,3.9595045 0 1 1 -7.71485,-1.7832 3.9595045,3.9595045 0 0 1 3.89258,-3.06641 z m -161.55469,13.65235 v 0.42383 c 10e-6,1.30041 0.10879,2.53783 0.32813,3.71289 0.21935,1.15941 0.50102,2.25501 0.8457,3.28906 -0.7207,0.54836 -1.40836,1.034 -2.0664,1.45703 -0.65804,0.40736 -1.26219,0.75313 -1.81055,1.03516 -0.54837,0.2819 -1.02624,0.49366 -1.43359,0.63476 -0.40737,0.14111 -0.71235,0.21094 -0.91602,0.21094 -0.12535,0 -0.22054,-0.0388 -0.2832,-0.11719 -0.047,-0.094 -0.0703,-0.1814 -0.0703,-0.25976 0,-0.9244 0.13404,-1.83156 0.40039,-2.72461 0.26634,-0.89305 0.64125,-1.77111 1.12695,-2.63281 0.48569,-0.87738 1.05876,-1.73212 1.7168,-2.5625 0.65803,-0.83039 1.37875,-1.65209 2.1621,-2.4668 z m 23.18946,4.90625 c -1.47223,3.63888 -2.95898,7.08201 -4.45899,10.33203 -1.5,3.24999 -2.9299,6.09852 -4.29101,8.54297 -1.33334,2.44445 -2.54167,4.37435 -3.625,5.79101 -1.08334,1.41667 -1.9451,2.125 -2.58399,2.125 -0.27777,0 -0.41601,-0.16667 -0.41601,-0.5 0,-1.3611 0.38823,-2.99934 1.16601,-4.91601 0.77778,-1.94444 1.84788,-4.05619 3.20899,-6.33399 1.38889,-2.30553 3.01389,-4.73545 4.875,-7.29101 1.88889,-2.55557 3.93055,-5.1389 6.125,-7.75 z M 421.75,473.84375 c 0.30561,0 0.52718,0.0985 0.66602,0.29297 0.16655,0.19449 0.25,0.41606 0.25,0.66601 0,0.86111 -0.2348,1.72286 -0.70704,2.58399 -0.47221,0.8611 -1.09722,1.70768 -1.875,2.54101 -0.77777,0.80557 -1.66795,1.584 -2.66796,2.33399 -0.97222,0.75001 -1.97222,1.45834 -3,2.125 0.44444,-1.36111 0.97286,-2.66798 1.58398,-3.91797 0.6111,-1.27778 1.24933,-2.40278 1.91602,-3.375 0.66665,-0.97222 1.33334,-1.7487 2,-2.33203 0.66668,-0.61113 1.27844,-0.91797 1.83398,-0.91797 z m -134.67188,2.78516 c 0.40736,0.81471 0.7745,1.47324 1.10352,1.97461 0.32902,0.51688 0.53299,0.83741 0.61133,0.96289 0.37602,0.0317 0.89274,0.0552 1.55078,0.0703 0.67371,0.0151 1.36332,0.0234 2.06836,0.0234 0.28222,0 0.53057,-0.0128 0.80078,-0.0176 -0.52204,0.89819 -1.04729,1.79796 -1.5293,2.68164 -1.36111,2.41665 -2.54101,4.73479 -3.54101,6.95703 -1,2.22224 -1.77843,4.26391 -2.33399,6.125 -0.0906,0.36235 -0.13089,0.72517 -0.15039,1.08789 -3.98727,-5.70384 -7.40274,-11.80366 -9.90234,-18.28906 0.26858,0.28437 0.53959,0.55466 0.81641,0.79687 0.37602,0.3291 0.75288,0.59524 1.1289,0.79883 0.37602,0.21947 0.71985,0.33008 1.03321,0.33008 0.48567,0 1.04126,-0.0933 1.66796,-0.28125 0.62671,-0.17235 1.29301,-0.41517 1.99805,-0.72852 0.72071,-0.31337 1.47248,-0.68246 2.25586,-1.10547 0.79905,-0.423 1.60718,-0.88535 2.42187,-1.38671 z m 120.32813,28.47265 3.90039,4.84375 5.1875,-3.63281 -2.24414,5.80078 5.73828,2.67578 -6.14453,0.95703 0.55078,6.3086 -3.90039,-4.84571 -5.1875,3.63282 2.24609,-5.79883 -5.74023,-2.67774 6.14648,-0.95507 z m -88.09766,6.52539 1.79883,4.98047 5.18164,-1.48828 -3.41406,4.04883 3.87891,3.74609 -5.21289,-0.93359 -1.30274,5.23242 -1.79883,-4.98047 -5.18164,1.48633 3.41407,-4.04687 -3.88086,-3.74415 5.21289,0.93165 z m 90.91407,8.00391 2.75,3.41602 c -2.31281,-0.22753 -4.75497,-0.29518 -7.30469,-0.22657 z m -92.67188,4.47656 1.93945,5.36914 -1.12304,0.17578 c -1.7243,-1.36153 -3.4817,-2.79755 -5.25,-4.27148 z m 76.10742,3.83594 2.4961,4.18164 4.85937,0.31445 -3.20508,3.66407 1.20313,4.71875 -4.47656,-1.91602 -4.11719,2.60352 0.43945,-4.84961 -3.74609,-3.11133 4.74609,-1.08203 z m -31.82226,3.41406 1.67773,4.57227 4.7168,1.21093 -3.83008,3.00586 0.30664,4.85938 -4.04492,-2.71289 -4.52539,1.79297 1.33008,-4.6836 -3.10352,-3.75 4.86524,-0.18359 z"
       transform="scale(0.26458333)"
       inkscape:connector-curvature="0" />
  </g>
</svg>
