<?xml version="1.0" encoding="UTF-8" standalone="no"?>
<svg
   xmlns:dc="http://purl.org/dc/elements/1.1/"
   xmlns:cc="http://creativecommons.org/ns#"
   xmlns:rdf="http://www.w3.org/1999/02/22-rdf-syntax-ns#"
   xmlns:svg="http://www.w3.org/2000/svg"
   xmlns="http://www.w3.org/2000/svg"
   xmlns:sodipodi="http://sodipodi.sourceforge.net/DTD/sodipodi-0.dtd"
   xmlns:inkscape="http://www.inkscape.org/namespaces/inkscape"
   width="210mm"
   height="297mm"
   viewBox="0 0 210 297"
   version="1.1"
   id="svg8"
   inkscape:version="1.0.1 (3bc2e813f5, 2020-09-07)"
   sodipodi:docname="sofia&amp;ruben-flat.svg">
  <defs
     id="defs2" />
  <sodipodi:namedview
     id="base"
     pagecolor="#ffffff"
     bordercolor="#666666"
     borderopacity="1.0"
     inkscape:pageopacity="0.0"
     inkscape:pageshadow="2"
     inkscape:zoom="1.7044826"
     inkscape:cx="232.62035"
     inkscape:cy="455.11289"
     inkscape:document-units="mm"
     inkscape:current-layer="layer7"
     inkscape:document-rotation="0"
     showgrid="false"
     inkscape:window-width="1920"
     inkscape:window-height="1017"
     inkscape:window-x="-8"
     inkscape:window-y="-8"
     inkscape:window-maximized="1"
     showguides="false" />
  <metadata
     id="metadata5">
    <rdf:RDF>
      <cc:Work
         rdf:about="">
        <dc:format>image/svg+xml</dc:format>
        <dc:type
           rdf:resource="http://purl.org/dc/dcmitype/StillImage" />
        <dc:title />
      </cc:Work>
    </rdf:RDF>
  </metadata>
  <g
     inkscape:groupmode="layer"
     id="layer2"
     inkscape:label="Fundo"
     style="display:none"
     sodipodi:insensitive="true">
    <rect
       style="fill:#000000;fill-opacity:1;stroke:none;stroke-width:0.264583"
       id="rect1040"
       width="117.16964"
       height="109.05789"
       x="41.76046"
       y="66.396126" />
  </g>
  <g
     inkscape:groupmode="layer"
     id="layer3"
     inkscape:label="Moldura - fundo"
     style="display:none"
     sodipodi:insensitive="true">
    <path
       id="path1043"
       style="fill:#58a758;fill-opacity:1;fill-rule:evenodd;stroke:none;stroke-width:0.999999"
       d="m 332.32422,296.06055 c -4.62785,0.0594 -8.25841,2.11148 -11.09375,5.75586 -6.01532,13.65293 6.94577,23.49023 26.88086,27.47851 -46.29533,-0.29868 -60.03516,20.75781 -60.03516,20.75781 l 8.96094,0.44727 c 0,0 -0.29914,4.18279 1.04492,10.45508 23.89436,-28.22522 59.58594,-24.04492 59.58594,-24.04492 l -0.89453,2.6875 -20.60938,9.11132 0.24805,0.0215 c -8.38495,3.75367 -14.41774,8.85965 -16.68945,14.73828 -42.70463,16.52497 -70.01926,52.17036 -70.01954,91.375 2.2e-4,39.8618 28.22713,75.97656 72.00391,92.125 19.06069,10.90203 33.25127,27.33453 40.14258,46.48437 1.31827,3.87708 4.62506,7.03553 8.85351,7.03516 3.86588,-6.4e-4 7.30818,-2.447 8.58008,-6.09766 l 0.0156,-0.002 c 6.75828,-19.54098 21.09463,-36.33728 40.47656,-47.42187 43.77524,-16.14864 72.00115,-52.26234 72.00195,-92.12305 0,-38.73691 -26.67366,-74.04439 -68.61328,-90.82227 -2.02888,-5.91569 -7.85983,-11.08818 -16.09179,-14.92773 l -13.41211,-9.3457 1.04492,-1.79297 c 19.51139,6.1075 39.8223,3.90253 57.49609,29.12109 l 2.08985,-11.34961 7.76562,1.64258 c -2.32086,-15.3148 -32.124,-22.43426 -60.78125,-27.77539 13.06783,-2.43753 32.79479,-4.90899 30.76367,-19.56445 -2.03112,-14.65546 -11.981,-16.70807 -45.54687,5.22656 -6.02956,-6.53994 -13.38636,-6.44882 -21.80469,-1.04492 -14.16999,-12.81486 -24.6502,-18.24933 -32.36328,-18.15039 z m 3.84961,11.46289 c 4.90764,0.21041 15.20596,10.2869 19.70312,12.21289 -7.92678,-2.32805 -24.47101,-1.33294 -21.80468,-11.20117 0.46804,-0.75216 1.19274,-1.05069 2.10156,-1.01172 z m 81.14258,2.30273 c 0.62843,0.025 1.12219,0.27312 1.44726,0.80078 4.45119,8.97579 -13.4524,8.66143 -21.80273,11.20117 5.01503,-1.47028 15.9564,-12.17673 20.35547,-12.00195 z m -41.48243,10.65625 a 7.1683072,6.7202884 0 0 1 0.0547,0 7.1683072,6.7202884 0 0 1 7.16797,6.7207 7.1683072,6.7202884 0 0 1 -7.16797,6.72071 7.1683072,6.7202884 0 0 1 -7.16797,-6.72071 7.1683072,6.7202884 0 0 1 7.11328,-6.7207 z"
       transform="scale(0.26458333)" />
  </g>
  <g
     inkscape:groupmode="layer"
     id="layer7"
     inkscape:label="Flat"
     style="display:inline">
    <g
       id="text1062"
       style="font-size:16.4746px;line-height:1.25;font-family:Yesteryear;-inkscape-font-specification:Yesteryear;display:inline;stroke-width:0.10886338;fill:none;stroke:#000000;stroke-opacity:1;stroke-miterlimit:4;stroke-dasharray:none" />
    <path
       id="path68"
       style="font-size:12.7346px;line-height:1.25;font-family:Yesteryear;-inkscape-font-specification:Yesteryear;fill:none;fill-opacity:1;stroke:#000000;stroke-width:0.512708;stroke-miterlimit:4;stroke-dasharray:none;stroke-opacity:1"
       d="M 332.32422 296.06055 C 327.69637 296.11995 324.06581 298.17203 321.23047 301.81641 C 315.21515 315.46934 328.17624 325.30664 348.11133 329.29492 C 301.816 328.99624 288.07617 350.05273 288.07617 350.05273 L 297.03711 350.5 C 297.03711 350.5 296.73797 354.68279 298.08203 360.95508 C 321.97639 332.72986 357.66797 336.91016 357.66797 336.91016 L 356.77344 339.59766 L 336.16406 348.70898 L 336.41211 348.73047 C 328.02716 352.48414 321.99437 357.59012 319.72266 363.46875 C 277.01803 379.99372 249.7034 415.63911 249.70312 454.84375 C 249.70334 494.70555 277.93025 530.82031 321.70703 546.96875 C 340.76772 557.87078 354.9583 574.3033 361.84961 593.45312 C 363.16788 597.3302 366.47469 600.48865 370.70312 600.48828 C 374.569 600.48764 378.0113 598.04128 379.2832 594.39062 L 379.29883 594.38867 C 386.05711 574.84769 400.39346 558.05139 419.77539 546.9668 C 463.55063 530.81816 491.77654 494.70446 491.77734 454.84375 C 491.77734 416.10684 465.10368 380.79936 423.16406 364.02148 C 421.13518 358.10579 415.30423 352.9333 407.07227 349.09375 L 393.66016 339.74805 L 394.70508 337.95508 C 414.21647 344.06258 434.52738 341.85761 452.20117 367.07617 L 454.29102 355.72656 L 462.05664 357.36914 C 459.73578 342.05434 429.93264 334.93488 401.27539 329.59375 C 414.34322 327.15622 434.07018 324.68476 432.03906 310.0293 C 430.00794 295.37384 420.05806 293.32123 386.49219 315.25586 C 380.46263 308.71592 373.10583 308.80704 364.6875 314.21094 C 350.51751 301.39608 340.0373 295.96161 332.32422 296.06055 z M 336.17383 307.52344 C 341.08147 307.73385 351.37979 317.81034 355.87695 319.73633 C 347.95017 317.40828 331.40594 318.40339 334.07227 308.53516 C 334.54031 307.783 335.26501 307.48447 336.17383 307.52344 z M 417.31641 309.82617 C 417.94484 309.85117 418.4386 310.09929 418.76367 310.62695 C 423.21486 319.60274 405.31127 319.2884 396.96094 321.82812 C 401.97597 320.35786 412.91734 309.65139 417.31641 309.82617 z M 375.83398 320.48242 A 7.168307 6.7202882 0 0 1 375.88867 320.48242 A 7.168307 6.7202882 0 0 1 383.05664 327.20312 A 7.168307 6.7202882 0 0 1 375.88867 333.92383 A 7.168307 6.7202882 0 0 1 368.7207 327.20312 A 7.168307 6.7202882 0 0 1 375.83398 320.48242 z M 373.87109 358.86719 C 381.49823 359.48766 388.77492 360.85736 395.67578 362.85547 L 391.74609 367.36914 L 383.73242 361.28906 L 387.06055 370.97656 L 377.78516 374.875 L 387.83984 376.83594 L 386.58008 386.81836 L 393.30664 379.0918 L 398.8418 383.29297 C 397.30922 385.3948 395.78927 387.6891 394.2832 390.19922 C 390.62696 396.29298 387.01759 403.51173 383.45508 411.85547 C 381.83504 415.63556 380.20388 419.64676 378.56445 423.83398 C 377.25232 425.07744 375.97574 426.02443 374.73633 426.66797 C 373.14258 427.48049 371.4082 427.94924 369.5332 428.07422 C 370.3457 426.76171 370.98633 425.43359 371.45508 424.08984 C 371.95508 422.7461 372.20508 421.40234 372.20508 420.05859 C 372.11133 419.83986 371.86133 419.44924 371.45508 418.88672 C 371.08008 418.32422 370.62695 417.71485 370.0957 417.05859 C 369.5957 416.3711 369.08008 415.71485 368.54883 415.08984 C 368.04883 414.43359 367.64258 413.91795 367.33008 413.54297 L 367.04883 413.82422 C 366.29883 414.54296 365.61133 415.3242 364.98633 416.16797 C 364.36133 416.98047 363.83008 417.7461 363.39258 418.46484 C 362.86133 419.27734 362.4082 420.10545 362.0332 420.94922 C 361.4707 422.04296 361.11132 423.02736 360.95508 423.90234 C 360.83008 424.74611 360.76758 425.48049 360.76758 426.10547 L 360.76758 426.85547 C 360.79882 427.10547 360.84569 427.40233 360.9082 427.74609 C 359.62695 429.49609 358.39258 430.94924 357.20508 432.10547 C 356.01758 433.23048 355.06445 433.79297 354.3457 433.79297 C 353.6582 433.79297 353.31445 433.32422 353.31445 432.38672 C 353.31445 431.2617 353.61133 429.68359 354.20508 427.65234 C 354.79883 425.58986 355.93945 423.29297 357.62695 420.76172 C 358.75195 419.04297 359.7832 417.66798 360.7207 416.63672 C 361.6582 415.57422 362.4707 414.76171 363.1582 414.19922 C 363.8457 413.63667 364.39258 413.24605 364.79883 413.02734 C 365.20509 412.77732 365.43946 412.57419 365.50195 412.41797 C 365.50195 412.29297 365.36133 412.04297 365.08008 411.66797 C 364.79883 411.26172 364.43945 410.85547 364.00195 410.44922 C 363.5957 410.04297 363.14258 409.68359 362.64258 409.37109 C 362.17383 409.02733 361.7207 408.85547 361.2832 408.85547 C 361.12696 408.85547 360.92383 408.8711 360.67383 408.90234 C 360.45509 408.93359 360.29884 408.98048 360.20508 409.04297 C 357.29883 409.85547 354.7832 411.04296 352.6582 412.60547 C 350.56445 414.16798 348.8457 415.98048 347.50195 418.04297 C 346.12695 420.07421 345.12695 422.26171 344.50195 424.60547 C 343.8457 426.94923 343.51758 429.30861 343.51758 431.68359 C 343.51758 432.40236 343.7832 433.23047 344.31445 434.16797 C 344.50782 434.5092 344.7264 434.84111 344.95703 435.16992 C 344.69108 435.11073 344.43129 435.07422 344.18359 435.07422 C 341.62803 435.07422 338.9898 435.58745 336.26758 436.61523 C 333.57313 437.61525 330.82314 439.01866 328.01758 440.82422 C 328.15646 440.26865 328.26628 439.75346 328.34961 439.28125 C 328.43294 438.78124 328.50303 438.29643 328.55859 437.82422 C 328.19748 437.24089 327.71072 436.57423 327.09961 435.82422 C 327.09226 435.8152 327.08355 435.80584 327.07617 435.79688 C 329.1346 434.23181 330.98403 432.58363 332.5957 430.83984 C 334.5332 428.74609 336.06445 426.58983 337.18945 424.37109 C 338.3457 422.12109 338.92383 419.88673 338.92383 417.66797 C 338.92383 416.88672 338.6582 415.85545 338.12695 414.57422 C 337.5957 413.29296 336.92383 412.04297 336.11133 410.82422 C 335.29883 409.60547 334.42383 408.5586 333.48633 407.68359 C 332.54883 406.80861 331.67383 406.37109 330.86133 406.37109 C 329.33008 406.37109 327.75195 406.43362 326.12695 406.55859 C 324.50195 406.68362 322.79883 406.82425 321.01758 406.98047 C 319.23633 407.13674 317.36133 407.293 315.39258 407.44922 C 313.42383 407.5742 311.3457 407.65235 309.1582 407.68359 C 310.1582 404.1836 311.5957 400.88671 313.4707 397.79297 C 315.37695 394.69922 317.5332 391.85548 319.93945 389.26172 C 322.37695 386.66798 324.9707 384.33986 327.7207 382.27734 C 330.50195 380.21486 333.25195 378.48047 335.9707 377.07422 C 338.68945 375.63672 341.29883 374.54297 343.79883 373.79297 C 346.29883 373.04297 348.50195 372.66797 350.4082 372.66797 C 350.93946 372.66797 351.29884 372.7461 351.48633 372.90234 C 351.70507 373.02734 351.86132 373.26172 351.95508 373.60547 C 352.08008 374.29297 351.90821 375.21484 351.43945 376.37109 C 350.9707 377.52733 350.31445 378.82421 349.4707 380.26172 C 348.6582 381.66798 347.68945 383.13673 346.56445 384.66797 C 345.43945 386.19923 344.2832 387.68359 343.0957 389.12109 C 341.93945 390.55857 340.7832 391.87109 339.62695 393.05859 C 338.50195 394.21485 337.48633 395.15235 336.58008 395.87109 C 337.17383 396.4961 337.81445 397.13672 338.50195 397.79297 L 340.56445 399.76172 C 341.25195 400.3867 341.89258 400.98045 342.48633 401.54297 C 343.11133 402.10546 343.64258 402.58984 344.08008 402.99609 C 345.26758 402.24608 346.4707 401.24608 347.68945 399.99609 C 348.93945 398.71483 350.14258 397.30858 351.29883 395.77734 C 352.45508 394.21484 353.54883 392.57422 354.58008 390.85547 C 355.61133 389.13672 356.50195 387.44921 357.25195 385.79297 C 358.0332 384.1367 358.64258 382.57422 359.08008 381.10547 C 359.51758 379.60548 359.73633 378.32421 359.73633 377.26172 C 359.73633 377.13672 359.68946 376.93359 359.5957 376.65234 C 359.53321 376.33984 359.45509 376.04297 359.36133 375.76172 C 359.26757 375.44923 359.17384 375.1836 359.08008 374.96484 C 358.98632 374.71483 358.92382 374.55858 358.89258 374.49609 C 358.61133 374.15234 358.26758 373.66797 357.86133 373.04297 C 357.45508 372.38672 356.9707 371.68359 356.4082 370.93359 C 355.8457 370.18359 355.20508 369.41797 354.48633 368.63672 C 353.76758 367.82422 352.95508 367.08984 352.04883 366.43359 C 351.14258 365.77734 350.12695 365.2461 349.00195 364.83984 C 348.52881 364.66411 348.02773 364.53331 347.50781 364.43359 C 355.61868 361.88726 364.39875 359.98171 373.87109 358.86719 z M 397.97852 363.55469 C 403.40224 365.25764 408.582 367.35664 413.49805 369.80078 C 410.74853 371.10123 408.07711 373.00027 405.48633 375.52734 C 403.67223 377.28196 401.87638 379.31777 400.09766 381.61719 L 397.99219 375.48633 L 407.26758 371.58594 L 397.21289 369.625 L 397.97852 363.55469 z M 395.5 366.4375 L 394.86914 371.42969 L 399.89648 372.4082 L 395.25781 374.35938 L 396.92383 379.20312 L 392.91602 376.16211 L 389.55273 380.02539 L 390.18359 375.0332 L 385.15625 374.05273 L 389.79297 372.10352 L 388.13086 367.25977 L 392.13672 370.30078 L 395.5 366.4375 z M 418.61133 373.04297 C 418.92382 373.04297 419.08008 373.26172 419.08008 373.69922 C 419.08008 374.69922 418.79882 375.99609 418.23633 377.58984 C 417.67383 379.15235 416.87696 380.90236 415.8457 382.83984 C 414.81445 384.77736 413.56445 386.85548 412.0957 389.07422 C 410.6582 391.26173 409.06445 393.4961 407.31445 395.77734 C 405.56446 398.05859 403.67382 400.32422 401.64258 402.57422 C 399.64258 404.82422 397.54884 406.94922 395.36133 408.94922 C 396.14258 407.23047 396.83006 405.74611 397.42383 404.49609 C 398.01757 403.2461 398.53321 402.21484 398.9707 401.40234 C 399.47071 400.4336 399.89257 399.6211 400.23633 398.96484 C 402.92382 394.24608 405.28321 390.24608 407.31445 386.96484 C 409.3457 383.68358 411.0957 381.01171 412.56445 378.94922 C 414.06447 376.88671 415.29883 375.38672 416.26758 374.44922 C 417.23632 373.51172 418.01756 373.04297 418.61133 373.04297 z M 424.35547 376.0293 C 443.33523 388.44616 457.37325 406.2914 465.04102 425.70898 C 464.64341 426.05908 464.29212 426.37908 463.8457 426.76172 C 462.97072 427.5117 462.04882 428.27734 461.08008 429.05859 C 460.14258 429.83985 459.25197 430.54296 458.4082 431.16797 C 457.56446 431.79295 456.81446 432.30859 456.1582 432.71484 C 455.50195 433.12112 455.0332 433.32422 454.75195 433.32422 C 454.56449 433.32422 454.4707 433.23043 454.4707 433.04297 C 454.4707 432.69923 454.48633 432.21485 454.51758 431.58984 C 454.58007 430.93359 454.70511 430.15235 454.89258 429.24609 C 455.11131 428.33984 455.4082 427.29297 455.7832 426.10547 C 456.18945 424.88672 456.75194 423.54297 457.4707 422.07422 C 457.4707 421.73048 457.33008 421.2461 457.04883 420.62109 C 456.79882 419.96484 456.48633 419.29296 456.11133 418.60547 C 455.73632 417.91797 455.33007 417.29296 454.89258 416.73047 C 454.45506 416.13665 454.06444 415.7148 453.7207 415.46484 C 453.65821 415.4336 453.61132 415.4336 453.58008 415.46484 C 453.54883 415.49609 453.5332 415.52735 453.5332 415.55859 C 452.93944 416.55858 452.22069 417.54298 451.37695 418.51172 C 450.53321 419.48049 449.72071 420.33986 448.93945 421.08984 C 448.0332 421.9961 447.0957 422.83984 446.12695 423.62109 C 445.03321 424.52735 443.97071 425.40235 442.93945 426.24609 C 441.93944 427.05859 441.01757 427.77734 440.17383 428.40234 C 439.33009 428.99608 438.56445 429.48046 437.87695 429.85547 C 437.2207 430.19923 436.67385 430.37109 436.23633 430.37109 C 435.79884 430.37109 435.58008 430.10547 435.58008 429.57422 C 435.58008 428.85545 436.01757 427.68359 436.89258 426.05859 C 437.76756 424.40235 439.34571 422.44922 441.62695 420.19922 C 442.59572 419.26172 443.64259 418.30859 444.76758 417.33984 C 445.73632 416.52735 446.84569 415.66797 448.0957 414.76172 C 449.34569 413.82422 450.67382 412.98048 452.08008 412.23047 L 452.17383 412.13672 C 452.20507 412.10547 452.20507 412.05858 452.17383 411.99609 C 452.04883 411.8086 451.7832 411.57424 451.37695 411.29297 C 451.00195 410.98048 450.54883 410.68359 450.01758 410.40234 C 449.5176 410.0898 449.00195 409.80855 448.4707 409.55859 C 447.9707 409.27732 447.53321 409.0742 447.1582 408.94922 C 447.06447 408.88673 446.98632 408.8711 446.92383 408.90234 C 446.89258 408.93359 446.84569 408.94922 446.7832 408.94922 C 445.09572 409.4492 443.48634 410.12108 441.95508 410.96484 C 440.42384 411.80859 439.06446 412.63672 437.87695 413.44922 C 436.47069 414.41796 435.1582 415.4492 433.93945 416.54297 C 431.56445 418.69921 429.68945 420.80861 428.31445 422.87109 C 427.94603 423.41537 427.60618 423.94359 427.28711 424.46094 C 427.15563 424.57471 427.10066 424.6195 426.95508 424.74609 C 426.23634 425.37108 425.42383 426.07422 424.51758 426.85547 C 423.64259 427.60548 422.72072 428.37109 421.75195 429.15234 C 420.78321 429.9336 419.84571 430.65237 418.93945 431.30859 C 418.06447 431.96485 417.2832 432.49609 416.5957 432.90234 C 415.90818 433.30859 415.39256 433.51172 415.04883 433.51172 C 414.86136 433.51172 414.76758 433.41793 414.76758 433.23047 C 414.76758 432.88671 414.90818 432.27733 415.18945 431.40234 C 415.50194 430.49609 415.87696 429.46485 416.31445 428.30859 C 416.78322 427.15236 417.2676 425.91797 417.76758 424.60547 C 418.29883 423.29296 418.78319 422.04297 419.2207 420.85547 C 419.68944 419.63672 420.06446 418.54296 420.3457 417.57422 C 420.65822 416.60548 420.81445 415.8711 420.81445 415.37109 C 420.81445 414.90233 420.48633 414.35545 419.83008 413.73047 C 419.17383 413.07422 418.42385 412.46486 417.58008 411.90234 C 416.76758 411.30861 415.97068 410.80859 415.18945 410.40234 C 414.43939 409.99609 413.97067 409.79297 413.7832 409.79297 C 413.65823 409.79297 413.40821 410.16796 413.0332 410.91797 C 412.68944 411.66795 412.26758 412.66795 411.76758 413.91797 C 411.2676 415.13672 410.70509 416.54297 410.08008 418.13672 C 409.48634 419.73047 408.89259 421.37111 408.29883 423.05859 C 406.04882 425.12111 403.92383 426.93361 401.92383 428.49609 C 399.95507 430.02736 398.00194 431.37109 396.06445 432.52734 C 394.15821 433.68358 392.22071 434.66797 390.25195 435.48047 C 388.31444 436.29297 386.23631 436.98045 384.01758 437.54297 C 385.39257 433.82422 386.67383 430.40236 387.86133 427.27734 C 389.04883 424.12111 390.17383 421.24611 391.23633 418.65234 C 394.17383 416.43361 397.0332 414.07423 399.81445 411.57422 C 402.59568 409.04297 405.20506 406.46485 407.64258 403.83984 C 410.11132 401.18359 412.37694 398.52735 414.43945 395.87109 C 416.50194 393.1836 418.26758 390.57422 419.73633 388.04297 C 421.23632 385.48047 422.39256 383.04296 423.20508 380.73047 C 423.80688 379.05878 424.1829 377.49431 424.35547 376.0293 z M 308.00977 385.36523 C 307.43164 386.0957 306.87695 386.83203 306.3457 387.57422 C 304.25195 390.54296 302.61133 393.49609 301.42383 396.43359 C 300.23633 399.33985 299.64258 401.98046 299.64258 404.35547 C 299.64258 405.13672 299.83008 405.94923 300.20508 406.79297 C 300.58008 407.63671 301.08008 408.48045 301.70508 409.32422 C 302.33008 410.13672 303.0332 410.94922 303.81445 411.76172 C 304.5957 412.54297 305.4082 413.29298 306.25195 414.01172 C 306.62695 414.3555 307.11133 414.62113 307.70508 414.80859 C 308.29883 414.99611 308.92383 415.13674 309.58008 415.23047 C 310.23633 415.29296 310.89258 415.33985 311.54883 415.37109 L 313.37695 415.37109 C 315.12695 415.37109 316.7207 415.30857 318.1582 415.18359 C 319.5957 415.05857 321.00195 414.91794 322.37695 414.76172 C 323.75196 414.57418 325.17383 414.41795 326.64258 414.29297 C 328.11133 414.13675 329.75195 414.04296 331.56445 414.01172 C 330.75195 416.91797 329.43945 419.48048 327.62695 421.69922 C 325.81445 423.88673 323.7207 425.77734 321.3457 427.37109 C 318.9707 428.96484 316.4082 430.29297 313.6582 431.35547 C 310.93945 432.3867 308.23633 433.18357 305.54883 433.74609 C 302.86133 434.30861 300.29883 434.65237 297.86133 434.77734 C 295.45508 434.90232 293.39258 434.8398 291.67383 434.58984 C 291.83008 434.90234 292.12695 435.35545 292.56445 435.94922 C 293.00195 436.54296 293.51758 437.1992 294.11133 437.91797 C 294.67383 438.63671 295.2832 439.38672 295.93945 440.16797 C 296.62084 440.94227 297.27065 441.66936 297.89062 442.35156 C 297.61238 442.23341 297.33577 442.15234 297.06445 442.15234 C 296.15574 442.15234 295.2641 442.35631 294.38672 442.76367 C 293.525 443.15536 292.68581 443.7187 291.87109 444.45508 C 291.07205 445.19146 290.3125 446.07727 289.5918 447.11133 C 288.87109 448.14538 288.21255 449.29734 287.61719 450.56641 C 287.02182 451.81982 286.48956 453.17378 286.01953 454.63086 C 285.56517 456.08794 285.19803 457.6012 284.91602 459.16797 C 283.4746 460.3117 282.07206 461.48696 280.70898 462.69336 C 279.36157 463.88409 278.16301 465.12151 277.11328 466.40625 C 276.06356 467.67531 275.22436 468.99821 274.59766 470.37695 C 274.25815 471.09738 274.01341 471.83635 273.85352 472.5918 C 271.41538 464.21856 270.55477 455.25498 271.95703 445.72656 C 274.94986 425.39018 286.72982 402.64108 308.00977 385.36523 z M 422.45508 391.37109 C 422.17383 391.37109 421.76758 391.73048 421.23633 392.44922 C 420.70508 393.16798 420.18946 394.02736 419.68945 395.02734 C 419.18945 395.99609 418.75196 397.01172 418.37695 398.07422 C 418.00197 399.10548 417.81445 399.94922 417.81445 400.60547 C 417.81445 400.76171 418.08008 401.02734 418.61133 401.40234 C 419.14258 401.77735 419.76759 402.16797 420.48633 402.57422 C 421.23634 402.94922 422.00197 403.29298 422.7832 403.60547 C 423.59573 403.91799 424.28321 404.08985 424.8457 404.12109 C 425.03319 404.12109 425.26758 403.9336 425.54883 403.55859 C 425.86134 403.15234 426.18947 402.65236 426.5332 402.05859 C 426.87696 401.46486 427.22072 400.82421 427.56445 400.13672 C 427.93946 399.41795 428.26758 398.74608 428.54883 398.12109 C 428.83013 397.46484 429.06449 396.90236 429.25195 396.43359 C 429.47066 395.93356 429.59571 395.62107 429.62695 395.49609 C 429.62695 395.3086 429.34572 394.99609 428.7832 394.55859 C 428.25195 394.08983 427.61131 393.62108 426.86133 393.15234 C 426.11132 392.68358 425.33008 392.27733 424.51758 391.93359 C 423.70508 391.55859 423.01757 391.37109 422.45508 391.37109 z M 445.75195 428.02734 C 445.37692 429.24609 445.09567 430.27733 444.9082 431.12109 C 444.72074 431.93359 444.59569 432.63673 444.5332 433.23047 C 444.47071 433.79296 444.43945 434.26171 444.43945 434.63672 C 444.4707 434.98053 444.48633 435.27739 444.48633 435.52734 C 444.48633 436.18357 444.67382 436.77734 445.04883 437.30859 C 445.42381 437.83984 445.89256 438.29296 446.45508 438.66797 C 447.01757 439.07427 447.62695 439.38676 448.2832 439.60547 C 448.4408 439.6556 448.58335 439.6801 448.73438 439.71875 L 448.2832 441.66797 L 447.24414 440 L 446.00391 441.00781 L 447.7793 443.85156 L 447.27539 446.0332 L 444.76562 442.01367 L 443.5293 443.02344 L 446.77148 448.21484 L 446.3125 450.19727 A 5.5432917 5.5432917 0 0 0 442.37695 451.40039 L 440.88867 450.01172 L 440.67578 443.89453 L 439.08398 443.75 L 439.25 448.48438 L 437.61328 446.95508 L 437.49414 443.60742 L 435.90625 443.46289 L 435.97461 445.42773 L 433.65039 443.25781 L 432.57031 444.41797 L 434.89453 446.58789 L 432.92969 446.6543 L 433.18164 448.23047 L 436.53125 448.11523 L 438.16992 449.64258 L 433.43555 449.80664 L 433.6875 451.38281 L 439.80664 451.17188 L 441.29688 452.56055 A 5.5432917 5.5432917 0 0 0 440.36914 456.56836 L 438.42188 457.16211 L 433.01562 454.28711 L 432.09961 455.59375 L 436.28125 457.81641 L 434.13867 458.4707 L 431.17773 456.89844 L 430.25977 458.20312 L 431.99609 459.125 L 428.95703 460.05469 L 429.41797 461.57031 L 432.45898 460.64258 L 431.5332 462.37695 L 433.02539 462.94531 L 434.60156 459.98828 L 436.74219 459.33398 L 434.51562 463.51367 L 436.00977 464.08203 L 438.88477 458.67969 L 440.83203 458.08398 A 5.5432917 5.5432917 0 0 0 443.83984 460.89062 L 443.38281 462.875 L 438.19141 466.11719 L 438.85938 467.56641 L 442.87891 465.05664 L 442.37305 467.23828 L 439.53125 469.01367 L 440.20312 470.46484 L 441.86914 469.41992 L 441.46484 471.16797 C 440.32905 470.53772 439.25778 469.97116 438.29297 469.51172 C 437.57075 471.12283 436.90409 472.80274 436.29297 474.55273 C 435.65408 476.27496 435.07074 477.97005 434.54297 479.63672 C 434.17686 480.79288 433.84781 481.90286 433.53516 482.99219 C 432.44686 484.00546 431.35592 485.01641 430.25 486.01172 C 428.86112 487.26171 427.41603 488.3715 425.91602 489.34375 C 424.41602 490.31597 422.84786 491.10765 421.20898 491.71875 C 419.59787 492.32987 417.87436 492.63672 416.04102 492.63672 C 415.01324 492.63672 414.3049 492.4833 413.91602 492.17773 C 413.55492 491.87217 413.375 491.28884 413.375 490.42773 C 413.375 489.78884 413.4166 489.13541 413.5 488.46875 C 415.94445 487.38541 418.18122 486.31729 420.20898 485.26172 C 422.23678 484.17838 423.97158 483.12153 425.41602 482.09375 C 426.86048 481.066 427.97222 480.066 428.75 479.09375 C 429.55554 478.09376 429.95898 477.12219 429.95898 476.17773 C 429.95898 475.5944 429.73546 474.9145 429.29102 474.13672 C 428.87436 473.33118 428.31945 472.56599 427.625 471.84375 C 426.93055 471.12153 426.15212 470.51173 425.29102 470.01172 C 424.45768 469.51174 423.6111 469.26172 422.75 469.26172 C 421.55554 469.26172 420.25065 469.45486 418.83398 469.84375 C 417.41732 470.23264 415.98545 470.81597 414.54102 471.59375 C 413.12435 472.37153 411.74936 473.34505 410.41602 474.51172 C 409.11047 475.67838 407.9438 477.02495 406.91602 478.55273 C 405.88824 480.08052 405.07011 481.8021 404.45898 483.71875 C 404.32159 484.12498 404.20551 484.54454 404.09766 484.96875 C 403.78851 485.14613 403.47896 485.32271 403.16602 485.46875 C 402.36045 485.83 401.52712 486.09517 400.66602 486.26172 C 399.80489 486.40055 398.90341 486.46875 397.95898 486.46875 L 397.79102 486.46875 C 398.59658 485.32985 399.25002 484.19163 399.75 483.05273 C 400.27785 481.91386 400.61117 480.81729 400.75 479.76172 C 400.44444 479.17839 400.12434 478.59505 399.79102 478.01172 C 399.48545 477.42839 399.15214 476.87152 398.79102 476.34375 C 398.45769 475.78818 398.1111 475.30337 397.75 474.88672 C 397.41665 474.46999 397.08333 474.13667 396.75 473.88672 C 396.08334 474.52561 395.41666 475.24717 394.75 476.05273 C 394.11111 476.85828 393.5278 477.72003 393 478.63672 C 392.47223 479.55338 392.04231 480.52495 391.70898 481.55273 C 391.37566 482.58051 391.20898 483.62219 391.20898 484.67773 L 391.20898 485.13672 C 391.20898 485.30332 391.22228 485.48321 391.25 485.67773 C 390.75002 486.39995 390.22158 487.09506 389.66602 487.76172 C 389.11045 488.40061 388.56879 488.96874 388.04102 489.46875 C 387.51324 489.96876 387.00001 490.3722 386.5 490.67773 C 386.02779 490.95553 385.61112 491.09375 385.25 491.09375 C 384.8889 491.09375 384.65213 490.9687 384.54102 490.71875 C 384.4299 490.44098 384.375 489.91452 384.375 489.13672 C 384.375 488.63674 384.4299 487.9833 384.54102 487.17773 C 384.67988 486.3444 384.86175 485.38607 385.08398 484.30273 C 385.33399 483.21942 385.62566 482.0395 385.95898 480.76172 C 386.29234 479.48394 386.66733 478.15062 387.08398 476.76172 C 389.41731 474.70616 391.70898 472.64931 393.95898 470.59375 C 396.23678 468.53819 398.41667 466.48329 400.5 464.42773 C 402.58333 462.34441 404.5284 460.27431 406.33398 458.21875 C 408.13954 456.16319 409.73612 454.13672 411.125 452.13672 C 412.54167 450.10895 413.72156 448.10895 414.66602 446.13672 C 415.63824 444.13672 416.29167 442.16319 416.625 440.21875 C 416.40279 439.49651 416.01455 438.80338 415.45898 438.13672 C 415.45492 438.13164 415.44938 438.12811 415.44531 438.12305 C 416.01272 437.79629 416.59902 437.43137 417.20508 437.02734 C 418.45507 436.21485 419.72069 435.29298 421.00195 434.26172 C 422.04518 433.44202 423.03768 432.62242 424.00195 431.80273 C 423.94885 432.01935 423.89613 432.23636 423.86133 432.43359 C 423.67386 433.49612 423.58008 434.12113 423.58008 434.30859 C 423.58008 434.96485 423.76757 435.62109 424.14258 436.27734 C 424.48634 436.9336 424.90822 437.51171 425.4082 438.01172 C 425.90821 438.54297 426.42383 438.96485 426.95508 439.27734 C 427.45508 439.58986 427.86134 439.74609 428.17383 439.74609 L 428.45508 439.74609 C 428.54881 439.74609 428.67386 439.71483 428.83008 439.65234 C 430.14258 439.21485 431.56444 438.5586 433.0957 437.68359 C 434.65819 436.83985 436.20507 435.88672 437.73633 434.82422 C 439.26757 433.76172 440.72069 432.63672 442.0957 431.44922 C 443.50194 430.26172 444.7207 429.12109 445.75195 428.02734 z M 466.29688 429.08594 C 466.53441 429.75747 466.77377 430.42897 466.99609 431.10352 C 473.08807 449.58715 473.22175 467.46766 466.57227 484.0918 C 466.10873 484.49369 465.66308 484.87988 465.125 485.34375 C 464.34722 486.01043 463.52714 486.69229 462.66602 487.38672 C 461.80491 488.08117 460.97158 488.7194 460.16602 489.30273 C 459.38824 489.88607 458.69508 490.35763 458.08398 490.71875 C 457.47286 491.07985 457.01452 491.26172 456.70898 491.26172 C 456.54218 491.26172 456.45898 491.17827 456.45898 491.01172 C 456.45898 490.70616 456.55548 490.21939 456.75 489.55273 C 456.94444 488.88605 457.19444 488.10762 457.5 487.21875 C 457.80556 486.32986 458.15213 485.38673 458.54102 484.38672 C 458.9299 483.35894 459.3201 482.34374 459.70898 481.34375 C 460.09787 480.31597 460.45769 479.33117 460.79102 478.38672 C 461.15211 477.44227 461.44378 476.62216 461.66602 475.92773 C 461.7217 475.73329 461.7633 475.57987 461.79102 475.46875 C 461.81873 475.32992 461.83398 475.22012 461.83398 475.13672 C 461.83398 474.72006 461.55557 474.2333 461 473.67773 C 460.47223 473.12219 459.83399 472.58053 459.08398 472.05273 C 458.36177 471.52496 457.63823 471.07985 456.91602 470.71875 C 456.19377 470.35763 455.65211 470.17773 455.29102 470.17773 C 454.98545 470.17773 454.55557 470.31598 454 470.59375 C 453.47223 470.84375 452.76389 471.33052 451.875 472.05273 C 451.0139 472.77498 449.9438 473.77495 448.66602 475.05273 C 447.41603 476.30272 445.91601 477.92773 444.16602 479.92773 C 444.49934 478.95551 444.83269 478.01041 445.16602 477.09375 C 445.49934 476.17706 445.83269 475.27559 446.16602 474.38672 C 445.15476 473.4905 444.06355 472.69476 442.90039 471.98828 L 443.41211 469.77734 L 444.45117 471.44727 L 445.69141 470.4375 L 443.91602 467.5957 L 444.42188 465.41406 L 446.93164 469.43164 L 448.16797 468.42188 L 444.92578 463.23047 L 445.38281 461.24805 A 5.5432917 5.5432917 0 0 0 449.31836 460.04688 L 450.80859 461.43555 L 451.01953 467.55078 L 452.61133 467.69727 L 452.44531 462.96289 L 454.08203 464.49023 L 454.20117 467.83984 L 455.79102 467.98438 L 455.7207 466.01953 L 458.04492 468.1875 L 459.125 467.02734 L 456.80078 464.85938 L 458.76562 464.79297 L 458.51367 463.2168 L 455.16406 463.33008 L 453.52539 461.80273 L 458.25977 461.64062 L 458.00781 460.06445 L 451.88867 460.27539 L 450.40039 458.88672 A 5.5432917 5.5432917 0 0 0 451.32617 454.87891 L 453.27344 454.2832 L 458.67969 457.1582 L 459.59766 455.85352 L 455.41602 453.62891 L 457.55664 452.97461 L 460.51758 454.54883 L 461.43555 453.24219 L 459.69922 452.32031 L 462.74023 451.39258 L 462.27734 449.875 L 459.23633 450.80469 L 460.16211 449.06836 L 458.66992 448.50195 L 457.0957 451.45898 L 454.95312 452.11328 L 457.17969 447.93164 L 455.68555 447.36523 L 452.81055 452.76758 L 450.86328 453.36133 A 5.5432917 5.5432917 0 0 0 447.85547 450.55469 L 448.31445 448.57227 L 453.50391 445.33008 L 452.83594 443.88086 L 448.81836 446.39062 L 449.32227 444.20703 L 452.16406 442.43359 L 451.49414 440.98242 L 449.82617 442.02539 L 450.3125 439.92188 C 451.09169 439.89156 451.99027 439.6357 453.01758 439.13672 C 454.11135 438.63671 455.26758 437.98047 456.48633 437.16797 C 457.70507 436.35547 458.95509 435.4336 460.23633 434.40234 C 461.51759 433.33984 462.75195 432.27734 463.93945 431.21484 C 464.79087 430.47259 465.53697 429.78244 466.29688 429.08594 z M 406.18945 429.48047 C 405.90816 430.44924 405.65816 431.38674 405.43945 432.29297 C 405.22067 433.16798 405.03317 433.96485 404.87695 434.68359 C 404.87695 435.1378 405.03813 435.60359 405.34375 436.07812 C 403.87001 436.76564 402.1929 437.82629 400.29102 439.30273 C 398.20769 440.91385 395.88955 443.13541 393.33398 445.96875 C 390.80621 448.80209 388.16603 452.46874 385.41602 456.96875 C 383.33266 460.38542 381.61111 463.73394 380.25 467.01172 C 378.91668 470.2895 377.86177 473.3444 377.08398 476.17773 C 376.33885 478.86554 375.81562 481.2773 375.50391 483.42969 C 375.48389 483.44636 375.47931 483.45182 375.45898 483.46875 C 374.82009 484.02429 374.09657 484.63605 373.29102 485.30273 C 372.48546 485.94163 371.63889 486.60831 370.75 487.30273 C 369.86111 487.99718 369.01454 488.62217 368.20898 489.17773 C 367.40343 489.7333 366.6799 490.19164 366.04102 490.55273 C 365.4299 490.91386 364.97157 491.09375 364.66602 491.09375 C 364.49934 491.09375 364.41602 491.0103 364.41602 490.84375 C 364.41602 490.51042 364.49934 489.98394 364.66602 489.26172 C 364.86046 488.51171 365.09722 487.6632 365.375 486.71875 C 365.68055 485.74653 366.01389 484.70486 366.375 483.59375 C 366.73611 482.48264 367.09787 481.38607 367.45898 480.30273 C 367.84787 479.19163 368.22287 478.13673 368.58398 477.13672 C 368.9451 476.10894 369.26324 475.21876 369.54102 474.46875 C 369.59657 474.32994 369.63825 474.16327 369.66602 473.96875 C 369.69381 473.74661 369.70898 473.59512 369.70898 473.51172 C 369.65343 473.31727 369.33333 472.98396 368.75 472.51172 C 368.16667 472.01171 367.5 471.52495 366.75 471.05273 C 366.45538 470.84877 366.16831 470.66507 365.88281 470.48438 L 374.12695 467.77734 C 375.5957 463.02733 377.00196 458.55858 378.3457 454.37109 C 379.65821 450.21485 380.93944 446.30861 382.18945 442.65234 C 386.53319 441.46484 390.65821 439.8086 394.56445 437.68359 C 398.50196 435.58986 402.37694 432.85549 406.18945 429.48047 z M 376.38281 429.52539 C 375.13566 432.83041 373.88521 436.20791 372.62695 439.74609 L 363.95508 440.73047 L 364.6582 445.51172 C 365.7207 445.41799 366.76758 445.3242 367.79883 445.23047 C 368.83008 445.13674 369.83008 445.01169 370.79883 444.85547 C 369.33008 449.10547 367.86133 453.44923 366.39258 457.88672 C 364.92383 462.35548 363.4082 466.9961 361.8457 471.80859 L 362.08984 471.72852 L 361.70898 472.80273 C 360.20898 475.63607 358.76389 478.06596 357.375 480.09375 C 355.98611 482.09375 354.73611 483.73394 353.625 485.01172 C 352.54166 486.2895 351.625 487.23265 350.875 487.84375 C 350.12499 488.42708 349.63823 488.71875 349.41602 488.71875 C 349.3049 488.71875 349.25 488.66385 349.25 488.55273 C 349.25 488.13608 349.38824 487.49782 349.66602 486.63672 C 349.9438 485.74782 350.29232 484.76107 350.70898 483.67773 C 351.15343 482.5944 351.625 481.4694 352.125 480.30273 C 352.65278 479.10828 353.13954 478.01171 353.58398 477.01172 C 354.05621 475.98394 354.45768 475.10894 354.79102 474.38672 C 355.15213 473.66455 355.37566 473.20624 355.45898 473.01172 C 355.45898 472.87283 355.13889 472.62281 354.5 472.26172 C 353.86111 471.87283 353.09787 471.46941 352.20898 471.05273 C 351.34787 470.63608 350.45768 470.26109 349.54102 469.92773 C 348.62435 469.56671 347.90278 469.34512 347.375 469.26172 L 347.125 469.26172 C 347.09723 469.234 347.05556 469.2889 347 469.42773 C 345.94444 472.12218 344.95768 474.69227 344.04102 477.13672 C 343.12435 479.58117 342.33268 481.78949 341.66602 483.76172 C 340.97157 485.73393 340.42991 487.42708 340.04102 488.84375 C 339.62435 490.26042 339.41602 491.27559 339.41602 491.88672 C 339.41602 492.41449 339.61111 492.9694 340 493.55273 C 340.36111 494.13607 340.81944 494.66448 341.375 495.13672 C 341.90278 495.60893 342.48611 495.99717 343.125 496.30273 C 343.76389 496.63606 344.34722 496.80273 344.875 496.80273 C 345.125 496.80273 345.40343 496.76114 345.70898 496.67773 C 346.01455 496.62205 346.27779 496.52555 346.5 496.38672 C 346.86111 496.13672 347.41601 495.72005 348.16602 495.13672 C 348.91602 494.58115 349.79102 493.8444 350.79102 492.92773 C 351.79102 492.01105 352.88954 490.91448 354.08398 489.63672 C 355.27843 488.33114 356.5 486.83116 357.75 485.13672 C 357.27778 486.80339 356.87435 488.26173 356.54102 489.51172 C 356.20768 490.76173 356.04102 491.60829 356.04102 492.05273 C 356.04102 492.55272 356.20768 493.08115 356.54102 493.63672 C 356.90213 494.19228 357.33398 494.69227 357.83398 495.13672 C 358.36176 495.60893 358.91667 495.98395 359.5 496.26172 C 360.08333 496.56728 360.61176 496.71875 361.08398 496.71875 C 361.72288 496.71875 362.52778 496.49718 363.5 496.05273 C 364.47222 495.60829 365.51389 495.0382 366.625 494.34375 C 367.73611 493.62153 368.87435 492.81663 370.04102 491.92773 C 371.23546 491.01107 372.37565 490.0944 373.45898 489.17773 C 374.01689 488.70351 374.54972 488.24031 375.05859 487.78711 C 375.03827 488.1829 375 488.63207 375 488.96875 C 375 489.49652 375.25 490.20486 375.75 491.09375 C 376.25 491.98264 376.88824 492.85765 377.66602 493.71875 C 378.4438 494.55209 379.29232 495.27562 380.20898 495.88672 C 381.15344 496.49784 382.05491 496.80273 382.91602 496.80273 C 383.83268 496.80273 384.791 496.62284 385.79102 496.26172 C 386.8188 495.92839 387.86047 495.44163 388.91602 494.80273 C 389.97159 494.19164 391.01326 493.47005 392.04102 492.63672 C 393.09659 491.77559 394.08334 490.85894 395 489.88672 C 395.19457 489.9424 395.37446 489.96875 395.54102 489.96875 L 396.16602 489.96875 C 397.41603 489.96875 398.61113 489.87225 399.75 489.67773 C 400.91666 489.48329 402.07009 489.14995 403.20898 488.67773 C 403.32367 488.63018 403.43806 488.57409 403.55273 488.52344 C 403.52289 488.99755 403.5 489.47647 403.5 489.96875 C 403.5 490.57987 403.76324 491.31663 404.29102 492.17773 C 404.81881 493.03884 405.48547 493.85894 406.29102 494.63672 C 407.06879 495.44229 407.91732 496.12217 408.83398 496.67773 C 409.75067 497.23327 410.584 497.51172 411.33398 497.51172 C 413.11177 497.51172 414.9299 497.2882 416.79102 496.84375 C 418.6799 496.3993 420.65343 495.6645 422.70898 494.63672 C 424.76454 493.60894 426.91601 492.24717 429.16602 490.55273 C 430.13936 489.82867 431.14391 489.01556 432.16797 488.14453 C 432.14478 488.24237 432.10628 488.37288 432.08398 488.46875 C 431.80616 489.63541 431.59782 490.60894 431.45898 491.38672 C 431.29218 492.1646 431.20898 492.63618 431.20898 492.80273 C 431.70899 493.33053 432.27712 493.85895 432.91602 494.38672 C 433.52714 494.91449 434.15215 495.38605 434.79102 495.80273 C 435.40214 496.24721 436.00065 496.5938 436.58398 496.84375 C 437.19511 497.12155 437.73677 497.26172 438.20898 497.26172 C 438.59792 497.26172 438.86117 497.14997 439 496.92773 C 439.13901 496.70552 439.29243 496.40061 439.45898 496.01172 C 440.79233 492.87282 442.15409 490.16451 443.54297 487.88672 C 444.93187 485.58118 446.25001 483.62283 447.5 482.01172 C 448.75002 480.37281 449.86176 479.0395 450.83398 478.01172 C 451.83397 476.95617 452.59723 476.10764 453.125 475.46875 L 453.20898 475.38672 C 452.709 476.63671 452.18057 478.0117 451.625 479.51172 C 451.09723 480.98395 450.58399 482.48396 450.08398 484.01172 C 449.58398 485.51174 449.11046 486.9833 448.66602 488.42773 C 448.24931 489.87219 447.91597 491.16386 447.66602 492.30273 C 447.66602 492.80274 447.87436 493.31598 448.29102 493.84375 C 448.7077 494.37152 449.20768 494.84504 449.79102 495.26172 C 450.40211 495.70617 451.02712 496.06598 451.66602 496.34375 C 452.30491 496.64931 452.83332 496.80273 453.25 496.80273 C 453.88889 496.80273 454.68057 496.58117 455.625 496.13672 C 456.56945 495.69227 457.58268 495.10894 458.66602 494.38672 C 459.74935 493.6645 460.86113 492.84442 462 491.92773 C 462.52315 491.5167 463.03226 491.10635 463.5332 490.69531 C 456.51268 504.16178 444.77677 516.71058 427.80273 527.96094 C 424.59097 525.72533 420.73408 524.29695 416.35742 523.51758 L 415.80469 517.19141 L 426.04688 515.59766 L 416.48242 511.13672 L 420.22266 501.4707 L 411.57812 507.52344 L 405.07617 499.45117 L 405.99609 509.96289 L 395.75391 511.55859 L 405.31836 516.01758 L 402.63086 522.96289 C 399.90931 523.14392 397.08102 523.45904 394.14648 523.90625 C 377.8769 519.84443 365.05864 520.96023 356.43359 528.36523 C 348.18844 523.969 339.94438 526.03959 331.69922 527.55469 L 321.35156 529.18359 L 322.7207 523.6875 L 331.41016 525.24219 L 324.94336 519.00195 L 330.63281 512.25391 L 321.99609 514.73242 L 318.99805 506.43164 L 316.82617 515.15039 L 308.13672 513.59766 L 314.60352 519.83789 L 311.25781 523.80469 C 304.96268 518.44231 298.56897 512.37953 292.79102 505.65625 C 292.79668 505.65588 292.80296 505.65672 292.80859 505.65625 C 293.69748 505.57297 294.43424 505.43475 295.01758 505.24023 C 295.62869 505.04582 296.14193 504.83747 296.55859 504.61523 C 298.19749 503.72634 299.89258 502.25478 301.64258 500.19922 C 303.42036 498.17145 305.18359 495.76804 306.93359 492.99023 C 308.71138 490.18469 310.44813 487.10134 312.14258 483.74023 C 313.8648 480.3791 315.50304 476.92079 317.05859 473.36523 C 318.61415 469.78189 320.05924 466.19855 321.39258 462.61523 C 322.72591 459.00412 323.90581 455.58746 324.93359 452.36523 C 326.85026 450.67077 328.7385 449.08746 330.59961 447.61523 C 332.4885 446.14301 334.29536 444.85134 336.01758 443.74023 C 337.76758 442.60134 339.41905 441.65623 340.97461 440.90625 C 342.55794 440.15624 344.00304 439.643 345.30859 439.36523 C 346.0586 439.25412 346.65516 439.24082 347.09961 439.32422 C 347.57183 439.37983 347.93359 439.5313 348.18359 439.78125 C 348.4336 440.03125 348.60027 440.36457 348.68359 440.78125 C 348.76692 441.17014 348.80859 441.62848 348.80859 442.15625 C 348.80859 443.51736 348.58702 445.01737 348.14258 446.65625 C 347.72591 448.26736 347.04406 449.9492 346.09961 451.69922 C 345.18294 453.44922 343.9898 455.22569 342.51758 457.03125 C 341.04535 458.83681 339.25369 460.60199 337.14258 462.32422 C 335.03147 464.01866 332.57314 465.62846 329.76758 467.15625 C 326.9898 468.68404 323.83637 470.05903 320.30859 471.28125 C 320.72526 473.94791 321.19683 476.62977 321.72461 479.32422 C 322.28016 481.99088 322.85026 484.58744 323.43359 487.11523 C 324.04471 489.61522 324.65647 492.00345 325.26758 494.28125 C 325.87869 496.53125 326.44683 498.55968 326.97461 500.36523 C 327.50239 502.19856 327.97591 503.76864 328.39258 505.07422 C 328.80926 506.37977 329.1274 507.33812 329.34961 507.94922 C 330.12739 507.75477 331.03082 507.48958 332.05859 507.15625 C 333.11415 506.85069 334.18424 506.51735 335.26758 506.15625 C 336.35091 505.82292 337.40581 505.4896 338.43359 505.15625 C 339.46137 504.82287 340.34961 504.5312 341.09961 504.28125 C 340.2385 502.80905 339.26693 501.12914 338.18359 499.24023 C 337.12804 497.37912 336.00304 495.35069 334.80859 493.15625 C 333.64193 490.93404 332.44683 488.57423 331.22461 486.07422 C 330.03016 483.57421 328.8635 480.94923 327.72461 478.19922 C 332.30795 476.25478 336.25304 473.97636 339.55859 471.36523 C 342.86415 468.75414 345.57248 466.00413 347.68359 463.11523 C 349.82249 460.22634 351.39258 457.26801 352.39258 454.24023 C 353.42036 451.18466 353.93359 448.23959 353.93359 445.40625 C 353.90581 444.82292 353.72591 444.17144 353.39258 443.44922 C 353.08702 442.69923 352.67036 441.94923 352.14258 441.19922 C 351.79759 440.66257 351.39894 440.14301 350.97461 439.63281 C 351.30474 439.69947 351.63235 439.74609 351.95508 439.74609 C 353.08008 439.74609 354.26758 439.5586 355.51758 439.18359 C 356.76758 438.80859 358.01758 438.27734 359.26758 437.58984 C 360.54883 436.90235 361.79883 436.08984 363.01758 435.15234 C 364.23633 434.21484 365.37695 433.18361 366.43945 432.05859 C 367.81445 432.05859 369.1582 431.94918 370.4707 431.73047 C 371.7832 431.48047 373.06445 431.08984 374.31445 430.55859 C 375.00862 430.27077 375.69782 429.9233 376.38281 429.52539 z M 410.50781 439.66016 C 410.65136 439.69382 410.78664 439.71703 410.91406 439.72852 C 411.02224 439.81948 411.08398 439.97648 411.08398 440.21875 C 411.08398 441.49653 410.54232 443.14997 409.45898 445.17773 C 408.37565 447.17773 406.88888 449.42773 405 451.92773 C 403.11109 454.42774 400.8611 457.12282 398.25 460.01172 C 395.63888 462.87282 392.8188 465.7743 389.79102 468.71875 C 390.42991 466.96875 391.09657 465.30209 391.79102 463.71875 C 392.48547 462.13543 393.1938 460.67709 393.91602 459.34375 C 396.0549 455.45484 398.04165 452.24652 399.875 449.71875 C 401.73611 447.16318 403.38955 445.14996 404.83398 443.67773 C 406.30621 442.17774 407.54103 441.13607 408.54102 440.55273 C 409.43341 440.00741 410.07997 439.71873 410.50781 439.66016 z M 317.06055 441.68555 C 316.21267 445.13042 315.19128 448.7381 313.97461 452.53125 C 311.75239 454.78125 309.58572 457.143 307.47461 459.61523 C 305.39128 462.08745 303.39128 464.60068 301.47461 467.15625 C 299.58572 469.68402 297.80925 472.24089 296.14258 474.82422 C 295.54805 475.75127 294.99583 476.66179 294.44141 477.57422 C 294.3952 477.50939 294.36413 477.4719 294.31641 477.4043 C 293.95605 476.85591 293.55588 476.23622 293.11719 475.54688 C 292.69416 474.85749 292.27068 474.1135 291.84766 473.31445 C 292.6937 472.67208 293.48628 472.02909 294.22266 471.38672 C 294.95903 470.74435 295.60007 470.14216 296.14844 469.57812 C 296.6968 468.99844 297.13582 468.48169 297.46484 468.02734 C 297.80952 467.55732 297.99795 467.16494 298.0293 466.85156 L 298.0293 466.52148 C 298.0293 466.2708 298.01377 465.92696 297.98242 465.48828 C 297.95108 465.04958 297.90446 464.57949 297.8418 464.07812 C 297.79478 463.57678 297.73068 463.07556 297.65234 462.57422 C 297.58968 462.05718 297.51974 461.59486 297.44141 461.1875 C 297.37874 460.7645 297.30881 460.42844 297.23047 460.17773 C 297.15213 459.9114 297.08024 459.77734 297.01758 459.77734 C 296.98624 459.77734 296.80753 460.03572 296.47852 460.55273 C 296.1495 461.0541 295.67939 461.73595 295.06836 462.59766 C 294.45732 463.44372 293.71332 464.415 292.83594 465.51172 C 291.95856 466.60846 290.95424 467.74487 289.82617 468.91992 C 289.46581 467.93289 289.1686 466.93828 288.93359 465.93555 C 288.71426 464.93281 288.60547 463.95181 288.60547 462.99609 L 288.60547 462.2207 C 288.62119 461.93867 288.63672 461.657 288.65234 461.375 C 289.67073 460.4976 290.69641 459.62929 291.73047 458.76758 C 292.7802 457.90587 293.78256 457.05114 294.73828 456.20508 C 295.70967 455.35904 296.61103 454.52956 297.44141 453.71484 C 298.27179 452.88446 298.99248 452.06081 299.60352 451.24609 C 300.23022 450.43138 300.71586 449.62521 301.06055 448.82617 C 301.4209 448.01146 301.60156 447.20334 301.60156 446.4043 C 301.60156 446.29469 301.57824 446.19359 301.53125 446.09961 C 301.49991 446.00563 301.46105 445.91234 301.41406 445.81836 C 301.37152 445.75454 301.30058 445.66696 301.25391 445.59961 C 303.83231 445.58442 306.54397 445.19936 309.39258 444.43359 C 311.99977 443.76076 314.55395 442.83621 317.06055 441.68555 z M 297.55859 444.75977 C 297.74661 444.75977 297.8418 444.855 297.8418 445.04297 C 297.8418 445.92035 297.62229 446.78868 297.18359 447.65039 C 296.76057 448.51212 296.17196 449.38239 295.41992 450.25977 C 294.66788 451.12147 293.79179 451.98978 292.78906 452.86719 C 291.80201 453.72889 290.7433 454.60695 289.61523 455.5 C 289.95992 454.13693 290.3834 452.81403 290.88477 451.5293 C 291.40179 450.22889 291.98845 449.08472 292.64648 448.09766 C 293.32019 447.09492 294.06419 446.2868 294.87891 445.67578 C 295.69362 445.06473 296.5872 444.75977 297.55859 444.75977 z M 445.88281 451.76562 A 3.9595045 3.9595045 0 0 1 446.62695 451.8418 A 3.9595045 3.9595045 0 0 1 449.70508 456.61523 A 3.9595045 3.9595045 0 1 1 441.99023 454.83203 A 3.9595045 3.9595045 0 0 1 445.88281 451.76562 z M 284.32812 465.41797 L 284.32812 465.8418 C 284.32813 467.14221 284.43691 468.37963 284.65625 469.55469 C 284.8756 470.7141 285.15727 471.8097 285.50195 472.84375 C 284.78125 473.39211 284.09359 473.87775 283.43555 474.30078 C 282.77751 474.70814 282.17336 475.05391 281.625 475.33594 C 281.07663 475.61784 280.59876 475.8296 280.19141 475.9707 C 279.78404 476.11181 279.47906 476.18164 279.27539 476.18164 C 279.15004 476.18164 279.05485 476.14282 278.99219 476.06445 C 278.9452 475.97047 278.92188 475.88305 278.92188 475.80469 C 278.92188 474.88029 279.05592 473.97313 279.32227 473.08008 C 279.58861 472.18703 279.96352 471.30897 280.44922 470.44727 C 280.93491 469.56989 281.50798 468.71515 282.16602 467.88477 C 282.82405 467.05438 283.54477 466.23268 284.32812 465.41797 z M 307.51758 470.32422 C 306.04535 473.9631 304.5586 477.40623 303.05859 480.65625 C 301.55859 483.90624 300.12869 486.75477 298.76758 489.19922 C 297.43424 491.64367 296.22591 493.57357 295.14258 494.99023 C 294.05924 496.4069 293.19748 497.11523 292.55859 497.11523 C 292.28082 497.11523 292.14258 496.94856 292.14258 496.61523 C 292.14258 495.25413 292.53081 493.61589 293.30859 491.69922 C 294.08637 489.75478 295.15647 487.64303 296.51758 485.36523 C 297.90647 483.0597 299.53147 480.62978 301.39258 478.07422 C 303.28147 475.51865 305.32313 472.93532 307.51758 470.32422 z M 421.75 473.84375 C 422.05561 473.84375 422.27718 473.9422 422.41602 474.13672 C 422.58257 474.33121 422.66602 474.55278 422.66602 474.80273 C 422.66602 475.66384 422.43122 476.52559 421.95898 477.38672 C 421.48677 478.24782 420.86176 479.0944 420.08398 479.92773 C 419.30621 480.7333 418.41603 481.51173 417.41602 482.26172 C 416.4438 483.01173 415.4438 483.72006 414.41602 484.38672 C 414.86046 483.02561 415.38888 481.71874 416 480.46875 C 416.6111 479.19097 417.24933 478.06597 417.91602 477.09375 C 418.58267 476.12153 419.24936 475.34505 419.91602 474.76172 C 420.5827 474.15059 421.19446 473.84375 421.75 473.84375 z M 287.07812 476.62891 C 287.48548 477.44362 287.85262 478.10215 288.18164 478.60352 C 288.51066 479.1204 288.71463 479.44093 288.79297 479.56641 C 289.16899 479.59815 289.68571 479.6216 290.34375 479.63672 C 291.01746 479.65184 291.70707 479.66016 292.41211 479.66016 C 292.69433 479.66016 292.94268 479.64737 293.21289 479.64258 C 292.69085 480.54077 292.1656 481.44054 291.68359 482.32422 C 290.32248 484.74087 289.14258 487.05901 288.14258 489.28125 C 287.14258 491.50349 286.36415 493.54516 285.80859 495.40625 C 285.71801 495.7686 285.6777 496.13142 285.6582 496.49414 C 281.67093 490.7903 278.25546 484.69048 275.75586 478.20508 C 276.02444 478.48945 276.29545 478.75974 276.57227 479.00195 C 276.94829 479.33105 277.32515 479.59719 277.70117 479.80078 C 278.07719 480.02025 278.42102 480.13086 278.73438 480.13086 C 279.22005 480.13086 279.77564 480.03758 280.40234 479.84961 C 281.02905 479.67726 281.69535 479.43444 282.40039 479.12109 C 283.1211 478.80772 283.87287 478.43863 284.65625 478.01562 C 285.4553 477.59262 286.26343 477.13027 287.07812 476.62891 z M 407.40625 505.10156 L 411.30664 509.94531 L 416.49414 506.3125 L 414.25 512.11328 L 419.98828 514.78906 L 413.84375 515.74609 L 414.39453 522.05469 L 410.49414 517.20898 L 405.30664 520.8418 L 407.55273 515.04297 L 401.8125 512.36523 L 407.95898 511.41016 L 407.40625 505.10156 z M 319.30859 511.62695 L 321.10742 516.60742 L 326.28906 515.11914 L 322.875 519.16797 L 326.75391 522.91406 L 321.54102 521.98047 L 320.23828 527.21289 L 318.43945 522.23242 L 313.25781 523.71875 L 316.67188 519.67188 L 312.79102 515.92773 L 318.00391 516.85938 L 319.30859 511.62695 z M 410.22266 519.63086 L 412.97266 523.04688 C 410.65985 522.81935 408.21769 522.7517 405.66797 522.82031 L 410.22266 519.63086 z M 317.55078 524.10742 L 319.49023 529.47656 L 318.36719 529.65234 C 316.64289 528.29081 314.88549 526.85479 313.11719 525.38086 L 317.55078 524.10742 z M 393.6582 527.94336 L 396.1543 532.125 L 401.01367 532.43945 L 397.80859 536.10352 L 399.01172 540.82227 L 394.53516 538.90625 L 390.41797 541.50977 L 390.85742 536.66016 L 387.11133 533.54883 L 391.85742 532.4668 L 393.6582 527.94336 z M 361.83594 531.35742 L 363.51367 535.92969 L 368.23047 537.14062 L 364.40039 540.14648 L 364.70703 545.00586 L 360.66211 542.29297 L 356.13672 544.08594 L 357.4668 539.40234 L 354.36328 535.65234 L 359.22852 535.46875 L 361.83594 531.35742 z "
       transform="scale(0.26458333)" />
  </g>
</svg>
