<?xml version="1.0" encoding="UTF-8" standalone="no"?>
<svg
   xmlns:dc="http://purl.org/dc/elements/1.1/"
   xmlns:cc="http://creativecommons.org/ns#"
   xmlns:rdf="http://www.w3.org/1999/02/22-rdf-syntax-ns#"
   xmlns:svg="http://www.w3.org/2000/svg"
   xmlns="http://www.w3.org/2000/svg"
   xmlns:sodipodi="http://sodipodi.sourceforge.net/DTD/sodipodi-0.dtd"
   xmlns:inkscape="http://www.inkscape.org/namespaces/inkscape"
   width="210mm"
   height="297mm"
   viewBox="0 0 210 297"
   version="1.1"
   id="svg8"
   inkscape:version="1.0.1 (3bc2e813f5, 2020-09-07)"
   sodipodi:docname="v1.svg">
  <defs
     id="defs2" />
  <sodipodi:namedview
     id="base"
     pagecolor="#ffffff"
     bordercolor="#666666"
     borderopacity="1.0"
     inkscape:pageopacity="0.0"
     inkscape:pageshadow="2"
     inkscape:zoom="2.5512835"
     inkscape:cx="304.43653"
     inkscape:cy="484.44238"
     inkscape:document-units="mm"
     inkscape:current-layer="layer5"
     inkscape:document-rotation="0"
     showgrid="false"
     inkscape:window-width="1920"
     inkscape:window-height="1017"
     inkscape:window-x="-8"
     inkscape:window-y="-8"
     inkscape:window-maximized="1"
     showguides="false" />
  <metadata
     id="metadata5">
    <rdf:RDF>
      <cc:Work
         rdf:about="">
        <dc:format>image/svg+xml</dc:format>
        <dc:type
           rdf:resource="http://purl.org/dc/dcmitype/StillImage" />
        <dc:title></dc:title>
      </cc:Work>
    </rdf:RDF>
  </metadata>
  <g
     inkscape:groupmode="layer"
     id="layer2"
     inkscape:label="Fundo"
     style="display:inline"
     sodipodi:insensitive="true">
    <rect
       style="fill:#000000;fill-opacity:1;stroke:none;stroke-width:0.264583"
       id="rect1040"
       width="117.16964"
       height="109.05789"
       x="41.76046"
       y="66.396126" />
  </g>
  <g
     inkscape:groupmode="layer"
     id="layer3"
     inkscape:label="Moldura - fundo"
     style="display:inline"
     sodipodi:insensitive="true">
    <path
       id="path1043"
       style="fill:#58a758;fill-opacity:1;fill-rule:evenodd;stroke:none;stroke-width:0.999999"
       d="m 332.32422,296.06055 c -4.62785,0.0594 -8.25841,2.11148 -11.09375,5.75586 -6.01532,13.65293 6.94577,23.49023 26.88086,27.47851 -46.29533,-0.29868 -60.03516,20.75781 -60.03516,20.75781 l 8.96094,0.44727 c 0,0 -0.29914,4.18279 1.04492,10.45508 23.89436,-28.22522 59.58594,-24.04492 59.58594,-24.04492 l -0.89453,2.6875 -20.60938,9.11132 0.24805,0.0215 c -8.38495,3.75367 -14.41774,8.85965 -16.68945,14.73828 -42.70463,16.52497 -70.01926,52.17036 -70.01954,91.375 2.2e-4,39.8618 28.22713,75.97656 72.00391,92.125 19.06069,10.90203 33.25127,27.33453 40.14258,46.48437 1.31827,3.87708 4.62506,7.03553 8.85351,7.03516 3.86588,-6.4e-4 7.30818,-2.447 8.58008,-6.09766 l 0.0156,-0.002 c 6.75828,-19.54098 21.09463,-36.33728 40.47656,-47.42187 43.77524,-16.14864 72.00115,-52.26234 72.00195,-92.12305 0,-38.73691 -26.67366,-74.04439 -68.61328,-90.82227 -2.02888,-5.91569 -7.85983,-11.08818 -16.09179,-14.92773 l -13.41211,-9.3457 1.04492,-1.79297 c 19.51139,6.1075 39.8223,3.90253 57.49609,29.12109 l 2.08985,-11.34961 7.76562,1.64258 c -2.32086,-15.3148 -32.124,-22.43426 -60.78125,-27.77539 13.06783,-2.43753 32.79479,-4.90899 30.76367,-19.56445 -2.03112,-14.65546 -11.981,-16.70807 -45.54687,5.22656 -6.02956,-6.53994 -13.38636,-6.44882 -21.80469,-1.04492 -14.16999,-12.81486 -24.6502,-18.24933 -32.36328,-18.15039 z m 3.84961,11.46289 c 4.90764,0.21041 15.20596,10.2869 19.70312,12.21289 -7.92678,-2.32805 -24.47101,-1.33294 -21.80468,-11.20117 0.46804,-0.75216 1.19274,-1.05069 2.10156,-1.01172 z m 81.14258,2.30273 c 0.62843,0.025 1.12219,0.27312 1.44726,0.80078 4.45119,8.97579 -13.4524,8.66143 -21.80273,11.20117 5.01503,-1.47028 15.9564,-12.17673 20.35547,-12.00195 z m -41.48243,10.65625 a 7.1683072,6.7202884 0 0 1 0.0547,0 7.1683072,6.7202884 0 0 1 7.16797,6.7207 7.1683072,6.7202884 0 0 1 -7.16797,6.72071 7.1683072,6.7202884 0 0 1 -7.16797,-6.72071 7.1683072,6.7202884 0 0 1 7.11328,-6.7207 z"
       transform="scale(0.26458333)" />
  </g>
  <g
     inkscape:label="Moldura"
     inkscape:groupmode="layer"
     id="layer1"
     style="display:inline"
     sodipodi:insensitive="true">
    <path
       id="path46"
       style="fill:#a93333;fill-opacity:1;fill-rule:evenodd;stroke:none;stroke-width:0.999999"
       d="m 332.32422,296.06055 c -4.62785,0.0594 -8.25841,2.11148 -11.09375,5.75586 -6.01532,13.65293 6.94577,23.49023 26.88086,27.47851 -46.29533,-0.29868 -60.03516,20.75781 -60.03516,20.75781 l 8.96094,0.44727 c 0,0 -0.29914,4.18279 1.04492,10.45508 23.89436,-28.22522 59.58594,-24.04492 59.58594,-24.04492 l -0.89453,2.6875 -20.60938,9.11132 0.24805,0.0215 c -8.38495,3.75367 -14.41774,8.85965 -16.68945,14.73828 -42.70463,16.52497 -70.01926,52.17036 -70.01954,91.375 2.2e-4,39.8618 28.22713,75.97656 72.00391,92.125 19.06069,10.90203 33.25127,27.3345 40.14258,46.48437 1.31827,3.87708 4.62503,7.03553 8.85351,7.03516 3.86588,-6.4e-4 7.30818,-2.447 8.58008,-6.09766 l 0.0156,-0.002 c 6.75828,-19.54098 21.09463,-36.33728 40.47656,-47.42187 43.77524,-16.14864 72.00115,-52.26234 72.00195,-92.12305 0,-38.73691 -26.67366,-74.04439 -68.61328,-90.82227 -2.02888,-5.91569 -7.85983,-11.08818 -16.09179,-14.92773 l -13.41211,-9.3457 1.04492,-1.79297 c 19.51139,6.1075 39.8223,3.90253 57.49609,29.12109 l 2.08985,-11.34961 7.76562,1.64258 c -2.32086,-15.3148 -32.124,-22.43426 -60.78125,-27.77539 13.06783,-2.43753 32.79479,-4.90899 30.76367,-19.56445 -2.03112,-14.65546 -11.981,-16.70807 -45.54687,5.22656 -6.02956,-6.53994 -13.38636,-6.44882 -21.80469,-1.04492 -14.16999,-12.81486 -24.6502,-18.24933 -32.36328,-18.15039 z m 3.84961,11.46289 c 4.90764,0.21041 15.20596,10.2869 19.70312,12.21289 -7.92678,-2.32805 -24.47101,-1.33294 -21.80468,-11.20117 0.46804,-0.75216 1.19274,-1.05069 2.10156,-1.01172 z m 81.14258,2.30273 c 0.62843,0.025 1.12219,0.27312 1.44726,0.80078 4.45119,8.97579 -13.4524,8.6614 -21.80273,11.20117 5.01503,-1.47031 15.9564,-12.17673 20.35547,-12.00195 z m -41.48243,10.65625 a 7.1683075,6.7202887 0 0 1 0.0547,0 7.1683075,6.7202887 0 0 1 7.16797,6.7207 7.1683075,6.7202887 0 0 1 -7.16797,6.72071 7.1683075,6.7202887 0 0 1 -7.16797,-6.72071 7.1683075,6.7202887 0 0 1 7.11328,-6.7207 z m -1.96289,38.38477 c 47.17631,3.83785 81.17709,35.98518 93.125,72.23633 11.94785,36.25092 1.041,70.19017 -39.19336,96.85742 -7.90064,-5.4994 -19.6483,-6.18944 -33.65625,-4.05469 -16.26958,-4.06182 -29.08784,-2.94602 -37.71289,4.45898 -8.24515,-4.39623 -16.48921,-2.32564 -24.73437,-0.81054 l -13.33203,2.09765 c -23.2035,-18.3219 -51.86119,-46.88584 -46.41016,-83.92578 5.28257,-35.89523 37.90795,-79.32838 101.91406,-86.85937 z m 19.78711,169.07617 2.4961,4.18164 4.85937,0.31445 -3.20508,3.66407 1.20313,4.71875 -4.47656,-1.91602 -4.11719,2.60352 0.43945,-4.84961 -3.74609,-3.11133 4.74609,-1.08203 z m -31.82226,3.41406 1.67773,4.57227 4.7168,1.21093 -3.83008,3.00586 0.30664,4.85938 -4.04492,-2.71289 -4.52539,1.79297 1.33008,-4.6836 -3.10352,-3.75 4.86524,-0.18359 z"
       transform="scale(0.26458333)" />
  </g>
  <g
     inkscape:groupmode="layer"
     id="layer4"
     inkscape:label="Decoraçoes 1 - estrelas"
     style="display:inline"
     sodipodi:insensitive="true">
    <path
       id="path1029"
       style="display:inline;fill:#a93333;fill-opacity:1;stroke:none;stroke-width:0.205328"
       inkscape:transform-center-y="-4.1142227e-06"
       d="m 107.1766,132.14621 0.24321,2.78172 -2.70988,0.42183 2.53066,1.17995 -0.98959,2.55783 2.28717,-1.60162 1.7203,2.136 -0.24349,-2.78157 2.71016,-0.42197 -2.53066,-1.17995 0.98959,-2.55783 -2.28717,1.60162 z m 0.61623,1.49529 1.03223,1.28157 1.37242,-0.96103 -0.59384,1.53454 1.5184,0.7081 -1.62593,0.25324 0.14584,1.66886 -1.03195,-1.28171 -1.37241,0.96103 0.59383,-1.53454 -1.5184,-0.7081 1.62608,-0.25297 z" />
    <path
       id="path1017"
       style="display:inline;fill:#a93333;fill-opacity:1;stroke:none;stroke-width:0.199289"
       d="m 105.42935,95.155542 -1.77963,2.0442 -2.12038,-1.608918 0.88043,2.563138 -2.453951,1.031704 2.660071,0.518949 -0.33333,2.641105 1.77964,-2.04419 2.12037,1.60891 -0.88056,-2.562781 2.45408,-1.032073 -2.66006,-0.518939 z m -0.7867,1.797853 -0.16685,1.320489 1.33035,0.259163 -1.22729,0.516159 0.44059,1.281694 -1.06031,-0.804705 -0.89,1.022035 0.16685,-1.320483 -1.33022,-0.259531 1.22716,-0.515801 -0.44022,-1.281567 1.05994,0.804574 z"
       inkscape:transform-center-x="-1.9214668e-06"
       inkscape:transform-center-y="-1.5e-06" />
    <path
       id="path1086"
       style="display:inline;fill:#a93333;fill-opacity:1;stroke:none;stroke-width:0.174834"
       d="m 81.527959,135.88933 1.710647,1.65131 -1.505347,1.78527 2.285254,-0.65599 0.793484,2.19633 0.574512,-2.30706 2.298837,0.41107 -1.710743,-1.65106 1.50545,-1.78551 -2.285256,0.65599 -0.793482,-2.19633 -0.574512,2.30706 z m 1.231467,0.61635 1.379318,0.2466 0.344751,-1.38433 0.475947,1.31775 1.371229,-0.39352 -0.903131,1.07126 1.026237,0.99071 -1.379218,-0.24683 -0.344743,1.38433 -0.475953,-1.31775 -1.371228,0.39353 0.903377,-1.07117 z"
       inkscape:transform-center-x="2.6460852e-06"
       inkscape:transform-center-y="1.4080713e-06" />
  </g>
  <g
     inkscape:groupmode="layer"
     id="layer6"
     inkscape:label="Decoraçoes 1 - Neve"
     style="display:inline"
     sodipodi:insensitive="true">
    <g
       transform="matrix(1.5431173,0.35665665,-0.35665665,1.5431173,217.85921,-333.96212)"
       id="g1106"
       style="fill:#a93333;fill-opacity:1">
      <path
         d="M 11.5,1 V 3.0078125 L 10.623047,2.1289062 10.003906,2.9257812 11.5,4.421875 V 5.8359375 L 9.3847656,3.7207031 8.7675781,4.5175781 11.5,7.25 V 8.5351562 A 3.4999999,3.4999999 0 0 0 9.25,9.8339844 l -1.1132812,-0.6425782 -1,-3.7324218 -1,0.1367187 L 6.9121094,8.484375 5.6875,7.7773438 5.1386719,5.734375 4.140625,5.8710938 4.4628906,7.0703125 2.7246094,6.0664062 l -0.5,0.8671876 L 3.9628906,7.9375 2.7636719,8.2578125 3.1425781,9.1914062 5.1875,8.6445312 6.4121094,9.3515625 3.5234375,10.125 l 0.3789063,0.933594 3.734375,-1 L 8.75,10.701172 a 3.4999999,3.4999999 0 0 0 0,2.597656 l -1.1132812,0.642578 -3.734375,-1 L 3.5234375,13.875 6.4121094,14.648438 5.1875,15.355469 3.1425781,14.808594 2.7636719,15.742188 3.9628906,16.0625 l -1.7382812,1.003906 0.5,0.867188 1.7382812,-1.003906 -0.3222656,1.199218 0.9980469,0.136719 0.5488281,-2.042969 1.2246094,-0.707031 -0.7753906,2.888672 1,0.136719 1,-3.732422 L 9.25,14.166016 a 3.4999999,3.4999999 0 0 0 2.25,1.298828 V 16.75 L 8.7675781,19.482422 9.3847656,20.279297 11.5,18.164062 v 1.414063 l -1.496094,1.496094 0.619141,0.796875 L 11.5,20.992188 V 23 h 1 v -2.007812 l 0.876953,0.878906 0.619141,-0.796875 L 12.5,19.578125 v -1.414063 l 2.115234,2.115235 0.617188,-0.796875 L 12.5,16.75 v -1.285156 a 3.4999999,3.4999999 0 0 0 2.25,-1.298828 l 1.113281,0.642578 1,3.732422 1,-0.136719 -0.77539,-2.888672 1.224609,0.707031 0.548828,2.042969 0.998047,-0.136719 -0.322266,-1.199218 1.738282,1.003906 0.5,-0.867188 -1.738282,-1.003906 1.199219,-0.320312 -0.378906,-0.933594 -2.044922,0.546875 -1.224609,-0.707031 2.888671,-0.773438 -0.378906,-0.933594 -3.734375,1 L 15.25,13.298828 a 3.4999999,3.4999999 0 0 0 0,-2.597656 l 1.113281,-0.642578 3.734375,1 L 20.476562,10.125 17.587891,9.3515625 18.8125,8.6445312 20.857422,9.1914062 21.236328,8.2578125 20.037109,7.9375 21.775391,6.9335938 21.275391,6.0664062 19.537109,7.0703125 19.859375,5.8710938 18.861328,5.734375 18.3125,7.7773438 17.087891,8.484375 l 0.77539,-2.8886719 -1,-0.1367187 -1,3.7324218 L 14.75,9.8339844 A 3.4999999,3.4999999 0 0 0 12.5,8.5351562 V 7.25 L 15.232422,4.5175781 14.615234,3.7207031 12.5,5.8359375 V 4.421875 L 13.996094,2.9257812 13.376953,2.1289062 12.5,3.0078125 V 1 Z m 0.427734,8.5019531 A 2.5000065,2.5000065 0 0 1 14.5,12 a 2.5000065,2.5000065 0 1 1 -5,0 2.5000065,2.5000065 0 0 1 2.427734,-2.4980469 z"
         transform="matrix(0.26458334,0,0,0.26458334,0,290.64999)"
         fill="#000000"
         stroke="none"
         id="path1104"
         style="fill:#a93333;fill-opacity:1" />
    </g>
  </g>
  <g
     inkscape:groupmode="layer"
     id="layer5"
     inkscape:label="Sofia&amp;Ruben"
     sodipodi:insensitive="true">
    <text
       xml:space="preserve"
       style="font-size:16.4746px;line-height:1.25;font-family:Yesteryear;-inkscape-font-specification:Yesteryear;stroke-width:0.411864"
       x="78.279144"
       y="113.24078"
       id="text1062"><tspan
         sodipodi:role="line"
         x="78.279144"
         y="113.24078"
         style="stroke-width:0.411864"
         id="tspan1064" /></text>
    <text
       xml:space="preserve"
       style="font-size:12.7346px;line-height:1.25;font-family:Yesteryear;-inkscape-font-specification:Yesteryear;fill:#a93333;fill-opacity:1;stroke-width:0.513223"
       x="72.654091"
       y="126.43738"
       id="text1072"><tspan
         sodipodi:role="line"
         id="tspan1070"
         x="72.654091"
         y="126.43738"
         style="font-size:12.7346px;fill:#a93333;fill-opacity:1;stroke-width:0.513223">&amp;</tspan></text>
    <text
       xml:space="preserve"
       style="font-size:22.5778px;line-height:1.25;font-family:Yesteryear;-inkscape-font-specification:Yesteryear;fill:#a93333;fill-opacity:1;stroke-width:0.264583"
       x="91.182022"
       y="130.8394"
       id="text1076"><tspan
         sodipodi:role="line"
         id="tspan1074"
         x="91.182022"
         y="130.8394"
         style="font-size:22.5778px;fill:#a93333;fill-opacity:1;stroke-width:0.264583">uben</tspan></text>
    <text
       xml:space="preserve"
       style="font-size:25.4px;line-height:1.25;font-family:Yesteryear;-inkscape-font-specification:Yesteryear;fill:#a93333;fill-opacity:1;stroke-width:0.264583"
       x="78.263306"
       y="115.66746"
       id="text1080"><tspan
         sodipodi:role="line"
         id="tspan1078"
         x="78.263306"
         y="115.66746"
         style="font-size:25.4px;fill:#a93333;fill-opacity:1;stroke-width:0.264583">Sofia</tspan></text>
    <text
       xml:space="preserve"
       style="font-size:22.5778px;line-height:1.25;font-family:Yesteryear;-inkscape-font-specification:Yesteryear;fill:#a93333;fill-opacity:1;stroke-width:0.264583"
       x="77.362015"
       y="131.44028"
       id="text1084"><tspan
         sodipodi:role="line"
         id="tspan1082"
         x="77.362015"
         y="131.44028"
         style="font-size:22.5778px;fill:#a93333;fill-opacity:1;stroke-width:0.264583">R</tspan></text>
  </g>
</svg>
