<?xml version="1.0" encoding="UTF-8" standalone="no"?>
<svg
   xmlns:dc="http://purl.org/dc/elements/1.1/"
   xmlns:cc="http://creativecommons.org/ns#"
   xmlns:rdf="http://www.w3.org/1999/02/22-rdf-syntax-ns#"
   xmlns:svg="http://www.w3.org/2000/svg"
   xmlns="http://www.w3.org/2000/svg"
   xmlns:xlink="http://www.w3.org/1999/xlink"
   xmlns:sodipodi="http://sodipodi.sourceforge.net/DTD/sodipodi-0.dtd"
   xmlns:inkscape="http://www.inkscape.org/namespaces/inkscape"
   width="210mm"
   height="297mm"
   viewBox="0 0 210 297"
   version="1.1"
   id="svg8"
   inkscape:version="0.92.5 (2060ec1f9f, 2020-04-08)"
   sodipodi:docname="v1.svg">
  <defs
     id="defs2">
    <linearGradient
       inkscape:collect="always"
       id="linearGradient882">
      <stop
         style="stop-color:#000000;stop-opacity:1;"
         offset="0"
         id="stop878" />
      <stop
         style="stop-color:#000000;stop-opacity:0;"
         offset="1"
         id="stop880" />
    </linearGradient>
    <linearGradient
       inkscape:collect="always"
       xlink:href="#linearGradient882"
       id="linearGradient884"
       x1="111.39954"
       y1="115.71229"
       x2="122.87862"
       y2="115.71229"
       gradientUnits="userSpaceOnUse" />
  </defs>
  <sodipodi:namedview
     id="base"
     pagecolor="#ffffff"
     bordercolor="#666666"
     borderopacity="1.0"
     inkscape:pageopacity="0.0"
     inkscape:pageshadow="2"
     inkscape:zoom="1.8407445"
     inkscape:cx="315.59079"
     inkscape:cy="630.6267"
     inkscape:document-units="mm"
     inkscape:current-layer="layer11"
     inkscape:document-rotation="0"
     showgrid="false"
     inkscape:window-width="1920"
     inkscape:window-height="1017"
     inkscape:window-x="-8"
     inkscape:window-y="-8"
     inkscape:window-maximized="1"
     showguides="false" />
  <metadata
     id="metadata5">
    <rdf:RDF>
      <cc:Work
         rdf:about="">
        <dc:format>image/svg+xml</dc:format>
        <dc:type
           rdf:resource="http://purl.org/dc/dcmitype/StillImage" />
        <dc:title />
      </cc:Work>
    </rdf:RDF>
  </metadata>
  <g
     inkscape:groupmode="layer"
     id="layer2"
     inkscape:label="Fundo"
     style="display:inline"
     sodipodi:insensitive="true">
    <rect
       style="fill:#000000;fill-opacity:1;stroke:none;stroke-width:0.264583"
       id="rect1040"
       width="117.16964"
       height="109.05789"
       x="39.999557"
       y="71.385353" />
  </g>
  <g
     inkscape:groupmode="layer"
     id="g1567"
     inkscape:label="Pendentes"
     style="display:inline"
     sodipodi:insensitive="true">
    <path
       id="path1565"
       style="fill:#58a758;fill-opacity:1;fill-rule:evenodd;stroke:none;stroke-width:0.106975"
       d="m 67.568575,144.36652 c -0.495064,0.006 -0.883443,0.22587 -1.186754,0.61573 -0.643488,1.46052 0.743024,2.51287 2.875579,2.93951 -4.952441,-0.0319 -6.422258,2.22057 -6.422258,2.22057 l 0.958596,0.0478 c 0,0 -0.032,0.44745 0.11178,1.11843 2.556098,-3.01939 6.374203,-2.5722 6.374203,-2.5722 l -0.09569,0.28749 -2.204687,0.97468 0.02654,0.002 c -0.89698,0.40155 -1.542337,0.94776 -1.785354,1.57663 -4.568326,1.76775 -7.490307,5.58092 -7.490337,9.77483 2.3e-5,4.26422 3.019596,8.12759 7.702615,9.85507 2.039017,1.16625 3.557053,2.92411 4.294251,4.97266 0.141022,0.41475 0.494766,0.75263 0.947104,0.75259 0.413553,-7e-5 0.781792,-0.26177 0.917854,-0.6523 l 0.0017,-2.1e-4 c 0.722967,-2.0904 2.256597,-3.88718 4.329979,-5.07295 4.682854,-1.7275 7.702319,-5.59076 7.702405,-9.85486 0,-4.14388 -2.853414,-7.9209 -7.339903,-9.71571 -0.217039,-0.63283 -0.840805,-1.18616 -1.721418,-1.59689 l -1.43476,-0.99976 0.11178,-0.1918 c 2.08723,0.65335 4.259989,0.41747 6.150642,3.11522 l 0.223561,-1.21412 0.830727,0.17571 c -0.248273,-1.6383 -3.436463,-2.3999 -6.502071,-2.97126 1.39793,-0.26076 3.508221,-0.52514 3.290942,-2.09291 -0.217279,-1.56777 -1.281667,-1.78735 -4.872374,0.55911 -0.645012,-0.69961 -1.432006,-0.68986 -2.332556,-0.11178 -1.515834,-1.37087 -2.636955,-1.95222 -3.462061,-1.94164 z m 0.411812,1.22624 c 0.524994,0.0225 1.626657,1.10044 2.10774,1.30648 -0.847967,-0.24905 -2.617785,-0.14259 -2.332555,-1.19825 0.05007,-0.0805 0.127594,-0.1124 0.224815,-0.10823 z m 8.680224,0.24634 c 0.06723,0.003 0.120046,0.0292 0.15482,0.0857 0.476166,0.96018 -1.43907,0.92656 -2.332346,1.19824 0.536483,-0.15728 1.706935,-1.3026 2.177526,-1.2839 z m -4.437582,1.13995 a 0.76682936,0.71890257 0 0 1 0.0059,0 0.76682936,0.71890257 0 0 1 0.766793,0.71895 0.76682936,0.71890257 0 0 1 -0.766793,0.71894 0.76682936,0.71890257 0 0 1 -0.766793,-0.71894 0.76682936,0.71890257 0 0 1 0.760942,-0.71895 z" />
    <path
       id="path1569"
       style="fill:#58a758;fill-opacity:1;fill-rule:evenodd;stroke:none;stroke-width:0.106975"
       d="m 118.34128,144.36652 c -0.49506,0.006 -0.88344,0.22587 -1.18675,0.61573 -0.64349,1.46052 0.74302,2.51287 2.87558,2.93951 -4.95244,-0.0319 -6.42226,2.22057 -6.42226,2.22057 l 0.9586,0.0478 c 0,0 -0.032,0.44745 0.11178,1.11843 2.5561,-3.01939 6.3742,-2.5722 6.3742,-2.5722 l -0.0957,0.28749 -2.20469,0.97468 0.0265,0.002 c -0.89698,0.40155 -1.54233,0.94776 -1.78535,1.57663 -4.56833,1.76775 -7.49031,5.58092 -7.49034,9.77483 3e-5,4.26422 3.0196,8.12759 7.70262,9.85507 2.03901,1.16625 3.55705,2.92411 4.29425,4.97266 0.14102,0.41475 0.49476,0.75263 0.9471,0.75259 0.41356,-7e-5 0.78179,-0.26177 0.91786,-0.6523 l 0.002,-2.1e-4 c 0.72296,-2.0904 2.25659,-3.88718 4.32998,-5.07295 4.68285,-1.7275 7.70231,-5.59076 7.7024,-9.85486 0,-4.14388 -2.85341,-7.9209 -7.3399,-9.71571 -0.21704,-0.63283 -0.84081,-1.18616 -1.72142,-1.59689 l -1.43476,-0.99976 0.11178,-0.1918 c 2.08723,0.65335 4.25999,0.41747 6.15064,3.11522 l 0.22356,-1.21412 0.83073,0.17571 c -0.24827,-1.6383 -3.43646,-2.3999 -6.50207,-2.97126 1.39793,-0.26076 3.50822,-0.52514 3.29094,-2.09291 -0.21728,-1.56777 -1.28167,-1.78735 -4.87237,0.55911 -0.64502,-0.69961 -1.43201,-0.68986 -2.33256,-0.11178 -1.51583,-1.37087 -2.63695,-1.95222 -3.46206,-1.94164 z m 0.41182,1.22624 c 0.52499,0.0225 1.62665,1.10044 2.10774,1.30648 -0.84797,-0.24905 -2.61779,-0.14259 -2.33256,-1.19825 0.0501,-0.0805 0.1276,-0.1124 0.22482,-0.10823 z m 8.68022,0.24634 c 0.0672,0.003 0.12005,0.0292 0.15482,0.0857 0.47617,0.96018 -1.43907,0.92656 -2.33235,1.19824 0.53649,-0.15728 1.70694,-1.3026 2.17753,-1.2839 z m -4.43758,1.13995 a 0.76682936,0.71890257 0 0 1 0.006,0 0.76682936,0.71890257 0 0 1 0.76679,0.71895 0.76682936,0.71890257 0 0 1 -0.76679,0.71894 0.76682936,0.71890257 0 0 1 -0.76679,-0.71894 0.76682936,0.71890257 0 0 1 0.76094,-0.71895 z" />
  </g>
  <g
     inkscape:groupmode="layer"
     id="layer3"
     inkscape:label="Moldura - fundo"
     style="display:inline"
     sodipodi:insensitive="true">
    <path
       id="path1043"
       style="fill:#58a758;fill-opacity:1;fill-rule:evenodd;stroke:none;stroke-width:0.999999"
       d="m 332.32422,296.06055 c -4.62785,0.0594 -8.25841,2.11148 -11.09375,5.75586 -6.01532,13.65293 6.94577,23.49023 26.88086,27.47851 -46.29533,-0.29868 -60.03516,20.75781 -60.03516,20.75781 l 8.96094,0.44727 c 0,0 -0.29914,4.18279 1.04492,10.45508 23.89436,-28.22522 59.58594,-24.04492 59.58594,-24.04492 l -0.89453,2.6875 -20.60938,9.11132 0.24805,0.0215 c -8.38495,3.75367 -14.41774,8.85965 -16.68945,14.73828 -42.70463,16.52497 -70.01926,52.17036 -70.01954,91.375 2.2e-4,39.8618 28.22713,75.97656 72.00391,92.125 19.06069,10.90203 33.25127,27.33453 40.14258,46.48437 1.31827,3.87708 4.62506,7.03553 8.85351,7.03516 3.86588,-6.4e-4 7.30818,-2.447 8.58008,-6.09766 l 0.0156,-0.002 c 6.75828,-19.54098 21.09463,-36.33728 40.47656,-47.42187 43.77524,-16.14864 72.00115,-52.26234 72.00195,-92.12305 0,-38.73691 -26.67366,-74.04439 -68.61328,-90.82227 -2.02888,-5.91569 -7.85983,-11.08818 -16.09179,-14.92773 l -13.41211,-9.3457 1.04492,-1.79297 c 19.51139,6.1075 39.8223,3.90253 57.49609,29.12109 l 2.08985,-11.34961 7.76562,1.64258 c -2.32086,-15.3148 -32.124,-22.43426 -60.78125,-27.77539 13.06783,-2.43753 32.79479,-4.90899 30.76367,-19.56445 -2.03112,-14.65546 -11.981,-16.70807 -45.54687,5.22656 -6.02956,-6.53994 -13.38636,-6.44882 -21.80469,-1.04492 -14.16999,-12.81486 -24.6502,-18.24933 -32.36328,-18.15039 z m 3.84961,11.46289 c 4.90764,0.21041 15.20596,10.2869 19.70312,12.21289 -7.92678,-2.32805 -24.47101,-1.33294 -21.80468,-11.20117 0.46804,-0.75216 1.19274,-1.05069 2.10156,-1.01172 z m 81.14258,2.30273 c 0.62843,0.025 1.12219,0.27312 1.44726,0.80078 4.45119,8.97579 -13.4524,8.66143 -21.80273,11.20117 5.01503,-1.47028 15.9564,-12.17673 20.35547,-12.00195 z m -41.48243,10.65625 a 7.1683072,6.7202884 0 0 1 0.0547,0 7.1683072,6.7202884 0 0 1 7.16797,6.7207 7.1683072,6.7202884 0 0 1 -7.16797,6.72071 7.1683072,6.7202884 0 0 1 -7.16797,-6.72071 7.1683072,6.7202884 0 0 1 7.11328,-6.7207 z"
       transform="scale(0.26458333)" />
  </g>
  <g
     inkscape:label="Moldura com estrelas"
     inkscape:groupmode="layer"
     id="layer1"
     style="display:inline"
     sodipodi:insensitive="true">
    <path
       id="path46"
       style="fill:#a93333;fill-opacity:1;fill-rule:evenodd;stroke:none;stroke-width:0.999999"
       d="m 332.32422,296.06055 c -4.62785,0.0594 -8.25841,2.11148 -11.09375,5.75586 -6.01532,13.65293 6.94577,23.49023 26.88086,27.47851 -46.29533,-0.29868 -60.03516,20.75781 -60.03516,20.75781 l 8.96094,0.44727 c 0,0 -0.29914,4.18279 1.04492,10.45508 23.89436,-28.22522 59.58594,-24.04492 59.58594,-24.04492 l -0.89453,2.6875 -20.60938,9.11132 0.24805,0.0215 c -8.38495,3.75367 -14.41774,8.85965 -16.68945,14.73828 -42.70463,16.52497 -70.01926,52.17036 -70.01954,91.375 2.2e-4,39.8618 28.22713,75.97656 72.00391,92.125 19.06069,10.90203 33.25127,27.3345 40.14258,46.48437 1.31827,3.87708 4.62503,7.03553 8.85351,7.03516 3.86588,-6.4e-4 7.30818,-2.447 8.58008,-6.09766 l 0.0156,-0.002 c 6.75828,-19.54098 21.09463,-36.33728 40.47656,-47.42187 43.77524,-16.14864 72.00115,-52.26234 72.00195,-92.12305 0,-38.73691 -26.67366,-74.04439 -68.61328,-90.82227 -2.02888,-5.91569 -7.85983,-11.08818 -16.09179,-14.92773 l -13.41211,-9.3457 1.04492,-1.79297 c 19.51139,6.1075 39.8223,3.90253 57.49609,29.12109 l 2.08985,-11.34961 7.76562,1.64258 c -2.32086,-15.3148 -32.124,-22.43426 -60.78125,-27.77539 13.06783,-2.43753 32.79479,-4.90899 30.76367,-19.56445 -2.03112,-14.65546 -11.981,-16.70807 -45.54687,5.22656 -6.02956,-6.53994 -13.38636,-6.44882 -21.80469,-1.04492 -14.16999,-12.81486 -24.6502,-18.24933 -32.36328,-18.15039 z m 3.84961,11.46289 c 4.90764,0.21041 15.20596,10.2869 19.70312,12.21289 -7.92678,-2.32805 -24.47101,-1.33294 -21.80468,-11.20117 0.46804,-0.75216 1.19274,-1.05069 2.10156,-1.01172 z m 81.14258,2.30273 c 0.62843,0.025 1.12219,0.27312 1.44726,0.80078 4.45119,8.97579 -13.4524,8.6614 -21.80273,11.20117 5.01503,-1.47031 15.9564,-12.17673 20.35547,-12.00195 z m -41.48243,10.65625 a 7.1683075,6.7202887 0 0 1 0.0547,0 7.1683075,6.7202887 0 0 1 7.16797,6.7207 7.1683075,6.7202887 0 0 1 -7.16797,6.72071 7.1683075,6.7202887 0 0 1 -7.16797,-6.72071 7.1683075,6.7202887 0 0 1 7.11328,-6.7207 z m -1.96289,38.38477 c 47.17631,3.83785 81.17709,35.98518 93.125,72.23633 11.94785,36.25092 1.041,70.19017 -39.19336,96.85742 -7.90064,-5.4994 -19.6483,-6.18944 -33.65625,-4.05469 -16.26958,-4.06182 -29.08784,-2.94602 -37.71289,4.45898 -8.24515,-4.39623 -16.48921,-2.32564 -24.73437,-0.81054 l -13.33203,2.09765 c -23.2035,-18.3219 -51.86119,-46.88584 -46.41016,-83.92578 5.28257,-35.89523 37.90795,-79.32838 101.91406,-86.85937 z m 19.78711,169.07617 2.4961,4.18164 4.85937,0.31445 -3.20508,3.66407 1.20313,4.71875 -4.47656,-1.91602 -4.11719,2.60352 0.43945,-4.84961 -3.74609,-3.11133 4.74609,-1.08203 z m -31.82226,3.41406 1.67773,4.57227 4.7168,1.21093 -3.83008,3.00586 0.30664,4.85938 -4.04492,-2.71289 -4.52539,1.79297 1.33008,-4.6836 -3.10352,-3.75 4.86524,-0.18359 z"
       transform="scale(0.26458333)" />
  </g>
  <g
     inkscape:groupmode="layer"
     id="layer8"
     inkscape:label="cortes p/ pendentes"
     sodipodi:insensitive="true"
     style="display:inline">
    <circle
       style="fill:#58a758;fill-opacity:1;stroke:#000000;stroke-width:0"
       id="path1561"
       cx="74.772011"
       cy="135.12888"
       r="1.6592956" />
    <circle
       style="fill:#58a758;fill-opacity:1;stroke:#000000;stroke-width:0"
       id="circle1563"
       cx="121.75082"
       cy="135.12888"
       r="1.6592956" />
  </g>
  <g
     inkscape:label="Moldura sem estrelas"
     inkscape:groupmode="layer"
     id="g1540"
     style="display:none">
    <g
       id="g1550">
      <path
         id="path1538"
         style="fill:#a93333;fill-opacity:1;fill-rule:evenodd;stroke:none;stroke-width:0.999999"
         d="m 332.32422,296.06055 c -4.62785,0.0594 -8.25841,2.11148 -11.09375,5.75586 -6.01532,13.65293 6.94577,23.49023 26.88086,27.47851 -46.29533,-0.29868 -60.03516,20.75781 -60.03516,20.75781 l 8.96094,0.44727 c 0,0 -0.29914,4.18279 1.04492,10.45508 23.89436,-28.22522 59.58594,-24.04492 59.58594,-24.04492 l -0.89453,2.6875 -20.60938,9.11132 0.24805,0.0215 c -8.38495,3.75367 -14.41774,8.85965 -16.68945,14.73828 -42.70463,16.52497 -70.01926,52.17036 -70.01954,91.375 2.2e-4,39.8618 28.22713,75.97656 72.00391,92.125 19.06069,10.90203 33.25127,27.33451 40.14258,46.48437 1.31827,3.87708 4.62504,7.03553 8.85351,7.03516 3.86588,-6.4e-4 7.30818,-2.447 8.58008,-6.09766 l 0.0156,-0.002 c 6.75828,-19.54098 21.09463,-36.33728 40.47656,-47.42187 43.77524,-16.14864 72.00115,-52.26234 72.00195,-92.12305 0,-38.73691 -26.67366,-74.04439 -68.61328,-90.82227 -2.02888,-5.91569 -7.85983,-11.08818 -16.09179,-14.92773 l -13.41211,-9.3457 1.04492,-1.79297 c 19.51139,6.1075 39.8223,3.90253 57.49609,29.12109 l 2.08985,-11.34961 7.76562,1.64258 c -2.32086,-15.3148 -32.124,-22.43426 -60.78125,-27.77539 13.06783,-2.43753 32.79479,-4.90899 30.76367,-19.56445 -2.03112,-14.65546 -11.981,-16.70807 -45.54687,5.22656 -6.02956,-6.53994 -13.38636,-6.44882 -21.80469,-1.04492 -14.16999,-12.81486 -24.6502,-18.24933 -32.36328,-18.15039 z m 3.84961,11.46289 c 4.90764,0.21041 15.20596,10.2869 19.70312,12.21289 -7.92678,-2.32805 -24.47101,-1.33294 -21.80468,-11.20117 0.46804,-0.75216 1.19274,-1.05069 2.10156,-1.01172 z m 81.14258,2.30273 c 0.62843,0.025 1.12219,0.27312 1.44726,0.80078 4.45119,8.97579 -13.4524,8.66141 -21.80273,11.20117 5.01503,-1.4703 15.9564,-12.17673 20.35547,-12.00195 z m -41.48243,10.65625 a 7.1683074,6.7202886 0 0 1 0.0547,0 7.1683074,6.7202886 0 0 1 7.16797,6.7207 7.1683074,6.7202886 0 0 1 -7.16797,6.72071 7.1683074,6.7202886 0 0 1 -7.16797,-6.72071 7.1683074,6.7202886 0 0 1 7.11328,-6.7207 z m -1.96289,38.38477 c 47.17631,3.83785 81.17709,35.98518 93.125,72.23633 11.94785,36.25092 1.041,70.19017 -39.19336,96.85742 -7.90064,-5.4994 -19.6483,-6.18944 -33.65625,-4.05469 -16.26958,-4.06182 -29.08784,-2.94602 -37.71289,4.45898 -8.24515,-4.39623 -16.48921,-2.32564 -24.73437,-0.81054 l -13.33203,2.09765 c -23.2035,-18.3219 -51.86119,-46.88584 -46.41016,-83.92578 5.28257,-35.89523 37.90795,-79.32838 101.91406,-86.85937 z m 19.78711,169.07617 2.4961,4.18164 4.85937,0.31445 -3.20508,3.66407 1.20313,4.71875 -4.47656,-1.91602 -4.11719,2.60352 0.43945,-4.84961 -3.74609,-3.11133 4.74609,-1.08203 z"
         transform="scale(0.26458333)" />
      <ellipse
         style="fill:#a93333;fill-opacity:1;stroke:#000000;stroke-width:0"
         id="path1546"
         cx="104.32821"
         cy="141.6105"
         rx="3.5260031"
         ry="2.8519142" />
    </g>
  </g>
  <g
     inkscape:groupmode="layer"
     id="layer4"
     inkscape:label="Decoraçoes 1 - estrelas"
     style="display:none"
     sodipodi:insensitive="true">
    <path
       id="path1029"
       style="display:inline;fill:#a93333;fill-opacity:1;stroke:none;stroke-width:0.205328"
       inkscape:transform-center-y="-4.1142227e-06"
       d="m 107.1766,132.14621 0.24321,2.78172 -2.70988,0.42183 2.53066,1.17995 -0.98959,2.55783 2.28717,-1.60162 1.7203,2.136 -0.24349,-2.78157 2.71016,-0.42197 -2.53066,-1.17995 0.98959,-2.55783 -2.28717,1.60162 z m 0.61623,1.49529 1.03223,1.28157 1.37242,-0.96103 -0.59384,1.53454 1.5184,0.7081 -1.62593,0.25324 0.14584,1.66886 -1.03195,-1.28171 -1.37241,0.96103 0.59383,-1.53454 -1.5184,-0.7081 1.62608,-0.25297 z" />
    <path
       id="path1017"
       style="display:inline;fill:#a93333;fill-opacity:1;stroke:none;stroke-width:0.199289"
       d="m 105.42935,95.155542 -1.77963,2.0442 -2.12038,-1.608918 0.88043,2.563138 -2.453951,1.031704 2.660071,0.518949 -0.33333,2.641105 1.77964,-2.04419 2.12037,1.60891 -0.88056,-2.562781 2.45408,-1.032073 -2.66006,-0.518939 z m -0.7867,1.797853 -0.16685,1.320489 1.33035,0.259163 -1.22729,0.516159 0.44059,1.281694 -1.06031,-0.804705 -0.89,1.022035 0.16685,-1.320483 -1.33022,-0.259531 1.22716,-0.515801 -0.44022,-1.281567 1.05994,0.804574 z"
       inkscape:transform-center-x="-1.9214668e-06"
       inkscape:transform-center-y="-1.5e-06" />
    <path
       id="path1086"
       style="display:inline;fill:#a93333;fill-opacity:1;stroke:none;stroke-width:0.174834"
       d="m 81.527959,135.88933 1.710647,1.65131 -1.505347,1.78527 2.285254,-0.65599 0.793484,2.19633 0.574512,-2.30706 2.298837,0.41107 -1.710743,-1.65106 1.50545,-1.78551 -2.285256,0.65599 -0.793482,-2.19633 -0.574512,2.30706 z m 1.231467,0.61635 1.379318,0.2466 0.344751,-1.38433 0.475947,1.31775 1.371229,-0.39352 -0.903131,1.07126 1.026237,0.99071 -1.379218,-0.24683 -0.344743,1.38433 -0.475953,-1.31775 -1.371228,0.39353 0.903377,-1.07117 z"
       inkscape:transform-center-x="2.6460852e-06"
       inkscape:transform-center-y="1.4080713e-06" />
  </g>
  <g
     inkscape:groupmode="layer"
     id="g892"
     inkscape:label="Decoraçoes 2 - estrelas"
     style="display:inline">
    <path
       id="path886"
       style="display:inline;fill:#a93333;fill-opacity:1;stroke:none;stroke-width:0.205328"
       inkscape:transform-center-y="-4.1142227e-06"
       d="m 95.768944,94.189822 0.24321,2.781721 -2.70988,0.42183 2.53066,1.17995 -0.98959,2.557827 2.28717,-1.601617 1.720297,2.135997 -0.24349,-2.781567 2.710159,-0.42197 -2.530659,-1.17995 0.98959,-2.557831 -2.287167,1.60162 z m 0.61623,1.49529 1.03223,1.281571 1.372417,-0.961031 -0.59384,1.534541 1.5184,0.7081 -1.62593,0.25324 0.14584,1.668857 -1.031947,-1.281707 -1.37241,0.96103 0.59383,-1.53454 -1.5184,-0.7081 1.62608,-0.25297 z" />
    <path
       id="path888"
       style="display:inline;fill:#a93333;fill-opacity:1;stroke:none;stroke-width:0.199289"
       d="m 118.4963,102.31125 -1.77963,2.0442 -2.12038,-1.60891 0.88043,2.56313 -2.45395,1.03171 2.66007,0.51895 -0.33333,2.6411 1.77964,-2.04419 2.12037,1.60891 -0.88056,-2.56278 2.45408,-1.03207 -2.66006,-0.51894 z m -0.7867,1.79786 -0.16685,1.32049 1.33035,0.25916 -1.22729,0.51616 0.44059,1.28169 -1.06031,-0.8047 -0.89,1.02203 0.16685,-1.32048 -1.33022,-0.25953 1.22716,-0.5158 -0.44022,-1.28157 1.05994,0.80457 z"
       inkscape:transform-center-x="-1.9214668e-06"
       inkscape:transform-center-y="-1.5e-06" />
    <path
       id="path890"
       style="display:inline;fill:#a93333;fill-opacity:1;stroke:none;stroke-width:0.29635122"
       d="m 103.45187,99.376731 2.89962,2.799039 -2.55163,3.02611 3.87361,-1.11193 1.34499,3.72287 0.97382,-3.91056 3.89663,0.69678 -2.89978,-2.79862 2.5518,-3.026514 -3.87361,1.111935 -1.34498,-3.722878 -0.97382,3.910567 z m 2.08739,1.044739 2.33801,0.418 0.58437,-2.3465 0.80675,2.23364 2.32428,-0.66703 -1.53085,1.81583 1.73953,1.67929 -2.33784,-0.41838 -0.58435,2.3465 -0.80676,-2.23365 -2.32429,0.66705 1.53127,-1.81568 z"
       inkscape:transform-center-x="2.795915e-06"
       inkscape:transform-center-y="1.1352158e-06"
       inkscape:connector-curvature="0" />
    <path
       d="m 73.783198,118.40953 0.300494,3.43691 -3.348147,0.52118 3.126715,1.45787 -1.222671,3.16029 2.825875,-1.97886 2.125484,2.6391 -0.30084,-3.43672 3.348492,-0.52136 -3.126714,-1.45787 1.222672,-3.16028 -2.825871,1.97885 z m 0.761373,1.84748 1.275355,1.58342 1.695667,-1.18738 -0.733709,1.89597 1.876034,0.87489 -2.008891,0.31288 0.18019,2.06193 -1.275005,-1.58359 -1.695658,1.18738 0.733696,-1.89597 -1.876034,-0.87488 2.009077,-0.31256 z"
       inkscape:transform-center-y="-5.1549581e-06"
       style="display:inline;fill:#a93333;fill-opacity:1;stroke:none;stroke-width:0.25368962"
       id="path5938"
       inkscape:connector-curvature="0" />
  </g>
  <g
     inkscape:groupmode="layer"
     id="layer6"
     inkscape:label="Decoraçoes 1 - Neve"
     style="display:none"
     sodipodi:insensitive="true">
    <g
       transform="matrix(1.5431173,0.35665665,-0.35665665,1.5431173,217.85921,-333.96212)"
       id="g1106"
       style="fill:#a93333;fill-opacity:1">
      <path
         d="M 11.5,1 V 3.0078125 L 10.623047,2.1289062 10.003906,2.9257812 11.5,4.421875 V 5.8359375 L 9.3847656,3.7207031 8.7675781,4.5175781 11.5,7.25 V 8.5351562 A 3.4999999,3.4999999 0 0 0 9.25,9.8339844 l -1.1132812,-0.6425782 -1,-3.7324218 -1,0.1367187 L 6.9121094,8.484375 5.6875,7.7773438 5.1386719,5.734375 4.140625,5.8710938 4.4628906,7.0703125 2.7246094,6.0664062 l -0.5,0.8671876 L 3.9628906,7.9375 2.7636719,8.2578125 3.1425781,9.1914062 5.1875,8.6445312 6.4121094,9.3515625 3.5234375,10.125 l 0.3789063,0.933594 3.734375,-1 L 8.75,10.701172 a 3.4999999,3.4999999 0 0 0 0,2.597656 l -1.1132812,0.642578 -3.734375,-1 L 3.5234375,13.875 6.4121094,14.648438 5.1875,15.355469 3.1425781,14.808594 2.7636719,15.742188 3.9628906,16.0625 l -1.7382812,1.003906 0.5,0.867188 1.7382812,-1.003906 -0.3222656,1.199218 0.9980469,0.136719 0.5488281,-2.042969 1.2246094,-0.707031 -0.7753906,2.888672 1,0.136719 1,-3.732422 L 9.25,14.166016 a 3.4999999,3.4999999 0 0 0 2.25,1.298828 V 16.75 L 8.7675781,19.482422 9.3847656,20.279297 11.5,18.164062 v 1.414063 l -1.496094,1.496094 0.619141,0.796875 L 11.5,20.992188 V 23 h 1 v -2.007812 l 0.876953,0.878906 0.619141,-0.796875 L 12.5,19.578125 v -1.414063 l 2.115234,2.115235 0.617188,-0.796875 L 12.5,16.75 v -1.285156 a 3.4999999,3.4999999 0 0 0 2.25,-1.298828 l 1.113281,0.642578 1,3.732422 1,-0.136719 -0.77539,-2.888672 1.224609,0.707031 0.548828,2.042969 0.998047,-0.136719 -0.322266,-1.199218 1.738282,1.003906 0.5,-0.867188 -1.738282,-1.003906 1.199219,-0.320312 -0.378906,-0.933594 -2.044922,0.546875 -1.224609,-0.707031 2.888671,-0.773438 -0.378906,-0.933594 -3.734375,1 L 15.25,13.298828 a 3.4999999,3.4999999 0 0 0 0,-2.597656 l 1.113281,-0.642578 3.734375,1 L 20.476562,10.125 17.587891,9.3515625 18.8125,8.6445312 20.857422,9.1914062 21.236328,8.2578125 20.037109,7.9375 21.775391,6.9335938 21.275391,6.0664062 19.537109,7.0703125 19.859375,5.8710938 18.861328,5.734375 18.3125,7.7773438 17.087891,8.484375 l 0.77539,-2.8886719 -1,-0.1367187 -1,3.7324218 L 14.75,9.8339844 A 3.4999999,3.4999999 0 0 0 12.5,8.5351562 V 7.25 L 15.232422,4.5175781 14.615234,3.7207031 12.5,5.8359375 V 4.421875 L 13.996094,2.9257812 13.376953,2.1289062 12.5,3.0078125 V 1 Z m 0.427734,8.5019531 A 2.5000065,2.5000065 0 0 1 14.5,12 a 2.5000065,2.5000065 0 1 1 -5,0 2.5000065,2.5000065 0 0 1 2.427734,-2.4980469 z"
         transform="matrix(0.26458334,0,0,0.26458334,0,290.64999)"
         fill="#000000"
         stroke="none"
         id="path1104"
         style="fill:#a93333;fill-opacity:1" />
    </g>
  </g>
  <g
     inkscape:groupmode="layer"
     id="g898"
     inkscape:label="Decoraçoes 2 - Neve"
     style="display:inline">
    <g
       transform="matrix(1.8703953,0.7726691,-0.7726691,1.8703953,326.46138,-430.85496)"
       id="g896"
       style="fill:#a93333;fill-opacity:1">
      <path
         d="M 11.5,1 V 3.0078125 L 10.623047,2.1289062 10.003906,2.9257812 11.5,4.421875 V 5.8359375 L 9.3847656,3.7207031 8.7675781,4.5175781 11.5,7.25 V 8.5351562 A 3.4999999,3.4999999 0 0 0 9.25,9.8339844 l -1.1132812,-0.6425782 -1,-3.7324218 -1,0.1367187 L 6.9121094,8.484375 5.6875,7.7773438 5.1386719,5.734375 4.140625,5.8710938 4.4628906,7.0703125 2.7246094,6.0664062 l -0.5,0.8671876 L 3.9628906,7.9375 2.7636719,8.2578125 3.1425781,9.1914062 5.1875,8.6445312 6.4121094,9.3515625 3.5234375,10.125 l 0.3789063,0.933594 3.734375,-1 L 8.75,10.701172 a 3.4999999,3.4999999 0 0 0 0,2.597656 l -1.1132812,0.642578 -3.734375,-1 L 3.5234375,13.875 6.4121094,14.648438 5.1875,15.355469 3.1425781,14.808594 2.7636719,15.742188 3.9628906,16.0625 l -1.7382812,1.003906 0.5,0.867188 1.7382812,-1.003906 -0.3222656,1.199218 0.9980469,0.136719 0.5488281,-2.042969 1.2246094,-0.707031 -0.7753906,2.888672 1,0.136719 1,-3.732422 L 9.25,14.166016 a 3.4999999,3.4999999 0 0 0 2.25,1.298828 V 16.75 L 8.7675781,19.482422 9.3847656,20.279297 11.5,18.164062 v 1.414063 l -1.496094,1.496094 0.619141,0.796875 L 11.5,20.992188 V 23 h 1 v -2.007812 l 0.876953,0.878906 0.619141,-0.796875 L 12.5,19.578125 v -1.414063 l 2.115234,2.115235 0.617188,-0.796875 L 12.5,16.75 v -1.285156 a 3.4999999,3.4999999 0 0 0 2.25,-1.298828 l 1.113281,0.642578 1,3.732422 1,-0.136719 -0.77539,-2.888672 1.224609,0.707031 0.548828,2.042969 0.998047,-0.136719 -0.322266,-1.199218 1.738282,1.003906 0.5,-0.867188 -1.738282,-1.003906 1.199219,-0.320312 -0.378906,-0.933594 -2.044922,0.546875 -1.224609,-0.707031 2.888671,-0.773438 -0.378906,-0.933594 -3.734375,1 L 15.25,13.298828 a 3.4999999,3.4999999 0 0 0 0,-2.597656 l 1.113281,-0.642578 3.734375,1 L 20.476562,10.125 17.587891,9.3515625 18.8125,8.6445312 20.857422,9.1914062 21.236328,8.2578125 20.037109,7.9375 21.775391,6.9335938 21.275391,6.0664062 19.537109,7.0703125 19.859375,5.8710938 18.861328,5.734375 18.3125,7.7773438 17.087891,8.484375 l 0.77539,-2.8886719 -1,-0.1367187 -1,3.7324218 L 14.75,9.8339844 A 3.4999999,3.4999999 0 0 0 12.5,8.5351562 V 7.25 L 15.232422,4.5175781 14.615234,3.7207031 12.5,5.8359375 V 4.421875 L 13.996094,2.9257812 13.376953,2.1289062 12.5,3.0078125 V 1 Z m 0.427734,8.5019531 A 2.5000065,2.5000065 0 0 1 14.5,12 a 2.5000065,2.5000065 0 1 1 -5,0 2.5000065,2.5000065 0 0 1 2.427734,-2.4980469 z"
         transform="matrix(0.26458334,0,0,0.26458334,0,290.64999)"
         id="path894"
         style="fill:#a93333;fill-opacity:1;stroke:none"
         inkscape:connector-curvature="0" />
    </g>
  </g>
  <g
     inkscape:groupmode="layer"
     id="layer9"
     inkscape:label="Pendente - burger e teclado">
    <g
       id="g1603"
       transform="rotate(-20.192569,76.185581,163.7231)">
      <path
         inkscape:connector-curvature="0"
         style="fill:#000000;fill-opacity:1;stroke-width:0.09533935"
         id="path922"
         d="m 76.185036,159.82981 c -1.919085,2e-4 -3.47471,1.16236 -3.474559,2.5956 l 6.950048,-7.4e-4 c -1.51e-4,-1.43333 -1.556022,-2.59506 -3.475489,-2.59486 z" />
      <path
         inkscape:connector-curvature="0"
         style="fill:#000000;fill-opacity:1;stroke-width:0.09533935"
         id="path924"
         d="m 72.7108,166.54995 c 6.2e-5,0.5891 0.477572,1.06651 1.066579,1.06644 l 4.81702,-5e-4 c 0.589198,-7e-5 1.066607,-0.47758 1.066545,-1.06668 l -7.1e-5,-0.66651 -6.950143,7.3e-4 z" />
      <path
         inkscape:connector-curvature="0"
         style="fill:#000000;fill-opacity:1;stroke-width:0.09533935"
         id="path926"
         d="m 72.910524,163.90693 6.550099,-6.9e-4 c 0.272385,-3e-5 0.493263,-0.22086 0.493234,-0.49334 -2.9e-5,-0.27248 -0.220858,-0.49326 -0.493338,-0.49323 l -3.445564,3.6e-4 c -1.285337,0.26346 -1.724226,0.7689 -1.724226,0.7689 -3.3e-5,-0.31252 -0.299143,-0.60003 -0.518346,-0.76866 l -0.861963,9e-5 c -0.272385,3e-5 -0.493263,0.22086 -0.493234,0.49334 2.9e-5,0.27248 0.220953,0.49326 0.493338,0.49323 z" />
      <path
         inkscape:connector-curvature="0"
         style="fill:#000000;fill-opacity:1;stroke-width:0.09533935"
         id="path928"
         d="m 79.460733,164.40118 -0.674622,8e-5 c -0.220597,0.16486 -0.547389,0.46426 -0.547355,0.79108 0,0 -0.464454,-0.53509 -1.83813,-0.79083 l -3.490088,3.6e-4 c -0.272385,3e-5 -0.493263,0.22086 -0.493234,0.49334 2.9e-5,0.27248 0.220858,0.49327 0.493338,0.49324 l 6.550099,-6.9e-4 c 0.272385,-3e-5 0.493263,-0.22086 0.493234,-0.49334 -2.9e-5,-0.27248 -0.220858,-0.49326 -0.493242,-0.49324 z" />
    </g>
    <g
       id="g1616"
       transform="matrix(0.09977103,0,0,0.09977103,61.906662,153.2619)"
       style="display:inline">
      <g
         id="g2237"
         transform="rotate(24.063399,72.550271,64.626586)">
        <path
           d="M 47.071,46.692 V 26.609 H 14.979 c -2.66,0 -4.817,2.157 -4.817,4.817 v 10.449 c 0,2.66 2.157,4.817 4.817,4.817 z"
           id="path1604" />
        <path
           d="M 85.021,26.609 H 52.929 v 20.083 h 32.092 c 2.66,0 4.817,-2.157 4.817,-4.817 V 31.426 c 0.001,-2.66 -2.156,-4.817 -4.817,-4.817 z"
           id="path1606" />
        <path
           d="M 37.831,6.183 C 36.443,5.409 34.872,5 33.291,5 c -3.387,0 -6.516,1.837 -8.164,4.793 -2.507,4.498 -0.888,10.197 3.61,12.704 1.12,0.624 3.398,1.454 10.221,1.454 3.761,0 7.088,-0.257 7.228,-0.268 0.754,-0.059 1.428,-0.491 1.796,-1.151 0.368,-0.661 0.381,-1.461 0.035,-2.134 C 46.986,18.399 41.649,8.311 37.831,6.183 Z m 1.127,13.253 c -5.975,0 -7.651,-0.676 -8.022,-0.883 -2.323,-1.295 -3.159,-4.239 -1.865,-6.562 0.852,-1.528 2.468,-2.477 4.22,-2.477 0.814,0 1.624,0.212 2.342,0.612 1.401,0.781 4.241,4.947 6.689,9.244 -1.014,0.039 -2.17,0.066 -3.364,0.066 z"
           id="path1608" />
        <path
           d="m 61.042,23.952 c 6.823,0 9.101,-0.83 10.221,-1.454 4.498,-2.507 6.117,-8.206 3.61,-12.704 C 73.225,6.837 70.097,5 66.709,5 65.127,5 63.557,5.409 62.168,6.183 58.35,8.311 53.013,18.399 51.982,20.399 c -0.347,0.672 -0.333,1.473 0.035,2.134 0.368,0.661 1.042,1.093 1.796,1.151 0.14,0.011 3.468,0.268 7.229,0.268 z m 3.325,-13.825 c 0.718,-0.4 1.528,-0.612 2.342,-0.612 1.752,0 3.368,0.949 4.22,2.477 1.295,2.323 0.458,5.266 -1.865,6.562 -0.371,0.207 -2.048,0.883 -8.022,0.883 -1.193,0 -2.349,-0.028 -3.363,-0.065 2.447,-4.298 5.287,-8.464 6.688,-9.245 z"
           id="path1610" />
        <path
           d="m 72.896,63.931 c 0.684,0.684 0.404,1.707 -0.463,1.691 l -5.538,0.587 -0.587,5.538 c 0.016,0.867 -1.007,1.147 -1.691,0.463 L 52.929,60.523 V 95 h 29.31 c 1.724,0 3.121,-1.397 3.121,-3.121 V 52.243 H 61.209 Z"
           id="path1612" />
        <path
           d="M 33.692,71.748 33.105,66.21 27.567,65.623 C 26.7,65.639 26.42,64.616 27.104,63.932 L 38.792,52.244 H 14.639 v 39.635 c 0,1.724 1.397,3.121 3.121,3.121 H 47.07 V 60.523 L 35.383,72.211 c -0.684,0.684 -1.707,0.404 -1.691,-0.463 z"
           id="path1614" />
      </g>
    </g>
    <path
       inkscape:connector-curvature="0"
       d="m 155.00652,158.17097 a 0.65084391,0.65084391 0 0 0 0.0716,-0.60204 l -2.51876,-6.56375 h 0.70291 a 0.65084391,0.65084391 0 0 0 0.55647,-0.29613 0.65084391,0.65084391 0 0 0 0.0455,-0.62156 l -3.13055,-6.96403 h 0.73544 a 0.65084391,0.65084391 0 0 0 0.56298,-0.32542 0.65084391,0.65084391 0 0 0 0,-0.65085 l -5.80227,-9.46002 a 0.65084391,0.65084391 0 0 0 -1.09342,0 l -4.00919,6.56051 -1.76054,2.87674 a 0.65084391,0.65084391 0 0 0 -0.0162,0.65083 0.65084391,0.65084391 0 0 0 0.56298,0.32543 h 0.73545 l -2.97435,6.6321 -0.1562,0.35471 a 0.65084391,0.65084391 0 0 0 0.0455,0.62156 0.65084391,0.65084391 0 0 0 0.54021,0.29613 h 0.70291 l -2.51877,6.56375 a 0.65084391,0.65084391 0 0 0 0.0716,0.60204 0.65084391,0.65084391 0 0 0 0.53043,0.28312 h 6.91197 v 1.95253 a 1.8809389,1.8809389 0 1 0 3.76187,0 v -1.95253 h 6.90546 a 0.65084391,0.65084391 0 0 0 0.53694,-0.28312 z"
       id="path1640"
       style="fill:#58a758;fill-opacity:1;stroke:none;stroke-width:0.32542193;stroke-opacity:1" />
    <g
       id="g1609"
       transform="matrix(0.28630705,-1.1665724,1.1665724,0.28630705,-80.257874,244.52256)">
      <path
         id="rect2918"
         style="fill:#000000;fill-opacity:1;stroke:#000000;stroke-width:0"
         d="m 127.19047,160.46915 -8.8e-4,0.57834 0.57834,8.9e-4 8.8e-4,-0.57834 z m 1.15668,0.002 -8.8e-4,0.57834 0.57833,8.9e-4 8.8e-4,-0.57834 z m 1.15667,0.002 -8.8e-4,0.57835 0.57834,8.8e-4 8.8e-4,-0.57834 z m -2.31514,1.15309 -8.9e-4,0.57834 0.57834,8.9e-4 8.9e-4,-0.57834 z m 1.15668,0.002 -8.9e-4,0.57834 0.57833,8.9e-4 8.9e-4,-0.57833 z m 1.15667,0.002 -8.9e-4,0.57833 0.57834,8.9e-4 8.9e-4,-0.57833 z m -2.31515,1.15309 -8.8e-4,0.57834 0.57834,8.9e-4 8.8e-4,-0.57834 z m 1.15668,0.002 -8.8e-4,0.57834 0.57832,8.8e-4 8.9e-4,-0.57834 z m 1.15667,0.002 -8.9e-4,0.57834 0.57834,8.9e-4 8.9e-4,-0.57834 z m -2.31515,1.15309 -8.9e-4,0.57834 1.73502,0.003 8.9e-4,-0.57834 z m 2.31336,0.004 -8.9e-4,0.57834 0.57833,8.9e-4 9e-4,-0.57834 z"
         inkscape:connector-curvature="0" />
      <path
         id="rect2914"
         style="fill:#000000;fill-opacity:1;stroke:#000000;stroke-width:0"
         d="m 115.62374,160.45143 -8.9e-4,0.57834 1.15667,0.002 8.9e-4,-0.57834 z m 1.73501,0.003 -8.9e-4,0.57834 1.15668,0.002 8.8e-4,-0.57834 z m 1.73501,0.003 -8.8e-4,0.57834 1.15667,0.002 8.8e-4,-0.57834 z m 1.73501,0.003 -8.8e-4,0.57834 1.15666,0.002 8.9e-4,-0.57834 z m 1.73501,0.003 -8.8e-4,0.57835 1.15666,0.002 8.9e-4,-0.57834 z m 1.73501,0.003 -8.9e-4,0.57834 1.15667,0.002 8.9e-4,-0.57834 z m -8.67683,1.14338 -8.8e-4,0.57833 1.15667,0.002 8.8e-4,-0.57833 z m 1.73501,0.003 -8.8e-4,0.57832 1.15667,0.002 8.9e-4,-0.57833 z m 1.73502,0.003 -8.9e-4,0.57833 1.15667,0.002 8.9e-4,-0.57833 z m 1.73501,0.003 -8.9e-4,0.57833 1.15667,0.002 8.8e-4,-0.57834 z m 1.735,0.003 -8.8e-4,0.57834 1.15667,0.002 8.8e-4,-0.57833 z m 1.73502,0.003 -8.9e-4,0.57832 1.15667,0.002 8.9e-4,-0.57832 z m -8.67682,1.14337 -8.9e-4,0.57834 1.15667,0.002 8.9e-4,-0.57834 z m 1.73501,0.003 -8.9e-4,0.57834 1.15667,0.002 8.8e-4,-0.57834 z m 1.735,0.003 -8.8e-4,0.57834 1.15667,0.002 8.8e-4,-0.57835 z m 1.73501,0.003 -8.8e-4,0.57834 1.15667,0.002 8.8e-4,-0.57834 z m 1.73501,0.003 -8.8e-4,0.57834 1.15667,0.002 8.9e-4,-0.57834 z m 1.73502,0.003 -8.9e-4,0.57834 1.15667,0.002 8.9e-4,-0.57834 z m -8.67683,1.14338 -8.9e-4,0.57834 1.15667,0.002 8.9e-4,-0.57834 z m 1.73501,0.003 -8.9e-4,0.57834 6.36171,0.01 8.9e-4,-0.57834 z m 6.94005,0.0106 -8.9e-4,0.57834 1.15666,0.002 8.9e-4,-0.57834 z"
         inkscape:connector-curvature="0" />
    </g>
    <path
       style="fill:#000000;fill-opacity:1;stroke:none;stroke-width:0.26458332;stroke-linecap:round;stroke-linejoin:bevel;stroke-miterlimit:10;stroke-dasharray:none;stroke-dashoffset:0;stroke-opacity:1;paint-order:normal"
       id="path5915"
       sodipodi:type="arc"
       sodipodi:cx="145.69736"
       sodipodi:cy="135.65047"
       sodipodi:rx="1.0671937"
       sodipodi:ry="1.0671937"
       sodipodi:start="0"
       sodipodi:end="6.2792758"
       d="m 146.76455,135.65047 a 1.0671937,1.0671937 0 0 1 -1.06615,1.06719 1.0671937,1.0671937 0 0 1 -1.06823,-1.06511 1.0671937,1.0671937 0 0 1 1.06406,-1.06927 1.0671937,1.0671937 0 0 1 1.07031,1.06301 l -1.06718,0.004 z" />
  </g>
  <g
     inkscape:groupmode="layer"
     id="layer11"
     inkscape:label="Decorações Árvore">
    <path
       inkscape:connector-curvature="0"
       d="m 119.76609,139.83274 a 0.33194136,0.33194136 0 0 0 0.0365,-0.30705 l -1.28461,-3.34763 h 0.3585 a 0.33194136,0.33194136 0 0 0 0.28381,-0.15103 0.33194136,0.33194136 0 0 0 0.0232,-0.317 l -1.59663,-3.55178 h 0.37509 a 0.33194136,0.33194136 0 0 0 0.28713,-0.16597 0.33194136,0.33194136 0 0 0 0,-0.33194 l -2.95926,-4.82477 a 0.33194136,0.33194136 0 0 0 -0.55767,0 l -2.04475,3.34597 -0.89791,1.46719 a 0.33194136,0.33194136 0 0 0 -0.008,0.33193 0.33194136,0.33194136 0 0 0 0.28713,0.16597 h 0.37509 l -1.51696,3.38249 -0.0797,0.18091 a 0.33194136,0.33194136 0 0 0 0.0232,0.317 0.33194136,0.33194136 0 0 0 0.27552,0.15103 h 0.35849 l -1.28462,3.34763 a 0.33194136,0.33194136 0 0 0 0.0365,0.30705 0.33194136,0.33194136 0 0 0 0.27053,0.14439 h 3.52522 v 0.99583 a 0.9593111,0.9593111 0 1 0 1.91862,0 v -0.99583 h 3.5219 a 0.33194136,0.33194136 0 0 0 0.27385,-0.14439 z"
       id="path1640-2"
       style="fill:#a93333;fill-opacity:1;stroke:none;stroke-width:0.16597067;stroke-opacity:1" />
  </g>
  <g
     inkscape:groupmode="layer"
     id="layer5"
     inkscape:label="Sofia&amp;Ruben"
     sodipodi:insensitive="true"
     style="display:none;opacity:0.170732">
    <text
       xml:space="preserve"
       style="font-size:16.4746px;line-height:1.25;font-family:Yesteryear;-inkscape-font-specification:Yesteryear;stroke-width:0.411864"
       x="78.279144"
       y="113.24078"
       id="text1062"><tspan
         sodipodi:role="line"
         x="78.279144"
         y="113.24078"
         style="stroke-width:0.411864"
         id="tspan1064" /></text>
    <text
       xml:space="preserve"
       style="font-size:12.7346px;line-height:1.25;font-family:Yesteryear;-inkscape-font-specification:Yesteryear;fill:#a93333;fill-opacity:1;stroke-width:0.513223"
       x="72.654091"
       y="126.43738"
       id="text1072"><tspan
         sodipodi:role="line"
         id="tspan1070"
         x="72.654091"
         y="126.43738"
         style="font-size:12.7346px;fill:#a93333;fill-opacity:1;stroke-width:0.513223">&amp;</tspan></text>
    <text
       xml:space="preserve"
       style="font-size:22.5778px;line-height:1.25;font-family:Yesteryear;-inkscape-font-specification:Yesteryear;fill:#a93333;fill-opacity:1;stroke-width:0.264583"
       x="91.182022"
       y="130.8394"
       id="text1076"><tspan
         sodipodi:role="line"
         id="tspan1074"
         x="91.182022"
         y="130.8394"
         style="font-size:22.5778px;fill:#a93333;fill-opacity:1;stroke-width:0.264583">uben</tspan></text>
    <text
       xml:space="preserve"
       style="font-size:25.4px;line-height:1.25;font-family:Yesteryear;-inkscape-font-specification:Yesteryear;fill:#a93333;fill-opacity:1;stroke-width:0.264583"
       x="78.263306"
       y="115.66746"
       id="text1080"><tspan
         sodipodi:role="line"
         id="tspan1078"
         x="78.263306"
         y="115.66746"
         style="font-size:25.4px;fill:#a93333;fill-opacity:1;stroke-width:0.264583">Sofia</tspan></text>
    <text
       xml:space="preserve"
       style="font-size:22.5778px;line-height:1.25;font-family:Yesteryear;-inkscape-font-specification:Yesteryear;fill:#a93333;fill-opacity:1;stroke-width:0.264583"
       x="77.362015"
       y="131.44028"
       id="text1084"><tspan
         sodipodi:role="line"
         id="tspan1082"
         x="77.362015"
         y="131.44028"
         style="font-size:22.5778px;fill:#a93333;fill-opacity:1;stroke-width:0.264583">R</tspan></text>
  </g>
  <g
     inkscape:groupmode="layer"
     id="layer7"
     inkscape:label="Cafi&amp;João"
     sodipodi:insensitive="true"
     style="display:none">
    <text
       xml:space="preserve"
       style="font-size:25.39999962px;line-height:1.25;font-family:Yesteryear;-inkscape-font-specification:Yesteryear;fill:#a93333;fill-opacity:1;stroke-width:0.26458299"
       x="91.364975"
       y="115.42474"
       id="text856"><tspan
         sodipodi:role="line"
         id="tspan854"
         x="91.364975"
         y="115.42474"
         style="font-size:25.39999962px;fill:#a93333;fill-opacity:1;stroke-width:0.26458299">afi</tspan></text>
    <text
       xml:space="preserve"
       style="font-size:19.75559998px;line-height:1.25;font-family:Yesteryear;-inkscape-font-specification:Yesteryear;fill:#a93333;fill-opacity:1;stroke-width:0.26458299"
       x="111.79504"
       y="122.58045"
       id="text860"><tspan
         sodipodi:role="line"
         id="tspan858"
         x="111.79504"
         y="122.58045"
         style="font-size:19.75559998px;fill:#a93333;fill-opacity:1;stroke-width:0.26458299">&amp;</tspan></text>
    <text
       xml:space="preserve"
       style="font-size:25.39999962px;line-height:1.25;font-family:Yesteryear;-inkscape-font-specification:Yesteryear;fill:#a93333;fill-opacity:1;stroke-width:0.26458299"
       x="94.268723"
       y="133.677"
       id="text864"><tspan
         sodipodi:role="line"
         id="tspan862"
         x="94.268723"
         y="133.677"
         style="font-size:25.39999962px;fill:#a93333;fill-opacity:1;stroke-width:0.26458299">oao</tspan></text>
    <text
       xml:space="preserve"
       style="font-size:25.39999962px;line-height:1.25;font-family:Yesteryear;-inkscape-font-specification:Yesteryear;fill:#a93333;fill-opacity:1;stroke-width:0.26458299"
       x="80.372131"
       y="135.12886"
       id="text868"><tspan
         sodipodi:role="line"
         id="tspan866"
         x="80.372131"
         y="135.12886"
         style="font-size:25.39999962px;fill:#a93333;fill-opacity:1;stroke-width:0.26458299">J</tspan></text>
    <text
       xml:space="preserve"
       style="font-size:25.39999962px;line-height:1.25;font-family:Yesteryear;-inkscape-font-specification:Yesteryear;fill:#a93333;fill-opacity:1;stroke-width:0.26458299"
       x="79.54248"
       y="115.52843"
       id="text872"><tspan
         sodipodi:role="line"
         id="tspan870"
         x="79.54248"
         y="115.52843"
         style="font-size:25.39999962px;fill:#a93333;fill-opacity:1;stroke-width:0.26458299">C</tspan></text>
    <text
       xml:space="preserve"
       style="font-size:31.93009949px;line-height:1.25;font-family:Yesteryear;-inkscape-font-specification:Yesteryear;fill:#a93333;fill-opacity:1;stroke-width:0.292043"
       x="105.17609"
       y="133.96983"
       id="text876"
       transform="rotate(-0.26099153)"><tspan
         sodipodi:role="line"
         id="tspan874"
         x="105.17609"
         y="133.96983"
         style="font-size:31.93009949px;fill:#a93333;fill-opacity:1;stroke-width:0.292043">~</tspan></text>
  </g>
  <g
     inkscape:groupmode="layer"
     id="layer10"
     inkscape:label="Gisa&amp;Rui">
    <text
       xml:space="preserve"
       style="font-style:normal;font-variant:normal;font-weight:normal;font-stretch:normal;font-size:25.39999962px;line-height:1.25;font-family:Yesteryear;-inkscape-font-specification:Yesteryear;letter-spacing:0px;word-spacing:0px;fill:#a93333;fill-opacity:1;stroke:none;stroke-width:0.26458332"
       x="83.272713"
       y="111.1983"
       id="text5920"
       transform="rotate(3.6556609)"><tspan
         sodipodi:role="line"
         id="tspan5918"
         x="83.272713"
         y="111.1983"
         style="fill:#a93333;fill-opacity:1;stroke-width:0.26458332">G</tspan></text>
    <text
       xml:space="preserve"
       style="font-style:normal;font-variant:normal;font-weight:normal;font-stretch:normal;font-size:25.39999962px;line-height:1.25;font-family:Yesteryear;-inkscape-font-specification:Yesteryear;letter-spacing:0px;word-spacing:0px;fill:#a93333;fill-opacity:1;stroke:none;stroke-width:0.26458332"
       x="89.297256"
       y="116.12733"
       id="text5924"><tspan
         sodipodi:role="line"
         id="tspan5922"
         x="89.297256"
         y="116.12733"
         style="fill:#a93333;fill-opacity:1;stroke-width:0.26458332">isa</tspan></text>
    <text
       xml:space="preserve"
       style="font-style:normal;font-variant:normal;font-weight:normal;font-stretch:normal;font-size:18.44437218px;line-height:1.25;font-family:Yesteryear;-inkscape-font-specification:Yesteryear;letter-spacing:0px;word-spacing:0px;fill:#a93333;fill-opacity:1;stroke:none;stroke-width:0.19212887"
       x="112.67838"
       y="123.32264"
       id="text5928"><tspan
         sodipodi:role="line"
         id="tspan5926"
         x="112.67838"
         y="123.32264"
         style="font-size:18.44437218px;fill:#a93333;fill-opacity:1;stroke-width:0.19212887">&amp;</tspan></text>
    <text
       xml:space="preserve"
       style="font-style:normal;font-variant:normal;font-weight:normal;font-stretch:normal;font-size:25.39999962px;line-height:1.25;font-family:Yesteryear;-inkscape-font-specification:Yesteryear;letter-spacing:0px;word-spacing:0px;fill:#a93333;fill-opacity:1;stroke:none;stroke-width:0.26458332;"
       x="80.090355"
       y="135.49802"
       id="text5932"><tspan
         sodipodi:role="line"
         id="tspan5930"
         x="80.090355"
         y="135.49802"
         style="stroke-width:0.26458332;fill:#a93333;fill-opacity:1;">R</tspan></text>
    <text
       xml:space="preserve"
       style="font-style:normal;font-variant:normal;font-weight:normal;font-stretch:normal;font-size:25.39999962px;line-height:1.25;font-family:Yesteryear;-inkscape-font-specification:Yesteryear;letter-spacing:0px;word-spacing:0px;fill:#a93333;fill-opacity:1;stroke:none;stroke-width:0.26458332;"
       x="94.929413"
       y="137.83566"
       id="text5936"><tspan
         sodipodi:role="line"
         id="tspan5934"
         x="94.929413"
         y="137.83566"
         style="stroke-width:0.26458332;fill:#a93333;fill-opacity:1;">ui</tspan></text>
  </g>
</svg>
