<?xml version="1.0" encoding="UTF-8" standalone="no"?>
<svg
   xmlns:dc="http://purl.org/dc/elements/1.1/"
   xmlns:cc="http://creativecommons.org/ns#"
   xmlns:rdf="http://www.w3.org/1999/02/22-rdf-syntax-ns#"
   xmlns:svg="http://www.w3.org/2000/svg"
   xmlns="http://www.w3.org/2000/svg"
   xmlns:xlink="http://www.w3.org/1999/xlink"
   xmlns:sodipodi="http://sodipodi.sourceforge.net/DTD/sodipodi-0.dtd"
   xmlns:inkscape="http://www.inkscape.org/namespaces/inkscape"
   width="210mm"
   height="297mm"
   viewBox="0 0 210 297"
   version="1.1"
   id="svg8"
   inkscape:version="1.0.1 (3bc2e813f5, 2020-09-07)"
   sodipodi:docname="v1.svg">
  <defs
     id="defs2">
    <linearGradient
       inkscape:collect="always"
       id="linearGradient882">
      <stop
         style="stop-color:#000000;stop-opacity:1;"
         offset="0"
         id="stop878" />
      <stop
         style="stop-color:#000000;stop-opacity:0;"
         offset="1"
         id="stop880" />
    </linearGradient>
    <linearGradient
       inkscape:collect="always"
       xlink:href="#linearGradient882"
       id="linearGradient884"
       x1="111.39954"
       y1="115.71229"
       x2="122.87862"
       y2="115.71229"
       gradientUnits="userSpaceOnUse" />
  </defs>
  <sodipodi:namedview
     id="base"
     pagecolor="#ffffff"
     bordercolor="#666666"
     borderopacity="1.0"
     inkscape:pageopacity="0.0"
     inkscape:pageshadow="2"
     inkscape:zoom="1.8407445"
     inkscape:cx="390.91008"
     inkscape:cy="500.93554"
     inkscape:document-units="mm"
     inkscape:current-layer="layer9"
     inkscape:document-rotation="0"
     showgrid="false"
     inkscape:window-width="1920"
     inkscape:window-height="1017"
     inkscape:window-x="-8"
     inkscape:window-y="-8"
     inkscape:window-maximized="1"
     showguides="false" />
  <metadata
     id="metadata5">
    <rdf:RDF>
      <cc:Work
         rdf:about="">
        <dc:format>image/svg+xml</dc:format>
        <dc:type
           rdf:resource="http://purl.org/dc/dcmitype/StillImage" />
        <dc:title />
      </cc:Work>
    </rdf:RDF>
  </metadata>
  <g
     inkscape:groupmode="layer"
     id="layer2"
     inkscape:label="Fundo"
     style="display:inline"
     sodipodi:insensitive="true">
    <rect
       style="fill:#000000;fill-opacity:1;stroke:none;stroke-width:0.264583"
       id="rect1040"
       width="117.16964"
       height="109.05789"
       x="39.999557"
       y="71.385353" />
  </g>
  <g
     inkscape:groupmode="layer"
     id="g1567"
     inkscape:label="Pendentes"
     style="display:inline"
     sodipodi:insensitive="true">
    <path
       id="path1565"
       style="fill:#58a758;fill-opacity:1;fill-rule:evenodd;stroke:none;stroke-width:0.106975"
       d="m 67.568575,144.36652 c -0.495064,0.006 -0.883443,0.22587 -1.186754,0.61573 -0.643488,1.46052 0.743024,2.51287 2.875579,2.93951 -4.952441,-0.0319 -6.422258,2.22057 -6.422258,2.22057 l 0.958596,0.0478 c 0,0 -0.032,0.44745 0.11178,1.11843 2.556098,-3.01939 6.374203,-2.5722 6.374203,-2.5722 l -0.09569,0.28749 -2.204687,0.97468 0.02654,0.002 c -0.89698,0.40155 -1.542337,0.94776 -1.785354,1.57663 -4.568326,1.76775 -7.490307,5.58092 -7.490337,9.77483 2.3e-5,4.26422 3.019596,8.12759 7.702615,9.85507 2.039017,1.16625 3.557053,2.92411 4.294251,4.97266 0.141022,0.41475 0.494766,0.75263 0.947104,0.75259 0.413553,-7e-5 0.781792,-0.26177 0.917854,-0.6523 l 0.0017,-2.1e-4 c 0.722967,-2.0904 2.256597,-3.88718 4.329979,-5.07295 4.682854,-1.7275 7.702319,-5.59076 7.702405,-9.85486 0,-4.14388 -2.853414,-7.9209 -7.339903,-9.71571 -0.217039,-0.63283 -0.840805,-1.18616 -1.721418,-1.59689 l -1.43476,-0.99976 0.11178,-0.1918 c 2.08723,0.65335 4.259989,0.41747 6.150642,3.11522 l 0.223561,-1.21412 0.830727,0.17571 c -0.248273,-1.6383 -3.436463,-2.3999 -6.502071,-2.97126 1.39793,-0.26076 3.508221,-0.52514 3.290942,-2.09291 -0.217279,-1.56777 -1.281667,-1.78735 -4.872374,0.55911 -0.645012,-0.69961 -1.432006,-0.68986 -2.332556,-0.11178 -1.515834,-1.37087 -2.636955,-1.95222 -3.462061,-1.94164 z m 0.411812,1.22624 c 0.524994,0.0225 1.626657,1.10044 2.10774,1.30648 -0.847967,-0.24905 -2.617785,-0.14259 -2.332555,-1.19825 0.05007,-0.0805 0.127594,-0.1124 0.224815,-0.10823 z m 8.680224,0.24634 c 0.06723,0.003 0.120046,0.0292 0.15482,0.0857 0.476166,0.96018 -1.43907,0.92656 -2.332346,1.19824 0.536483,-0.15728 1.706935,-1.3026 2.177526,-1.2839 z m -4.437582,1.13995 a 0.76682936,0.71890257 0 0 1 0.0059,0 0.76682936,0.71890257 0 0 1 0.766793,0.71895 0.76682936,0.71890257 0 0 1 -0.766793,0.71894 0.76682936,0.71890257 0 0 1 -0.766793,-0.71894 0.76682936,0.71890257 0 0 1 0.760942,-0.71895 z" />
    <path
       id="path1569"
       style="fill:#58a758;fill-opacity:1;fill-rule:evenodd;stroke:none;stroke-width:0.106975"
       d="m 118.34128,144.36652 c -0.49506,0.006 -0.88344,0.22587 -1.18675,0.61573 -0.64349,1.46052 0.74302,2.51287 2.87558,2.93951 -4.95244,-0.0319 -6.42226,2.22057 -6.42226,2.22057 l 0.9586,0.0478 c 0,0 -0.032,0.44745 0.11178,1.11843 2.5561,-3.01939 6.3742,-2.5722 6.3742,-2.5722 l -0.0957,0.28749 -2.20469,0.97468 0.0265,0.002 c -0.89698,0.40155 -1.54233,0.94776 -1.78535,1.57663 -4.56833,1.76775 -7.49031,5.58092 -7.49034,9.77483 3e-5,4.26422 3.0196,8.12759 7.70262,9.85507 2.03901,1.16625 3.55705,2.92411 4.29425,4.97266 0.14102,0.41475 0.49476,0.75263 0.9471,0.75259 0.41356,-7e-5 0.78179,-0.26177 0.91786,-0.6523 l 0.002,-2.1e-4 c 0.72296,-2.0904 2.25659,-3.88718 4.32998,-5.07295 4.68285,-1.7275 7.70231,-5.59076 7.7024,-9.85486 0,-4.14388 -2.85341,-7.9209 -7.3399,-9.71571 -0.21704,-0.63283 -0.84081,-1.18616 -1.72142,-1.59689 l -1.43476,-0.99976 0.11178,-0.1918 c 2.08723,0.65335 4.25999,0.41747 6.15064,3.11522 l 0.22356,-1.21412 0.83073,0.17571 c -0.24827,-1.6383 -3.43646,-2.3999 -6.50207,-2.97126 1.39793,-0.26076 3.50822,-0.52514 3.29094,-2.09291 -0.21728,-1.56777 -1.28167,-1.78735 -4.87237,0.55911 -0.64502,-0.69961 -1.43201,-0.68986 -2.33256,-0.11178 -1.51583,-1.37087 -2.63695,-1.95222 -3.46206,-1.94164 z m 0.41182,1.22624 c 0.52499,0.0225 1.62665,1.10044 2.10774,1.30648 -0.84797,-0.24905 -2.61779,-0.14259 -2.33256,-1.19825 0.0501,-0.0805 0.1276,-0.1124 0.22482,-0.10823 z m 8.68022,0.24634 c 0.0672,0.003 0.12005,0.0292 0.15482,0.0857 0.47617,0.96018 -1.43907,0.92656 -2.33235,1.19824 0.53649,-0.15728 1.70694,-1.3026 2.17753,-1.2839 z m -4.43758,1.13995 a 0.76682936,0.71890257 0 0 1 0.006,0 0.76682936,0.71890257 0 0 1 0.76679,0.71895 0.76682936,0.71890257 0 0 1 -0.76679,0.71894 0.76682936,0.71890257 0 0 1 -0.76679,-0.71894 0.76682936,0.71890257 0 0 1 0.76094,-0.71895 z" />
  </g>
  <g
     inkscape:groupmode="layer"
     id="layer3"
     inkscape:label="Moldura - fundo"
     style="display:inline"
     sodipodi:insensitive="true">
    <path
       id="path1043"
       style="fill:#58a758;fill-opacity:1;fill-rule:evenodd;stroke:none;stroke-width:0.999999"
       d="m 332.32422,296.06055 c -4.62785,0.0594 -8.25841,2.11148 -11.09375,5.75586 -6.01532,13.65293 6.94577,23.49023 26.88086,27.47851 -46.29533,-0.29868 -60.03516,20.75781 -60.03516,20.75781 l 8.96094,0.44727 c 0,0 -0.29914,4.18279 1.04492,10.45508 23.89436,-28.22522 59.58594,-24.04492 59.58594,-24.04492 l -0.89453,2.6875 -20.60938,9.11132 0.24805,0.0215 c -8.38495,3.75367 -14.41774,8.85965 -16.68945,14.73828 -42.70463,16.52497 -70.01926,52.17036 -70.01954,91.375 2.2e-4,39.8618 28.22713,75.97656 72.00391,92.125 19.06069,10.90203 33.25127,27.33453 40.14258,46.48437 1.31827,3.87708 4.62506,7.03553 8.85351,7.03516 3.86588,-6.4e-4 7.30818,-2.447 8.58008,-6.09766 l 0.0156,-0.002 c 6.75828,-19.54098 21.09463,-36.33728 40.47656,-47.42187 43.77524,-16.14864 72.00115,-52.26234 72.00195,-92.12305 0,-38.73691 -26.67366,-74.04439 -68.61328,-90.82227 -2.02888,-5.91569 -7.85983,-11.08818 -16.09179,-14.92773 l -13.41211,-9.3457 1.04492,-1.79297 c 19.51139,6.1075 39.8223,3.90253 57.49609,29.12109 l 2.08985,-11.34961 7.76562,1.64258 c -2.32086,-15.3148 -32.124,-22.43426 -60.78125,-27.77539 13.06783,-2.43753 32.79479,-4.90899 30.76367,-19.56445 -2.03112,-14.65546 -11.981,-16.70807 -45.54687,5.22656 -6.02956,-6.53994 -13.38636,-6.44882 -21.80469,-1.04492 -14.16999,-12.81486 -24.6502,-18.24933 -32.36328,-18.15039 z m 3.84961,11.46289 c 4.90764,0.21041 15.20596,10.2869 19.70312,12.21289 -7.92678,-2.32805 -24.47101,-1.33294 -21.80468,-11.20117 0.46804,-0.75216 1.19274,-1.05069 2.10156,-1.01172 z m 81.14258,2.30273 c 0.62843,0.025 1.12219,0.27312 1.44726,0.80078 4.45119,8.97579 -13.4524,8.66143 -21.80273,11.20117 5.01503,-1.47028 15.9564,-12.17673 20.35547,-12.00195 z m -41.48243,10.65625 a 7.1683072,6.7202884 0 0 1 0.0547,0 7.1683072,6.7202884 0 0 1 7.16797,6.7207 7.1683072,6.7202884 0 0 1 -7.16797,6.72071 7.1683072,6.7202884 0 0 1 -7.16797,-6.72071 7.1683072,6.7202884 0 0 1 7.11328,-6.7207 z"
       transform="scale(0.26458333)" />
  </g>
  <g
     inkscape:label="Moldura com estrelas"
     inkscape:groupmode="layer"
     id="layer1"
     style="display:inline"
     sodipodi:insensitive="true">
    <path
       id="path46"
       style="fill:#a93333;fill-opacity:1;fill-rule:evenodd;stroke:none;stroke-width:0.999999"
       d="m 332.32422,296.06055 c -4.62785,0.0594 -8.25841,2.11148 -11.09375,5.75586 -6.01532,13.65293 6.94577,23.49023 26.88086,27.47851 -46.29533,-0.29868 -60.03516,20.75781 -60.03516,20.75781 l 8.96094,0.44727 c 0,0 -0.29914,4.18279 1.04492,10.45508 23.89436,-28.22522 59.58594,-24.04492 59.58594,-24.04492 l -0.89453,2.6875 -20.60938,9.11132 0.24805,0.0215 c -8.38495,3.75367 -14.41774,8.85965 -16.68945,14.73828 -42.70463,16.52497 -70.01926,52.17036 -70.01954,91.375 2.2e-4,39.8618 28.22713,75.97656 72.00391,92.125 19.06069,10.90203 33.25127,27.3345 40.14258,46.48437 1.31827,3.87708 4.62503,7.03553 8.85351,7.03516 3.86588,-6.4e-4 7.30818,-2.447 8.58008,-6.09766 l 0.0156,-0.002 c 6.75828,-19.54098 21.09463,-36.33728 40.47656,-47.42187 43.77524,-16.14864 72.00115,-52.26234 72.00195,-92.12305 0,-38.73691 -26.67366,-74.04439 -68.61328,-90.82227 -2.02888,-5.91569 -7.85983,-11.08818 -16.09179,-14.92773 l -13.41211,-9.3457 1.04492,-1.79297 c 19.51139,6.1075 39.8223,3.90253 57.49609,29.12109 l 2.08985,-11.34961 7.76562,1.64258 c -2.32086,-15.3148 -32.124,-22.43426 -60.78125,-27.77539 13.06783,-2.43753 32.79479,-4.90899 30.76367,-19.56445 -2.03112,-14.65546 -11.981,-16.70807 -45.54687,5.22656 -6.02956,-6.53994 -13.38636,-6.44882 -21.80469,-1.04492 -14.16999,-12.81486 -24.6502,-18.24933 -32.36328,-18.15039 z m 3.84961,11.46289 c 4.90764,0.21041 15.20596,10.2869 19.70312,12.21289 -7.92678,-2.32805 -24.47101,-1.33294 -21.80468,-11.20117 0.46804,-0.75216 1.19274,-1.05069 2.10156,-1.01172 z m 81.14258,2.30273 c 0.62843,0.025 1.12219,0.27312 1.44726,0.80078 4.45119,8.97579 -13.4524,8.6614 -21.80273,11.20117 5.01503,-1.47031 15.9564,-12.17673 20.35547,-12.00195 z m -41.48243,10.65625 a 7.1683075,6.7202887 0 0 1 0.0547,0 7.1683075,6.7202887 0 0 1 7.16797,6.7207 7.1683075,6.7202887 0 0 1 -7.16797,6.72071 7.1683075,6.7202887 0 0 1 -7.16797,-6.72071 7.1683075,6.7202887 0 0 1 7.11328,-6.7207 z m -1.96289,38.38477 c 47.17631,3.83785 81.17709,35.98518 93.125,72.23633 11.94785,36.25092 1.041,70.19017 -39.19336,96.85742 -7.90064,-5.4994 -19.6483,-6.18944 -33.65625,-4.05469 -16.26958,-4.06182 -29.08784,-2.94602 -37.71289,4.45898 -8.24515,-4.39623 -16.48921,-2.32564 -24.73437,-0.81054 l -13.33203,2.09765 c -23.2035,-18.3219 -51.86119,-46.88584 -46.41016,-83.92578 5.28257,-35.89523 37.90795,-79.32838 101.91406,-86.85937 z m 19.78711,169.07617 2.4961,4.18164 4.85937,0.31445 -3.20508,3.66407 1.20313,4.71875 -4.47656,-1.91602 -4.11719,2.60352 0.43945,-4.84961 -3.74609,-3.11133 4.74609,-1.08203 z m -31.82226,3.41406 1.67773,4.57227 4.7168,1.21093 -3.83008,3.00586 0.30664,4.85938 -4.04492,-2.71289 -4.52539,1.79297 1.33008,-4.6836 -3.10352,-3.75 4.86524,-0.18359 z"
       transform="scale(0.26458333)" />
  </g>
  <g
     inkscape:groupmode="layer"
     id="layer8"
     inkscape:label="cortes p/ pendentes"
     sodipodi:insensitive="true"
     style="display:inline">
    <circle
       style="fill:#58a758;fill-opacity:1;stroke:#000000;stroke-width:0"
       id="path1561"
       cx="74.772011"
       cy="135.12888"
       r="1.6592956" />
    <circle
       style="fill:#58a758;fill-opacity:1;stroke:#000000;stroke-width:0"
       id="circle1563"
       cx="121.75082"
       cy="135.12888"
       r="1.6592956" />
  </g>
  <g
     inkscape:label="Moldura sem estrelas"
     inkscape:groupmode="layer"
     id="g1540"
     style="display:none">
    <g
       id="g1550">
      <path
         id="path1538"
         style="fill:#a93333;fill-opacity:1;fill-rule:evenodd;stroke:none;stroke-width:0.999999"
         d="m 332.32422,296.06055 c -4.62785,0.0594 -8.25841,2.11148 -11.09375,5.75586 -6.01532,13.65293 6.94577,23.49023 26.88086,27.47851 -46.29533,-0.29868 -60.03516,20.75781 -60.03516,20.75781 l 8.96094,0.44727 c 0,0 -0.29914,4.18279 1.04492,10.45508 23.89436,-28.22522 59.58594,-24.04492 59.58594,-24.04492 l -0.89453,2.6875 -20.60938,9.11132 0.24805,0.0215 c -8.38495,3.75367 -14.41774,8.85965 -16.68945,14.73828 -42.70463,16.52497 -70.01926,52.17036 -70.01954,91.375 2.2e-4,39.8618 28.22713,75.97656 72.00391,92.125 19.06069,10.90203 33.25127,27.33451 40.14258,46.48437 1.31827,3.87708 4.62504,7.03553 8.85351,7.03516 3.86588,-6.4e-4 7.30818,-2.447 8.58008,-6.09766 l 0.0156,-0.002 c 6.75828,-19.54098 21.09463,-36.33728 40.47656,-47.42187 43.77524,-16.14864 72.00115,-52.26234 72.00195,-92.12305 0,-38.73691 -26.67366,-74.04439 -68.61328,-90.82227 -2.02888,-5.91569 -7.85983,-11.08818 -16.09179,-14.92773 l -13.41211,-9.3457 1.04492,-1.79297 c 19.51139,6.1075 39.8223,3.90253 57.49609,29.12109 l 2.08985,-11.34961 7.76562,1.64258 c -2.32086,-15.3148 -32.124,-22.43426 -60.78125,-27.77539 13.06783,-2.43753 32.79479,-4.90899 30.76367,-19.56445 -2.03112,-14.65546 -11.981,-16.70807 -45.54687,5.22656 -6.02956,-6.53994 -13.38636,-6.44882 -21.80469,-1.04492 -14.16999,-12.81486 -24.6502,-18.24933 -32.36328,-18.15039 z m 3.84961,11.46289 c 4.90764,0.21041 15.20596,10.2869 19.70312,12.21289 -7.92678,-2.32805 -24.47101,-1.33294 -21.80468,-11.20117 0.46804,-0.75216 1.19274,-1.05069 2.10156,-1.01172 z m 81.14258,2.30273 c 0.62843,0.025 1.12219,0.27312 1.44726,0.80078 4.45119,8.97579 -13.4524,8.66141 -21.80273,11.20117 5.01503,-1.4703 15.9564,-12.17673 20.35547,-12.00195 z m -41.48243,10.65625 a 7.1683074,6.7202886 0 0 1 0.0547,0 7.1683074,6.7202886 0 0 1 7.16797,6.7207 7.1683074,6.7202886 0 0 1 -7.16797,6.72071 7.1683074,6.7202886 0 0 1 -7.16797,-6.72071 7.1683074,6.7202886 0 0 1 7.11328,-6.7207 z m -1.96289,38.38477 c 47.17631,3.83785 81.17709,35.98518 93.125,72.23633 11.94785,36.25092 1.041,70.19017 -39.19336,96.85742 -7.90064,-5.4994 -19.6483,-6.18944 -33.65625,-4.05469 -16.26958,-4.06182 -29.08784,-2.94602 -37.71289,4.45898 -8.24515,-4.39623 -16.48921,-2.32564 -24.73437,-0.81054 l -13.33203,2.09765 c -23.2035,-18.3219 -51.86119,-46.88584 -46.41016,-83.92578 5.28257,-35.89523 37.90795,-79.32838 101.91406,-86.85937 z m 19.78711,169.07617 2.4961,4.18164 4.85937,0.31445 -3.20508,3.66407 1.20313,4.71875 -4.47656,-1.91602 -4.11719,2.60352 0.43945,-4.84961 -3.74609,-3.11133 4.74609,-1.08203 z"
         transform="scale(0.26458333)" />
      <ellipse
         style="fill:#a93333;fill-opacity:1;stroke:#000000;stroke-width:0"
         id="path1546"
         cx="104.32821"
         cy="141.6105"
         rx="3.5260031"
         ry="2.8519142" />
    </g>
  </g>
  <g
     inkscape:groupmode="layer"
     id="layer4"
     inkscape:label="Decoraçoes 1 - estrelas"
     style="display:none"
     sodipodi:insensitive="true">
    <path
       id="path1029"
       style="display:inline;fill:#a93333;fill-opacity:1;stroke:none;stroke-width:0.205328"
       inkscape:transform-center-y="-4.1142227e-06"
       d="m 107.1766,132.14621 0.24321,2.78172 -2.70988,0.42183 2.53066,1.17995 -0.98959,2.55783 2.28717,-1.60162 1.7203,2.136 -0.24349,-2.78157 2.71016,-0.42197 -2.53066,-1.17995 0.98959,-2.55783 -2.28717,1.60162 z m 0.61623,1.49529 1.03223,1.28157 1.37242,-0.96103 -0.59384,1.53454 1.5184,0.7081 -1.62593,0.25324 0.14584,1.66886 -1.03195,-1.28171 -1.37241,0.96103 0.59383,-1.53454 -1.5184,-0.7081 1.62608,-0.25297 z" />
    <path
       id="path1017"
       style="display:inline;fill:#a93333;fill-opacity:1;stroke:none;stroke-width:0.199289"
       d="m 105.42935,95.155542 -1.77963,2.0442 -2.12038,-1.608918 0.88043,2.563138 -2.453951,1.031704 2.660071,0.518949 -0.33333,2.641105 1.77964,-2.04419 2.12037,1.60891 -0.88056,-2.562781 2.45408,-1.032073 -2.66006,-0.518939 z m -0.7867,1.797853 -0.16685,1.320489 1.33035,0.259163 -1.22729,0.516159 0.44059,1.281694 -1.06031,-0.804705 -0.89,1.022035 0.16685,-1.320483 -1.33022,-0.259531 1.22716,-0.515801 -0.44022,-1.281567 1.05994,0.804574 z"
       inkscape:transform-center-x="-1.9214668e-06"
       inkscape:transform-center-y="-1.5e-06" />
    <path
       id="path1086"
       style="display:inline;fill:#a93333;fill-opacity:1;stroke:none;stroke-width:0.174834"
       d="m 81.527959,135.88933 1.710647,1.65131 -1.505347,1.78527 2.285254,-0.65599 0.793484,2.19633 0.574512,-2.30706 2.298837,0.41107 -1.710743,-1.65106 1.50545,-1.78551 -2.285256,0.65599 -0.793482,-2.19633 -0.574512,2.30706 z m 1.231467,0.61635 1.379318,0.2466 0.344751,-1.38433 0.475947,1.31775 1.371229,-0.39352 -0.903131,1.07126 1.026237,0.99071 -1.379218,-0.24683 -0.344743,1.38433 -0.475953,-1.31775 -1.371228,0.39353 0.903377,-1.07117 z"
       inkscape:transform-center-x="2.6460852e-06"
       inkscape:transform-center-y="1.4080713e-06" />
  </g>
  <g
     inkscape:groupmode="layer"
     id="g892"
     inkscape:label="Decoraçoes 2 - estrelas"
     style="display:inline">
    <path
       id="path886"
       style="display:inline;fill:#a93333;fill-opacity:1;stroke:none;stroke-width:0.205328"
       inkscape:transform-center-y="-4.1142227e-06"
       d="m 95.768944,94.189822 0.24321,2.781721 -2.70988,0.42183 2.53066,1.17995 -0.98959,2.557827 2.28717,-1.601617 1.720297,2.135997 -0.24349,-2.781567 2.710159,-0.42197 -2.530659,-1.17995 0.98959,-2.557831 -2.287167,1.60162 z m 0.61623,1.49529 1.03223,1.281571 1.372417,-0.961031 -0.59384,1.534541 1.5184,0.7081 -1.62593,0.25324 0.14584,1.668857 -1.031947,-1.281707 -1.37241,0.96103 0.59383,-1.53454 -1.5184,-0.7081 1.62608,-0.25297 z" />
    <path
       id="path888"
       style="display:inline;fill:#a93333;fill-opacity:1;stroke:none;stroke-width:0.199289"
       d="m 118.4963,102.31125 -1.77963,2.0442 -2.12038,-1.60891 0.88043,2.56313 -2.45395,1.03171 2.66007,0.51895 -0.33333,2.6411 1.77964,-2.04419 2.12037,1.60891 -0.88056,-2.56278 2.45408,-1.03207 -2.66006,-0.51894 z m -0.7867,1.79786 -0.16685,1.32049 1.33035,0.25916 -1.22729,0.51616 0.44059,1.28169 -1.06031,-0.8047 -0.89,1.02203 0.16685,-1.32048 -1.33022,-0.25953 1.22716,-0.5158 -0.44022,-1.28157 1.05994,0.80457 z"
       inkscape:transform-center-x="-1.9214668e-06"
       inkscape:transform-center-y="-1.5e-06" />
    <path
       id="path890"
       style="display:inline;fill:#a93333;fill-opacity:1;stroke:none;stroke-width:0.174834"
       d="m 109.90543,134.71274 1.71065,1.65131 -1.50535,1.78527 2.28526,-0.65599 0.79348,2.19633 0.57451,-2.30706 2.29884,0.41107 -1.71074,-1.65106 1.50545,-1.78551 -2.28526,0.65599 -0.79348,-2.19633 -0.57451,2.30706 z m 1.23147,0.61635 1.37932,0.2466 0.34475,-1.38433 0.47595,1.31775 1.37122,-0.39352 -0.90313,1.07126 1.02624,0.99071 -1.37922,-0.24683 -0.34474,1.38433 -0.47595,-1.31775 -1.37123,0.39353 0.90338,-1.07117 z"
       inkscape:transform-center-x="2.6460852e-06"
       inkscape:transform-center-y="1.4080713e-06" />
  </g>
  <g
     inkscape:groupmode="layer"
     id="layer6"
     inkscape:label="Decoraçoes 1 - Neve"
     style="display:none"
     sodipodi:insensitive="true">
    <g
       transform="matrix(1.5431173,0.35665665,-0.35665665,1.5431173,217.85921,-333.96212)"
       id="g1106"
       style="fill:#a93333;fill-opacity:1">
      <path
         d="M 11.5,1 V 3.0078125 L 10.623047,2.1289062 10.003906,2.9257812 11.5,4.421875 V 5.8359375 L 9.3847656,3.7207031 8.7675781,4.5175781 11.5,7.25 V 8.5351562 A 3.4999999,3.4999999 0 0 0 9.25,9.8339844 l -1.1132812,-0.6425782 -1,-3.7324218 -1,0.1367187 L 6.9121094,8.484375 5.6875,7.7773438 5.1386719,5.734375 4.140625,5.8710938 4.4628906,7.0703125 2.7246094,6.0664062 l -0.5,0.8671876 L 3.9628906,7.9375 2.7636719,8.2578125 3.1425781,9.1914062 5.1875,8.6445312 6.4121094,9.3515625 3.5234375,10.125 l 0.3789063,0.933594 3.734375,-1 L 8.75,10.701172 a 3.4999999,3.4999999 0 0 0 0,2.597656 l -1.1132812,0.642578 -3.734375,-1 L 3.5234375,13.875 6.4121094,14.648438 5.1875,15.355469 3.1425781,14.808594 2.7636719,15.742188 3.9628906,16.0625 l -1.7382812,1.003906 0.5,0.867188 1.7382812,-1.003906 -0.3222656,1.199218 0.9980469,0.136719 0.5488281,-2.042969 1.2246094,-0.707031 -0.7753906,2.888672 1,0.136719 1,-3.732422 L 9.25,14.166016 a 3.4999999,3.4999999 0 0 0 2.25,1.298828 V 16.75 L 8.7675781,19.482422 9.3847656,20.279297 11.5,18.164062 v 1.414063 l -1.496094,1.496094 0.619141,0.796875 L 11.5,20.992188 V 23 h 1 v -2.007812 l 0.876953,0.878906 0.619141,-0.796875 L 12.5,19.578125 v -1.414063 l 2.115234,2.115235 0.617188,-0.796875 L 12.5,16.75 v -1.285156 a 3.4999999,3.4999999 0 0 0 2.25,-1.298828 l 1.113281,0.642578 1,3.732422 1,-0.136719 -0.77539,-2.888672 1.224609,0.707031 0.548828,2.042969 0.998047,-0.136719 -0.322266,-1.199218 1.738282,1.003906 0.5,-0.867188 -1.738282,-1.003906 1.199219,-0.320312 -0.378906,-0.933594 -2.044922,0.546875 -1.224609,-0.707031 2.888671,-0.773438 -0.378906,-0.933594 -3.734375,1 L 15.25,13.298828 a 3.4999999,3.4999999 0 0 0 0,-2.597656 l 1.113281,-0.642578 3.734375,1 L 20.476562,10.125 17.587891,9.3515625 18.8125,8.6445312 20.857422,9.1914062 21.236328,8.2578125 20.037109,7.9375 21.775391,6.9335938 21.275391,6.0664062 19.537109,7.0703125 19.859375,5.8710938 18.861328,5.734375 18.3125,7.7773438 17.087891,8.484375 l 0.77539,-2.8886719 -1,-0.1367187 -1,3.7324218 L 14.75,9.8339844 A 3.4999999,3.4999999 0 0 0 12.5,8.5351562 V 7.25 L 15.232422,4.5175781 14.615234,3.7207031 12.5,5.8359375 V 4.421875 L 13.996094,2.9257812 13.376953,2.1289062 12.5,3.0078125 V 1 Z m 0.427734,8.5019531 A 2.5000065,2.5000065 0 0 1 14.5,12 a 2.5000065,2.5000065 0 1 1 -5,0 2.5000065,2.5000065 0 0 1 2.427734,-2.4980469 z"
         transform="matrix(0.26458334,0,0,0.26458334,0,290.64999)"
         fill="#000000"
         stroke="none"
         id="path1104"
         style="fill:#a93333;fill-opacity:1" />
    </g>
  </g>
  <g
     inkscape:groupmode="layer"
     id="g898"
     inkscape:label="Decoraçoes 2 - Neve"
     style="display:inline">
    <g
       transform="matrix(2.351151,0.54341536,-0.54341536,2.351151,228.11761,-569.87437)"
       id="g896"
       style="fill:#a93333;fill-opacity:1">
      <path
         d="M 11.5,1 V 3.0078125 L 10.623047,2.1289062 10.003906,2.9257812 11.5,4.421875 V 5.8359375 L 9.3847656,3.7207031 8.7675781,4.5175781 11.5,7.25 V 8.5351562 A 3.4999999,3.4999999 0 0 0 9.25,9.8339844 l -1.1132812,-0.6425782 -1,-3.7324218 -1,0.1367187 L 6.9121094,8.484375 5.6875,7.7773438 5.1386719,5.734375 4.140625,5.8710938 4.4628906,7.0703125 2.7246094,6.0664062 l -0.5,0.8671876 L 3.9628906,7.9375 2.7636719,8.2578125 3.1425781,9.1914062 5.1875,8.6445312 6.4121094,9.3515625 3.5234375,10.125 l 0.3789063,0.933594 3.734375,-1 L 8.75,10.701172 a 3.4999999,3.4999999 0 0 0 0,2.597656 l -1.1132812,0.642578 -3.734375,-1 L 3.5234375,13.875 6.4121094,14.648438 5.1875,15.355469 3.1425781,14.808594 2.7636719,15.742188 3.9628906,16.0625 l -1.7382812,1.003906 0.5,0.867188 1.7382812,-1.003906 -0.3222656,1.199218 0.9980469,0.136719 0.5488281,-2.042969 1.2246094,-0.707031 -0.7753906,2.888672 1,0.136719 1,-3.732422 L 9.25,14.166016 a 3.4999999,3.4999999 0 0 0 2.25,1.298828 V 16.75 L 8.7675781,19.482422 9.3847656,20.279297 11.5,18.164062 v 1.414063 l -1.496094,1.496094 0.619141,0.796875 L 11.5,20.992188 V 23 h 1 v -2.007812 l 0.876953,0.878906 0.619141,-0.796875 L 12.5,19.578125 v -1.414063 l 2.115234,2.115235 0.617188,-0.796875 L 12.5,16.75 v -1.285156 a 3.4999999,3.4999999 0 0 0 2.25,-1.298828 l 1.113281,0.642578 1,3.732422 1,-0.136719 -0.77539,-2.888672 1.224609,0.707031 0.548828,2.042969 0.998047,-0.136719 -0.322266,-1.199218 1.738282,1.003906 0.5,-0.867188 -1.738282,-1.003906 1.199219,-0.320312 -0.378906,-0.933594 -2.044922,0.546875 -1.224609,-0.707031 2.888671,-0.773438 -0.378906,-0.933594 -3.734375,1 L 15.25,13.298828 a 3.4999999,3.4999999 0 0 0 0,-2.597656 l 1.113281,-0.642578 3.734375,1 L 20.476562,10.125 17.587891,9.3515625 18.8125,8.6445312 20.857422,9.1914062 21.236328,8.2578125 20.037109,7.9375 21.775391,6.9335938 21.275391,6.0664062 19.537109,7.0703125 19.859375,5.8710938 18.861328,5.734375 18.3125,7.7773438 17.087891,8.484375 l 0.77539,-2.8886719 -1,-0.1367187 -1,3.7324218 L 14.75,9.8339844 A 3.4999999,3.4999999 0 0 0 12.5,8.5351562 V 7.25 L 15.232422,4.5175781 14.615234,3.7207031 12.5,5.8359375 V 4.421875 L 13.996094,2.9257812 13.376953,2.1289062 12.5,3.0078125 V 1 Z m 0.427734,8.5019531 A 2.5000065,2.5000065 0 0 1 14.5,12 a 2.5000065,2.5000065 0 1 1 -5,0 2.5000065,2.5000065 0 0 1 2.427734,-2.4980469 z"
         transform="matrix(0.26458334,0,0,0.26458334,0,290.64999)"
         fill="#000000"
         stroke="none"
         id="path894"
         style="fill:#a93333;fill-opacity:1" />
    </g>
  </g>
  <g
     inkscape:groupmode="layer"
     id="layer9"
     inkscape:label="Pendente - burger e teclado">
    <g
       id="g930"
       transform="matrix(0.09533935,0,0,0.09533935,149.70362,172.01778)"
       style="display:inline;fill:#000000;fill-opacity:1">
      <g
         id="g1536"
         transform="rotate(-24.755032,-667.1378,1849.9075)"
         style="fill:#000000;fill-opacity:1">
        <path
           d="m 47.498,12.216 c -20.129,0 -36.447,12.188 -36.447,27.221 h 72.898 c 0,-15.034 -16.318,-27.221 -36.451,-27.221 z"
           id="path922"
           style="fill:#000000;fill-opacity:1" />
        <path
           d="m 11.051,71.598 c 0,6.179 5.008,11.187 11.186,11.187 h 50.525 c 6.18,0 11.188,-5.008 11.188,-11.187 V 64.607 H 11.051 Z"
           id="path924"
           style="fill:#000000;fill-opacity:1" />
        <path
           d="m 13.148,51.415 h 68.703 c 2.857,0 5.174,-2.316 5.174,-5.174 0,-2.858 -2.316,-5.174 -5.174,-5.174 h -36.14 c -13.482,2.762 -18.086,8.063 -18.086,8.063 0,-3.278 -3.137,-6.294 -5.436,-8.063 h -9.041 c -2.857,0 -5.174,2.316 -5.174,5.174 0,2.858 2.317,5.174 5.174,5.174 z"
           id="path926"
           style="fill:#000000;fill-opacity:1" />
        <path
           d="m 81.852,52.813 h -7.076 c -2.314,1.729 -5.742,4.869 -5.742,8.297 0,0 -4.871,-5.613 -19.279,-8.297 H 13.148 c -2.857,0 -5.174,2.316 -5.174,5.174 0,2.858 2.316,5.174 5.174,5.174 h 68.703 c 2.857,0 5.174,-2.316 5.174,-5.174 0,-2.858 -2.316,-5.174 -5.173,-5.174 z"
           id="path928"
           style="fill:#000000;fill-opacity:1" />
      </g>
    </g>
    <g
       id="g1616"
       transform="matrix(0.09977103,0,0,0.09977103,61.906662,153.2619)"
       style="display:inline">
      <g
         id="g2237"
         transform="rotate(24.063399,72.550271,64.626586)">
        <path
           d="M 47.071,46.692 V 26.609 H 14.979 c -2.66,0 -4.817,2.157 -4.817,4.817 v 10.449 c 0,2.66 2.157,4.817 4.817,4.817 z"
           id="path1604" />
        <path
           d="M 85.021,26.609 H 52.929 v 20.083 h 32.092 c 2.66,0 4.817,-2.157 4.817,-4.817 V 31.426 c 0.001,-2.66 -2.156,-4.817 -4.817,-4.817 z"
           id="path1606" />
        <path
           d="M 37.831,6.183 C 36.443,5.409 34.872,5 33.291,5 c -3.387,0 -6.516,1.837 -8.164,4.793 -2.507,4.498 -0.888,10.197 3.61,12.704 1.12,0.624 3.398,1.454 10.221,1.454 3.761,0 7.088,-0.257 7.228,-0.268 0.754,-0.059 1.428,-0.491 1.796,-1.151 0.368,-0.661 0.381,-1.461 0.035,-2.134 C 46.986,18.399 41.649,8.311 37.831,6.183 Z m 1.127,13.253 c -5.975,0 -7.651,-0.676 -8.022,-0.883 -2.323,-1.295 -3.159,-4.239 -1.865,-6.562 0.852,-1.528 2.468,-2.477 4.22,-2.477 0.814,0 1.624,0.212 2.342,0.612 1.401,0.781 4.241,4.947 6.689,9.244 -1.014,0.039 -2.17,0.066 -3.364,0.066 z"
           id="path1608" />
        <path
           d="m 61.042,23.952 c 6.823,0 9.101,-0.83 10.221,-1.454 4.498,-2.507 6.117,-8.206 3.61,-12.704 C 73.225,6.837 70.097,5 66.709,5 65.127,5 63.557,5.409 62.168,6.183 58.35,8.311 53.013,18.399 51.982,20.399 c -0.347,0.672 -0.333,1.473 0.035,2.134 0.368,0.661 1.042,1.093 1.796,1.151 0.14,0.011 3.468,0.268 7.229,0.268 z m 3.325,-13.825 c 0.718,-0.4 1.528,-0.612 2.342,-0.612 1.752,0 3.368,0.949 4.22,2.477 1.295,2.323 0.458,5.266 -1.865,6.562 -0.371,0.207 -2.048,0.883 -8.022,0.883 -1.193,0 -2.349,-0.028 -3.363,-0.065 2.447,-4.298 5.287,-8.464 6.688,-9.245 z"
           id="path1610" />
        <path
           d="m 72.896,63.931 c 0.684,0.684 0.404,1.707 -0.463,1.691 l -5.538,0.587 -0.587,5.538 c 0.016,0.867 -1.007,1.147 -1.691,0.463 L 52.929,60.523 V 95 h 29.31 c 1.724,0 3.121,-1.397 3.121,-3.121 V 52.243 H 61.209 Z"
           id="path1612" />
        <path
           d="M 33.692,71.748 33.105,66.21 27.567,65.623 C 26.7,65.639 26.42,64.616 27.104,63.932 L 38.792,52.244 H 14.639 v 39.635 c 0,1.724 1.397,3.121 3.121,3.121 H 47.07 V 60.523 L 35.383,72.211 c -0.684,0.684 -1.707,0.404 -1.691,-0.463 z"
           id="path1614" />
      </g>
    </g>
    <g
       id="g3021"
       transform="matrix(1.2261377,0,0,1.2261377,-25.771552,-39.101661)">
      <path
         id="rect2918"
         style="fill:#000000;fill-opacity:1;stroke:#000000;stroke-width:0"
         d="m 124.83094,164.52294 -0.22265,0.41582 0.41582,0.22265 0.22265,-0.41582 z m 0.83164,0.4453 -0.22265,0.41582 0.41581,0.22265 0.22265,-0.41582 z m 0.83163,0.4453 -0.22265,0.41582 0.41582,0.22265 0.22265,-0.41582 z m -2.10857,-0.059 -0.22265,0.41582 0.41582,0.22265 0.22265,-0.41582 z m 0.83164,0.4453 -0.22265,0.41582 0.41581,0.22264 0.22265,-0.41581 z m 0.83163,0.4453 -0.22265,0.41581 0.41582,0.22265 0.22265,-0.41581 z m -2.10857,-0.059 -0.22265,0.41582 0.41582,0.22265 0.22265,-0.41582 z m 0.83164,0.4453 -0.22265,0.41582 0.41581,0.22264 0.22265,-0.41582 z m 0.83163,0.44529 -0.22265,0.41582 0.41582,0.22265 0.22265,-0.41582 z m -2.10857,-0.059 -0.22265,0.41582 1.24746,0.66794 0.22265,-0.41582 z m 1.66328,0.89059 -0.22265,0.41582 0.41581,0.22265 0.22266,-0.41582 z" />
      <path
         id="rect2914"
         style="fill:#000000;fill-opacity:1;stroke:#000000;stroke-width:0"
         d="m 116.51459,160.06997 -0.22265,0.41582 0.83163,0.4453 0.22265,-0.41582 z m 1.24745,0.66795 -0.22265,0.41582 0.83164,0.44529 0.22265,-0.41582 z m 1.24746,0.66794 -0.22265,0.41582 0.83163,0.4453 0.22265,-0.41582 z m 1.24745,0.66795 -0.22265,0.41582 0.83163,0.44529 0.22265,-0.41582 z m 1.24745,0.66795 -0.22265,0.41582 0.83163,0.44529 0.22265,-0.41582 z m 1.24745,0.66794 -0.22265,0.41582 0.83163,0.4453 0.22265,-0.41582 z m -6.68256,-2.50809 -0.22264,0.41581 0.83163,0.4453 0.22264,-0.41581 z m 1.24745,0.66795 -0.22264,0.41581 0.83163,0.44529 0.22265,-0.41581 z m 1.24746,0.66794 -0.22265,0.41581 0.83163,0.4453 0.22265,-0.41581 z m 1.24745,0.66795 -0.22265,0.41581 0.83163,0.4453 0.22265,-0.41582 z m 1.24745,0.66794 -0.22265,0.41582 0.83164,0.44529 0.22264,-0.41581 z m 1.24745,0.66795 -0.22264,0.41581 0.83163,0.4453 0.22264,-0.41581 z m -6.68255,-2.5081 -0.22265,0.41582 0.83163,0.4453 0.22265,-0.41582 z m 1.24745,0.66795 -0.22265,0.41582 0.83163,0.44529 0.22265,-0.41582 z m 1.24745,0.66794 -0.22265,0.41582 0.83163,0.4453 0.22265,-0.41582 z m 1.24745,0.66795 -0.22265,0.41582 0.83163,0.4453 0.22265,-0.41582 z m 1.24745,0.66795 -0.22265,0.41582 0.83164,0.44529 0.22265,-0.41582 z m 1.24746,0.66794 -0.22265,0.41582 0.83163,0.4453 0.22265,-0.41582 z m -6.68256,-2.5081 -0.22265,0.41582 0.83163,0.4453 0.22265,-0.41582 z m 1.24745,0.66795 -0.22265,0.41582 4.57399,2.44914 0.22265,-0.41582 z m 4.98981,2.67179 -0.22265,0.41582 0.83163,0.44529 0.22265,-0.41582 z" />
      <path
         id="rect2295"
         d="m 119.29111,158.88148 0.41581,0.22265 -0.22265,0.41582 -0.41581,-0.22265 z"
         style="fill:#000000;fill-opacity:1;stroke-width:0.235837" />
      <path
         id="rect2297"
         d="m 120.12274,159.32678 0.41582,0.22265 -0.22265,0.41582 -0.41582,-0.22265 z"
         style="fill:#000000;fill-opacity:1;stroke-width:0.235837" />
      <path
         id="rect2299"
         d="m 120.95437,159.77207 0.41582,0.22265 -0.22265,0.41582 -0.41582,-0.22265 z"
         style="fill:#000000;fill-opacity:1;stroke-width:0.235837" />
      <path
         id="rect2301"
         d="m 125.52837,162.22121 0.83163,0.4453 -0.22265,0.41582 -0.83163,-0.4453 z"
         style="fill:#000000;fill-opacity:1;stroke-width:0.235837" />
      <path
         id="rect2303"
         d="m 124.28091,161.55327 0.83164,0.44529 -0.22265,0.41582 -0.83164,-0.44529 z"
         style="fill:#000000;fill-opacity:1;stroke-width:0.235837" />
      <path
         id="path2307"
         d="m 123.50889,158.99818 -8.4e-4,0.002 -0.20791,-0.11132 c -0.34388,-0.18413 -0.77357,-0.0541 -0.9577,0.28975 l -0.11132,0.20792 -4.01321,-2.14887 -1.88946,0.18271 -3.00011,5.60297 0.44293,1.46399 3.05975,1.63834 0.84637,-0.0819 3.61647,1.93643 0.40108,0.7498 3.05975,1.63834 1.46399,-0.44294 3.0001,-5.60297 -0.89537,-1.67385 -3.58927,-1.92186 -0.42394,-0.227 -0.41582,-0.22265 -0.83163,-0.4453 -0.22265,0.41581 4.32954,2.31825 0.18598,0.0996 0.42881,0.22961 0.19085,0.10219 0.70853,1.3251 -2.78876,5.20828 -1.08988,0.32974 -2.7617,-1.47875 -0.40107,-0.74979 -3.86824,-2.07124 -0.84638,0.0818 -2.76169,-1.47874 -0.32974,-1.08988 2.78876,-5.20827 1.49603,-0.14468 0.19086,0.1022 -2.2e-4,4.1e-4 0.4284,0.22939 2.3e-4,-4.1e-4 3.68387,1.97252 0.33398,-0.62372 c 0.0614,-0.11477 0.20467,-0.15792 0.31923,-0.0966 l 0.83164,0.4453 c 0.0818,0.0438 0.12515,0.1298 0.12211,0.2169 l 0.42962,0.23004 c 0.11699,-0.32459 -0.0161,-0.69517 -0.32908,-0.86276 l -0.20791,-0.11133 8.4e-4,-0.002 z m 3.49225,4.0576 -0.62514,0.68936 -7.99149,-4.27903 0.22697,-0.90203 -0.42841,-0.22939 -0.34566,1.37352 8.6408,4.6267 0.95174,-1.04952 z"
         style="fill:#000000;fill-opacity:1;stroke-width:0.235837"
         sodipodi:nodetypes="ccssccccccccccccccccccccccccccccccccccccccccsccscccccccccccc" />
    </g>
  </g>
  <g
     inkscape:groupmode="layer"
     id="layer5"
     inkscape:label="Sofia&amp;Ruben"
     sodipodi:insensitive="true"
     style="display:none;opacity:0.170732">
    <text
       xml:space="preserve"
       style="font-size:16.4746px;line-height:1.25;font-family:Yesteryear;-inkscape-font-specification:Yesteryear;stroke-width:0.411864"
       x="78.279144"
       y="113.24078"
       id="text1062"><tspan
         sodipodi:role="line"
         x="78.279144"
         y="113.24078"
         style="stroke-width:0.411864"
         id="tspan1064" /></text>
    <text
       xml:space="preserve"
       style="font-size:12.7346px;line-height:1.25;font-family:Yesteryear;-inkscape-font-specification:Yesteryear;fill:#a93333;fill-opacity:1;stroke-width:0.513223"
       x="72.654091"
       y="126.43738"
       id="text1072"><tspan
         sodipodi:role="line"
         id="tspan1070"
         x="72.654091"
         y="126.43738"
         style="font-size:12.7346px;fill:#a93333;fill-opacity:1;stroke-width:0.513223">&amp;</tspan></text>
    <text
       xml:space="preserve"
       style="font-size:22.5778px;line-height:1.25;font-family:Yesteryear;-inkscape-font-specification:Yesteryear;fill:#a93333;fill-opacity:1;stroke-width:0.264583"
       x="91.182022"
       y="130.8394"
       id="text1076"><tspan
         sodipodi:role="line"
         id="tspan1074"
         x="91.182022"
         y="130.8394"
         style="font-size:22.5778px;fill:#a93333;fill-opacity:1;stroke-width:0.264583">uben</tspan></text>
    <text
       xml:space="preserve"
       style="font-size:25.4px;line-height:1.25;font-family:Yesteryear;-inkscape-font-specification:Yesteryear;fill:#a93333;fill-opacity:1;stroke-width:0.264583"
       x="78.263306"
       y="115.66746"
       id="text1080"><tspan
         sodipodi:role="line"
         id="tspan1078"
         x="78.263306"
         y="115.66746"
         style="font-size:25.4px;fill:#a93333;fill-opacity:1;stroke-width:0.264583">Sofia</tspan></text>
    <text
       xml:space="preserve"
       style="font-size:22.5778px;line-height:1.25;font-family:Yesteryear;-inkscape-font-specification:Yesteryear;fill:#a93333;fill-opacity:1;stroke-width:0.264583"
       x="77.362015"
       y="131.44028"
       id="text1084"><tspan
         sodipodi:role="line"
         id="tspan1082"
         x="77.362015"
         y="131.44028"
         style="font-size:22.5778px;fill:#a93333;fill-opacity:1;stroke-width:0.264583">R</tspan></text>
  </g>
  <g
     inkscape:groupmode="layer"
     id="layer7"
     inkscape:label="Cafi&amp;João"
     sodipodi:insensitive="true"
     style="display:inline">
    <text
       xml:space="preserve"
       style="font-size:25.4px;line-height:1.25;font-family:Yesteryear;-inkscape-font-specification:Yesteryear;fill:#a93333;fill-opacity:1;stroke-width:0.264583"
       x="91.364975"
       y="115.42474"
       id="text856"><tspan
         sodipodi:role="line"
         id="tspan854"
         x="91.364975"
         y="115.42474"
         style="font-size:25.4px;fill:#a93333;fill-opacity:1;stroke-width:0.264583">afi</tspan></text>
    <text
       xml:space="preserve"
       style="font-size:19.7556px;line-height:1.25;font-family:Yesteryear;-inkscape-font-specification:Yesteryear;fill:#a93333;fill-opacity:1;stroke-width:0.264583"
       x="111.79504"
       y="122.58045"
       id="text860"><tspan
         sodipodi:role="line"
         id="tspan858"
         x="111.79504"
         y="122.58045"
         style="font-size:19.7556px;fill:#a93333;fill-opacity:1;stroke-width:0.264583">&amp;</tspan></text>
    <text
       xml:space="preserve"
       style="font-size:25.4px;line-height:1.25;font-family:Yesteryear;-inkscape-font-specification:Yesteryear;fill:#a93333;fill-opacity:1;stroke-width:0.264583"
       x="94.268723"
       y="133.677"
       id="text864"><tspan
         sodipodi:role="line"
         id="tspan862"
         x="94.268723"
         y="133.677"
         style="font-size:25.4px;fill:#a93333;fill-opacity:1;stroke-width:0.264583">oao</tspan></text>
    <text
       xml:space="preserve"
       style="font-size:25.4px;line-height:1.25;font-family:Yesteryear;-inkscape-font-specification:Yesteryear;fill:#a93333;fill-opacity:1;stroke-width:0.264583"
       x="80.372131"
       y="135.12886"
       id="text868"><tspan
         sodipodi:role="line"
         id="tspan866"
         x="80.372131"
         y="135.12886"
         style="font-size:25.4px;fill:#a93333;fill-opacity:1;stroke-width:0.264583">J</tspan></text>
    <text
       xml:space="preserve"
       style="font-size:25.4px;line-height:1.25;font-family:Yesteryear;-inkscape-font-specification:Yesteryear;fill:#a93333;fill-opacity:1;stroke-width:0.264583"
       x="79.54248"
       y="115.52843"
       id="text872"><tspan
         sodipodi:role="line"
         id="tspan870"
         x="79.54248"
         y="115.52843"
         style="font-size:25.4px;fill:#a93333;fill-opacity:1;stroke-width:0.264583">C</tspan></text>
    <text
       xml:space="preserve"
       style="font-size:31.9301px;line-height:1.25;font-family:Yesteryear;-inkscape-font-specification:Yesteryear;fill:#a93333;fill-opacity:1;stroke-width:0.292043"
       x="105.17609"
       y="133.96983"
       id="text876"
       transform="rotate(-0.26099153)"><tspan
         sodipodi:role="line"
         id="tspan874"
         x="105.17609"
         y="133.96983"
         style="font-size:31.9301px;fill:#a93333;fill-opacity:1;stroke-width:0.292043">~</tspan></text>
  </g>
</svg>
